<svg width="12" height="12" viewBox="0 0 12 12" fill="none" xmlns="http://www.w3.org/2000/svg">
<g id="heroicons-solid/arrow-up-circle">
<path id="Subtract" fill-rule="evenodd" clip-rule="evenodd" d="M6 1.125C3.30761 1.125 1.125 3.30761 1.125 6C1.125 8.69239 3.30761 10.875 6 10.875C8.69239 10.875 10.875 8.69239 10.875 6C10.875 3.30761 8.69239 1.125 6 1.125ZM6.26517 3.85984C6.19484 3.78951 6.09946 3.75 6 3.75C5.90054 3.75 5.80516 3.78951 5.73484 3.85984L4.23484 5.35983C4.08839 5.50628 4.08839 5.74372 4.23484 5.89016C4.38128 6.03661 4.61872 6.03661 4.76516 5.89016L5.625 5.03033L5.625 7.875C5.625 8.08211 5.79289 8.25 6 8.25C6.20711 8.25 6.375 8.08211 6.375 7.875L6.375 5.03033L7.23483 5.89017C7.38128 6.03661 7.61872 6.03661 7.76517 5.89017C7.91161 5.74372 7.91161 5.50628 7.76517 5.35984L6.26517 3.85984Z" fill="#2F9461"/>
</g>
</svg>
