<svg width="16" height="16" viewBox="0 0 16 16" fill="none" xmlns="http://www.w3.org/2000/svg">
<g id="heroicons-mini/arrow-right">
<path id="Vector (Stroke)" fill-rule="evenodd" clip-rule="evenodd" d="M2.39999 7.99999C2.39999 7.66862 2.66862 7.39999 2.99999 7.39999L11.5103 7.39999L8.18413 4.23249C7.94527 4.00281 7.93782 3.62298 8.16749 3.38412C8.39717 3.14526 8.777 3.13781 9.01586 3.36749L13.4159 7.56749C13.5335 7.68061 13.6 7.83678 13.6 7.99999C13.6 8.1632 13.5335 8.31936 13.4159 8.43249L9.01586 12.6325C8.777 12.8622 8.39717 12.8547 8.16749 12.6159C7.93782 12.377 7.94527 11.9972 8.18413 11.7675L11.5103 8.59999L2.99999 8.59999C2.66862 8.59999 2.39999 8.33136 2.39999 7.99999Z" fill="#506BC9"/>
</g>
</svg>
