<svg width="12" height="12" viewBox="0 0 12 12" fill="none" xmlns="http://www.w3.org/2000/svg">
<g id="heroicons-solid/arrow-down-circle">
<path id="Subtract" fill-rule="evenodd" clip-rule="evenodd" d="M6 1.125C3.30761 1.125 1.125 3.30761 1.125 6C1.125 8.69239 3.30761 10.875 6 10.875C8.69239 10.875 10.875 8.69239 10.875 6C10.875 3.30761 8.69239 1.125 6 1.125ZM5.73483 8.14016C5.80516 8.21049 5.90054 8.25 6 8.25C6.09946 8.25 6.19484 8.21049 6.26516 8.14017L7.76517 6.64017C7.91161 6.49372 7.91161 6.25628 7.76517 6.10984C7.61872 5.96339 7.38128 5.96339 7.23484 6.10984L6.375 6.96967L6.375 4.125C6.375 3.91789 6.20711 3.75 6 3.75C5.79289 3.75 5.625 3.91789 5.625 4.125L5.625 6.96967L4.76517 6.10983C4.61872 5.96339 4.38128 5.96339 4.23484 6.10983C4.08839 6.25628 4.08839 6.49372 4.23484 6.64016L5.73483 8.14016Z" fill="#CD3636"/>
</g>
</svg>
