<svg width="16" height="16" viewBox="0 0 16 16" fill="none" xmlns="http://www.w3.org/2000/svg">
<path d="M8 6C6.61929 6 5.5 7.11929 5.5 8.5C5.5 9.88071 6.61929 11 8 11C9.38071 11 10.5 9.88071 10.5 8.5C10.5 7.11929 9.38071 6 8 6Z" fill="#596066"/>
<path fill-rule="evenodd" clip-rule="evenodd" d="M6.22952 2.04742C6.81574 2.01594 7.40603 2 8 2C8.59397 2 9.18426 2.01594 9.77048 2.04742C10.4156 2.08206 10.9903 2.43741 11.3255 2.97456L11.8729 3.8519C12.0323 4.10733 12.303 4.28088 12.613 4.32494C12.8699 4.36145 13.1259 4.40097 13.3809 4.44345C14.3354 4.60252 15 5.43857 15 6.38268V12C15 13.1046 14.1046 14 13 14H3C1.89543 14 1 13.1046 1 12V6.38268C1 5.43856 1.66457 4.60251 2.61914 4.44345C2.8741 4.40096 3.13006 4.36145 3.38699 4.32493C3.69704 4.28087 3.96768 4.10732 4.12707 3.8519L4.67454 2.97456C5.00973 2.43741 5.58445 2.08206 6.22952 2.04742ZM4.5 8.5C4.5 6.567 6.067 5 8 5C9.933 5 11.5 6.567 11.5 8.5C11.5 10.433 9.933 12 8 12C6.067 12 4.5 10.433 4.5 8.5ZM12.5 7.5C12.7761 7.5 13 7.27614 13 7C13 6.72386 12.7761 6.5 12.5 6.5C12.2239 6.5 12 6.72386 12 7C12 7.27614 12.2239 7.5 12.5 7.5Z" fill="#596066"/>
</svg>
