<svg width="16" height="16" viewBox="0 0 16 16" fill="none" xmlns="http://www.w3.org/2000/svg">
<g id="heroicons-solid/chart-bar">
<g id="Union">
<path d="M12.25 1.5C11.5596 1.5 11 2.05964 11 2.75V13.25C11 13.9404 11.5596 14.5 12.25 14.5H12.75C13.4404 14.5 14 13.9404 14 13.25V2.75C14 2.05964 13.4404 1.5 12.75 1.5H12.25Z" fill="#F6F7F9"/>
<path d="M6.5 5.75C6.5 5.05964 7.05964 4.5 7.75 4.5H8.25C8.94036 4.5 9.5 5.05964 9.5 5.75V13.25C9.5 13.9404 8.94036 14.5 8.25 14.5H7.75C7.05964 14.5 6.5 13.9404 6.5 13.25V5.75Z" fill="#F6F7F9"/>
<path d="M2 8.75C2 8.05964 2.55964 7.5 3.25 7.5H3.75C4.44036 7.5 5 8.05964 5 8.75V13.25C5 13.9404 4.44036 14.5 3.75 14.5H3.25C2.55964 14.5 2 13.9404 2 13.25V8.75Z" fill="#F6F7F9"/>
</g>
</g>
</svg>
