<svg width="16" height="16" viewBox="0 0 16 16" fill="none" xmlns="http://www.w3.org/2000/svg">
<g id="heroicons-mini/chat-bubble-left-right">
<g id="Union">
<path d="M2.80392 1.89213C4.24214 1.69945 5.70961 1.60001 7.19999 1.60001C8.69037 1.60001 10.1578 1.69945 11.5961 1.89213C12.5935 2.02575 13.3392 2.77865 13.5438 3.70665C13.394 3.67859 13.24 3.65989 13.0825 3.65129C12.4591 3.61724 11.8315 3.60001 11.2 3.60001C10.5685 3.60001 9.94086 3.61724 9.31751 3.65129C7.38329 3.75693 5.99999 5.38192 5.99999 7.19836V8.99016C5.99999 10.1209 6.53605 11.1781 7.40832 11.8402L5.02425 14.2243C4.85265 14.3959 4.59458 14.4472 4.37038 14.3543C4.14617 14.2615 3.99999 14.0427 3.99999 13.8V11.0459C3.59916 11.007 3.20044 10.961 2.80393 10.9079C1.62671 10.7502 0.799988 9.72974 0.799988 8.57692V4.22309C0.799988 3.07029 1.62669 2.04984 2.80392 1.89213Z" fill="#F6F7F9"/>
<path d="M11.2 4.80001C10.5903 4.80001 9.98452 4.81664 9.38295 4.8495C8.12576 4.91816 7.19999 5.9777 7.19999 7.19836V8.99016C7.19999 10.2052 8.11734 11.2616 9.36813 11.3381C9.53904 11.3485 9.71029 11.3577 9.88189 11.3655C10.0421 11.3728 10.1893 11.4379 10.2962 11.5447L12.1757 13.4243C12.3473 13.5959 12.6054 13.6472 12.8296 13.5543C13.0538 13.4615 13.2 13.2427 13.2 13V11.3436C14.362 11.1878 15.2 10.1732 15.2 9.01185V7.19836C15.2 5.9777 14.2742 4.91816 13.017 4.8495C12.4155 4.81664 11.8096 4.80001 11.2 4.80001Z" fill="#F6F7F9"/>
</g>
</g>
</svg>
