<svg width="18" height="18" viewBox="0 0 18 18" fill="none" xmlns="http://www.w3.org/2000/svg">
<path fill-rule="evenodd" clip-rule="evenodd" d="M4.04995 1.79999C3.30437 1.79999 2.69995 2.4044 2.69995 3.14999V14.85C2.69995 15.5956 3.30437 16.2 4.04995 16.2H13.95C14.6955 16.2 15.3 15.5956 15.3 14.85V6.85918C15.3 6.50113 15.1577 6.15776 14.9045 5.90458L11.1954 2.19539C10.9422 1.94222 10.5988 1.79999 10.2408 1.79999H4.04995ZM6.07495 9.44999C5.70216 9.44999 5.39995 9.7522 5.39995 10.125C5.39995 10.4978 5.70216 10.8 6.07495 10.8H11.925C12.2977 10.8 12.6 10.4978 12.6 10.125C12.6 9.7522 12.2977 9.44999 11.925 9.44999H6.07495ZM6.07495 12.15C5.70216 12.15 5.39995 12.4522 5.39995 12.825C5.39995 13.1978 5.70216 13.5 6.07495 13.5H11.925C12.2977 13.5 12.6 13.1978 12.6 12.825C12.6 12.4522 12.2977 12.15 11.925 12.15H6.07495Z" fill="black"/>
</svg>
