<svg width="32" height="32" viewBox="0 0 32 32" fill="none" xmlns="http://www.w3.org/2000/svg">
<rect width="32" height="32" rx="16" fill="#F1F1F1"/>
<path d="M25.391 16.6024C25.391 15.9433 25.3273 15.2629 25.2209 14.625H16.0143V18.3885H21.2874C21.0747 19.6004 20.3731 20.6636 19.3312 21.344L22.4781 23.7892C24.3279 22.0669 25.391 19.5579 25.391 16.6024Z" fill="#4280EF"/>
<path d="M16.0159 26.128C18.6524 26.128 20.8637 25.2563 22.4797 23.7679L19.3328 21.3439C18.4611 21.9393 17.3342 22.2795 16.0159 22.2795C13.4644 22.2795 11.3168 20.5572 10.5301 18.2609L7.29822 20.7486C8.9567 24.0443 12.3162 26.128 16.0159 26.128Z" fill="#34A353"/>
<path d="M10.5293 18.2396C10.1253 17.0277 10.1253 15.7094 10.5293 14.4974L7.29741 11.9884C5.91535 14.7526 5.91535 18.0058 7.29741 20.7486L10.5293 18.2396Z" fill="#F6B704"/>
<path d="M16.0159 10.4789C17.3979 10.4576 18.7587 10.9892 19.7581 11.946L22.5435 9.13931C20.7787 7.48083 18.4398 6.5878 16.0159 6.60907C12.3162 6.60907 8.9567 8.6928 7.29822 11.9885L10.5301 14.4975C11.3168 12.1799 13.4644 10.4789 16.0159 10.4789Z" fill="#E54335"/>
</svg>
