<svg width="16" height="16" viewBox="0 0 16 16" fill="none" xmlns="http://www.w3.org/2000/svg">
    <g id="heroicons-solid/heart">
        <path id="Union (Stroke)"
            d="M7.76331 13.9404L7.75896 13.9381L7.74386 13.9299C7.731 13.9229 7.7126 13.9128 7.68905 13.8997C7.64195 13.8734 7.57416 13.8349 7.48864 13.7846C7.31767 13.684 7.07545 13.5359 6.7857 13.3433C6.20716 12.9587 5.43414 12.3934 4.65906 11.6709C3.12521 10.241 1.5 8.11673 1.5 5.5C1.5 3.54796 3.1424 2 5.125 2C6.29092 2 7.33488 2.53273 8 3.36773C8.66512 2.53273 9.70908 2 10.875 2C12.8576 2 14.5 3.54796 14.5 5.5C14.5 8.11673 12.8748 10.241 11.3409 11.6709C10.5659 12.3934 9.79284 12.9587 9.2143 13.3433C8.92455 13.5359 8.68233 13.684 8.51136 13.7846C8.42584 13.8349 8.35805 13.8734 8.31095 13.8997C8.2874 13.9128 8.269 13.9229 8.25614 13.9299L8.24104 13.9381L8.23669 13.9404L8.23485 13.9414C8.08821 14.0193 7.91179 14.0193 7.76515 13.9414L7.76331 13.9404Z"
            fill="white" />
    </g>
</svg>