<svg width="16" height="16" viewBox="0 0 16 16" fill="none" xmlns="http://www.w3.org/2000/svg">
<g id="heroicons-solid/home">
<g id="Union">
<path d="M7.64645 2.56066C7.84171 2.3654 8.15829 2.3654 8.35355 2.56066L14.1464 8.35355C14.3417 8.54882 14.6583 8.54882 14.8536 8.35355C15.0488 8.15829 15.0488 7.84171 14.8536 7.64645L9.06066 1.85355C8.47487 1.26777 7.52513 1.26777 6.93934 1.85356L1.14645 7.64645C0.951184 7.84171 0.951184 8.15829 1.14645 8.35355C1.34171 8.54882 1.65829 8.54882 1.85355 8.35355L7.64645 2.56066Z" fill="#F6F7F9"/>
<path d="M8 3.62132L13.4393 9.06066C13.4592 9.08047 13.4794 9.09962 13.5 9.11809V13.25C13.5 13.9404 12.9404 14.5 12.25 14.5H10C9.72386 14.5 9.5 14.2761 9.5 14V11C9.5 10.7239 9.27614 10.5 9 10.5H7C6.72386 10.5 6.5 10.7239 6.5 11V14C6.5 14.2761 6.27614 14.5 6 14.5H3.75C3.05964 14.5 2.5 13.9404 2.5 13.25V9.11809C2.52062 9.09962 2.54085 9.08047 2.56066 9.06066L8 3.62132Z" fill="#F6F7F9"/>
</g>
</g>
</svg>
