<svg width="413" height="18" viewBox="0 0 413 18" fill="none" xmlns="http://www.w3.org/2000/svg">
<circle cx="5" cy="9" r="5" fill="#2D4493"/>
<path d="M24.8651 7.02983C24.7827 6.77131 24.6719 6.53977 24.5327 6.33523C24.3963 6.12784 24.233 5.9517 24.0426 5.80682C23.8523 5.65909 23.6349 5.54687 23.3906 5.47017C23.1491 5.39347 22.8835 5.35511 22.5938 5.35511C22.1023 5.35511 21.6591 5.48153 21.2642 5.73438C20.8693 5.98722 20.5568 6.35795 20.3267 6.84659C20.0994 7.33239 19.9858 7.92756 19.9858 8.6321C19.9858 9.33949 20.1009 9.9375 20.331 10.4261C20.5611 10.9148 20.8764 11.2855 21.277 11.5384C21.6776 11.7912 22.1335 11.9176 22.6449 11.9176C23.1193 11.9176 23.5327 11.821 23.8849 11.6278C24.2401 11.4347 24.5142 11.1619 24.7074 10.8097C24.9034 10.4545 25.0014 10.0369 25.0014 9.55682L25.3423 9.62074H22.8452V8.53409H26.2756V9.52699C26.2756 10.2599 26.1193 10.8963 25.8068 11.4361C25.4972 11.973 25.0682 12.3878 24.5199 12.6804C23.9744 12.973 23.3494 13.1193 22.6449 13.1193C21.8551 13.1193 21.1619 12.9375 20.5653 12.5739C19.9716 12.2102 19.5085 11.6946 19.1761 11.027C18.8438 10.3565 18.6776 9.56108 18.6776 8.64062C18.6776 7.9446 18.7741 7.3196 18.9673 6.76562C19.1605 6.21165 19.4318 5.74148 19.7812 5.35511C20.1335 4.96591 20.5469 4.66903 21.0213 4.46449C21.4986 4.2571 22.0199 4.15341 22.5852 4.15341C23.0568 4.15341 23.4957 4.22301 23.902 4.36222C24.3111 4.50142 24.6747 4.69886 24.9929 4.95455C25.3139 5.21023 25.5795 5.5142 25.7898 5.86648C26 6.21591 26.142 6.60369 26.2159 7.02983H24.8651ZM30.6019 13.1321C29.9883 13.1321 29.4528 12.9915 28.9954 12.7102C28.538 12.429 28.1829 12.0355 27.93 11.5298C27.6772 11.0241 27.5508 10.4332 27.5508 9.7571C27.5508 9.07812 27.6772 8.48437 27.93 7.97585C28.1829 7.46733 28.538 7.07244 28.9954 6.79119C29.4528 6.50994 29.9883 6.36932 30.6019 6.36932C31.2156 6.36932 31.7511 6.50994 32.2085 6.79119C32.6658 7.07244 33.021 7.46733 33.2738 7.97585C33.5266 8.48437 33.6531 9.07812 33.6531 9.7571C33.6531 10.4332 33.5266 11.0241 33.2738 11.5298C33.021 12.0355 32.6658 12.429 32.2085 12.7102C31.7511 12.9915 31.2156 13.1321 30.6019 13.1321ZM30.6062 12.0625C31.0039 12.0625 31.3335 11.9574 31.5948 11.7472C31.8562 11.5369 32.0494 11.2571 32.1744 10.9077C32.3022 10.5582 32.3661 10.1733 32.3661 9.75284C32.3661 9.33523 32.3022 8.9517 32.1744 8.60227C32.0494 8.25 31.8562 7.96733 31.5948 7.75426C31.3335 7.54119 31.0039 7.43466 30.6062 7.43466C30.2056 7.43466 29.8732 7.54119 29.609 7.75426C29.3477 7.96733 29.1531 8.25 29.0252 8.60227C28.9002 8.9517 28.8377 9.33523 28.8377 9.75284C28.8377 10.1733 28.9002 10.5582 29.0252 10.9077C29.1531 11.2571 29.3477 11.5369 29.609 11.7472C29.8732 11.9574 30.2056 12.0625 30.6062 12.0625ZM37.8324 13.1321C37.2188 13.1321 36.6832 12.9915 36.2259 12.7102C35.7685 12.429 35.4134 12.0355 35.1605 11.5298C34.9077 11.0241 34.7812 10.4332 34.7812 9.7571C34.7812 9.07812 34.9077 8.48437 35.1605 7.97585C35.4134 7.46733 35.7685 7.07244 36.2259 6.79119C36.6832 6.50994 37.2188 6.36932 37.8324 6.36932C38.446 6.36932 38.9815 6.50994 39.4389 6.79119C39.8963 7.07244 40.2514 7.46733 40.5043 7.97585C40.7571 8.48437 40.8835 9.07812 40.8835 9.7571C40.8835 10.4332 40.7571 11.0241 40.5043 11.5298C40.2514 12.0355 39.8963 12.429 39.4389 12.7102C38.9815 12.9915 38.446 13.1321 37.8324 13.1321ZM37.8366 12.0625C38.2344 12.0625 38.5639 11.9574 38.8253 11.7472C39.0866 11.5369 39.2798 11.2571 39.4048 10.9077C39.5327 10.5582 39.5966 10.1733 39.5966 9.75284C39.5966 9.33523 39.5327 8.9517 39.4048 8.60227C39.2798 8.25 39.0866 7.96733 38.8253 7.75426C38.5639 7.54119 38.2344 7.43466 37.8366 7.43466C37.4361 7.43466 37.1037 7.54119 36.8395 7.75426C36.5781 7.96733 36.3835 8.25 36.2557 8.60227C36.1307 8.9517 36.0682 9.33523 36.0682 9.75284C36.0682 10.1733 36.1307 10.5582 36.2557 10.9077C36.3835 11.2571 36.5781 11.5369 36.8395 11.7472C37.1037 11.9574 37.4361 12.0625 37.8366 12.0625ZM45.0501 15.5909C44.5302 15.5909 44.0827 15.5227 43.7077 15.3864C43.3356 15.25 43.0316 15.0696 42.7958 14.8452C42.56 14.6207 42.3839 14.375 42.2674 14.108L43.3626 13.6562C43.4393 13.7812 43.5415 13.9134 43.6694 14.0526C43.8001 14.1946 43.9762 14.3153 44.1978 14.4148C44.4222 14.5142 44.7106 14.5639 45.0629 14.5639C45.5458 14.5639 45.945 14.446 46.2603 14.2102C46.5756 13.9773 46.7333 13.6051 46.7333 13.0938V11.8068H46.6523C46.5756 11.946 46.4648 12.1009 46.32 12.2713C46.1779 12.4418 45.9819 12.5895 45.7319 12.7145C45.4819 12.8395 45.1566 12.902 44.756 12.902C44.239 12.902 43.7731 12.7812 43.3583 12.5398C42.9464 12.2955 42.6197 11.9361 42.3782 11.4616C42.1396 10.9844 42.0202 10.3977 42.0202 9.7017C42.0202 9.00568 42.1381 8.40909 42.3739 7.91193C42.6126 7.41477 42.9393 7.03409 43.354 6.76989C43.7688 6.50284 44.239 6.36932 44.7646 6.36932C45.1708 6.36932 45.4989 6.4375 45.7489 6.57386C45.9989 6.70739 46.1935 6.86364 46.3327 7.04261C46.4748 7.22159 46.5842 7.37926 46.6609 7.51562H46.7546V6.45455H48.0032V13.1449C48.0032 13.7074 47.8725 14.169 47.6112 14.5298C47.3498 14.8906 46.9961 15.1577 46.5501 15.331C46.1069 15.5043 45.6069 15.5909 45.0501 15.5909ZM45.0373 11.8452C45.4038 11.8452 45.7134 11.7599 45.9663 11.5895C46.2219 11.4162 46.4151 11.169 46.5458 10.848C46.6793 10.5241 46.7461 10.1364 46.7461 9.68466C46.7461 9.24432 46.6808 8.85653 46.5501 8.52131C46.4194 8.18608 46.2276 7.92472 45.9748 7.73722C45.7219 7.54687 45.4094 7.4517 45.0373 7.4517C44.6538 7.4517 44.3342 7.55114 44.0785 7.75C43.8228 7.94602 43.6296 8.21307 43.4989 8.55114C43.3711 8.8892 43.3072 9.26705 43.3072 9.68466C43.3072 10.1136 43.3725 10.4901 43.5032 10.8139C43.6339 11.1378 43.8271 11.3906 44.0827 11.5724C44.3413 11.7543 44.6594 11.8452 45.0373 11.8452ZM50.9862 4.27273V13H49.712V4.27273H50.9862ZM55.5213 13.1321C54.8764 13.1321 54.321 12.9943 53.8551 12.7188C53.392 12.4403 53.0341 12.0497 52.7812 11.5469C52.5312 11.0412 52.4062 10.4489 52.4062 9.76989C52.4062 9.09943 52.5312 8.50852 52.7812 7.99716C53.0341 7.4858 53.3864 7.08665 53.8381 6.79972C54.2926 6.51278 54.8239 6.36932 55.4318 6.36932C55.8011 6.36932 56.1591 6.4304 56.5057 6.55256C56.8523 6.67472 57.1634 6.86648 57.4389 7.12784C57.7145 7.3892 57.9318 7.72869 58.0909 8.14631C58.25 8.56108 58.3295 9.06534 58.3295 9.65909V10.1108H53.1264V9.15625H57.081C57.081 8.82102 57.0128 8.52415 56.8764 8.26562C56.7401 8.00426 56.5483 7.7983 56.3011 7.64773C56.0568 7.49716 55.7699 7.42188 55.4403 7.42188C55.0824 7.42188 54.7699 7.50994 54.5028 7.68608C54.2386 7.85937 54.0341 8.08665 53.8892 8.3679C53.7472 8.64631 53.6761 8.94886 53.6761 9.27557V10.0213C53.6761 10.4588 53.7528 10.831 53.9062 11.1378C54.0625 11.4446 54.2798 11.679 54.5582 11.8409C54.8366 12 55.1619 12.0795 55.5341 12.0795C55.7756 12.0795 55.9957 12.0455 56.1946 11.9773C56.3935 11.9062 56.5653 11.8011 56.7102 11.6619C56.8551 11.5227 56.9659 11.3509 57.0426 11.1463L58.2486 11.3636C58.152 11.7187 57.9787 12.0298 57.7287 12.2969C57.4815 12.5611 57.1705 12.767 56.7955 12.9148C56.4233 13.0597 55.9986 13.1321 55.5213 13.1321Z" fill="#24292E"/>
<circle cx="82" cy="9" r="5" fill="#F34141"/>
<path d="M95.2855 4.27273H96.7812L99.0611 8.24006H99.1548L101.435 4.27273H102.93L99.7642 9.57386V13H98.4517V9.57386L95.2855 4.27273ZM105.814 13.1321C105.169 13.1321 104.614 12.9943 104.148 12.7188C103.685 12.4403 103.327 12.0497 103.074 11.5469C102.824 11.0412 102.699 10.4489 102.699 9.76989C102.699 9.09943 102.824 8.50852 103.074 7.99716C103.327 7.4858 103.679 7.08665 104.131 6.79972C104.586 6.51278 105.117 6.36932 105.725 6.36932C106.094 6.36932 106.452 6.4304 106.799 6.55256C107.145 6.67472 107.456 6.86648 107.732 7.12784C108.007 7.3892 108.225 7.72869 108.384 8.14631C108.543 8.56108 108.623 9.06534 108.623 9.65909V10.1108H103.419V9.15625H107.374C107.374 8.82102 107.306 8.52415 107.169 8.26562C107.033 8.00426 106.841 7.7983 106.594 7.64773C106.35 7.49716 106.063 7.42188 105.733 7.42188C105.375 7.42188 105.063 7.50994 104.796 7.68608C104.532 7.85937 104.327 8.08665 104.182 8.3679C104.04 8.64631 103.969 8.94886 103.969 9.27557V10.0213C103.969 10.4588 104.046 10.831 104.199 11.1378C104.355 11.4446 104.573 11.679 104.851 11.8409C105.13 12 105.455 12.0795 105.827 12.0795C106.069 12.0795 106.289 12.0455 106.488 11.9773C106.686 11.9062 106.858 11.8011 107.003 11.6619C107.148 11.5227 107.259 11.3509 107.336 11.1463L108.542 11.3636C108.445 11.7187 108.272 12.0298 108.022 12.2969C107.775 12.5611 107.463 12.767 107.088 12.9148C106.716 13.0597 106.292 13.1321 105.814 13.1321ZM111.31 4.27273V13H110.036V4.27273H111.31ZM113.025 15.4545V6.45455H114.269V7.51562H114.375C114.449 7.37926 114.556 7.22159 114.695 7.04261C114.834 6.86364 115.027 6.70739 115.275 6.57386C115.522 6.4375 115.848 6.36932 116.255 6.36932C116.783 6.36932 117.255 6.50284 117.669 6.76989C118.084 7.03693 118.409 7.42187 118.645 7.92472C118.884 8.42756 119.003 9.03267 119.003 9.74006C119.003 10.4474 118.885 11.054 118.65 11.5597C118.414 12.0625 118.09 12.4503 117.678 12.723C117.266 12.9929 116.796 13.1278 116.267 13.1278C115.87 13.1278 115.544 13.0611 115.292 12.9276C115.042 12.794 114.846 12.6378 114.703 12.4588C114.561 12.2798 114.452 12.1207 114.375 11.9815H114.299V15.4545H113.025ZM114.273 9.72727C114.273 10.1875 114.34 10.5909 114.473 10.9375C114.607 11.2841 114.8 11.5554 115.053 11.7514C115.306 11.9446 115.615 12.0412 115.982 12.0412C116.363 12.0412 116.681 11.9403 116.936 11.7386C117.192 11.5341 117.385 11.2571 117.516 10.9077C117.65 10.5582 117.716 10.1648 117.716 9.72727C117.716 9.29545 117.651 8.90767 117.52 8.56392C117.392 8.22017 117.199 7.94886 116.941 7.75C116.685 7.55114 116.365 7.4517 115.982 7.4517C115.613 7.4517 115.3 7.54687 115.044 7.73722C114.792 7.92756 114.6 8.19318 114.469 8.53409C114.338 8.875 114.273 9.27273 114.273 9.72727Z" fill="#24292E"/>
<circle cx="143" cy="9" r="5" fill="#2F9461"/>
<path d="M156.528 5.40625V4.27273H163.283V5.40625H160.56V13H159.247V5.40625H156.528ZM163.993 13V6.45455H165.225V7.49432H165.293C165.412 7.14205 165.623 6.86506 165.924 6.66335C166.228 6.45881 166.571 6.35653 166.955 6.35653C167.034 6.35653 167.128 6.35937 167.236 6.36506C167.347 6.37074 167.434 6.37784 167.496 6.38636V7.60511C167.445 7.59091 167.354 7.57528 167.223 7.55824C167.093 7.53835 166.962 7.52841 166.831 7.52841C166.53 7.52841 166.262 7.59233 166.026 7.72017C165.793 7.84517 165.608 8.01989 165.472 8.24432C165.336 8.46591 165.267 8.71875 165.267 9.00284V13H163.993ZM168.599 13V6.45455H169.873V13H168.599ZM169.242 5.4446C169.021 5.4446 168.83 5.37074 168.671 5.22301C168.515 5.07244 168.437 4.89347 168.437 4.68608C168.437 4.47585 168.515 4.29687 168.671 4.14915C168.83 3.99858 169.021 3.9233 169.242 3.9233C169.464 3.9233 169.653 3.99858 169.809 4.14915C169.968 4.29687 170.048 4.47585 170.048 4.68608C170.048 4.89347 169.968 5.07244 169.809 5.22301C169.653 5.37074 169.464 5.4446 169.242 5.4446ZM171.587 15.4545V6.45455H172.831V7.51562H172.938C173.012 7.37926 173.118 7.22159 173.257 7.04261C173.397 6.86364 173.59 6.70739 173.837 6.57386C174.084 6.4375 174.411 6.36932 174.817 6.36932C175.346 6.36932 175.817 6.50284 176.232 6.76989C176.647 7.03693 176.972 7.42187 177.208 7.92472C177.446 8.42756 177.566 9.03267 177.566 9.74006C177.566 10.4474 177.448 11.054 177.212 11.5597C176.976 12.0625 176.652 12.4503 176.24 12.723C175.828 12.9929 175.358 13.1278 174.83 13.1278C174.432 13.1278 174.107 13.0611 173.854 12.9276C173.604 12.794 173.408 12.6378 173.266 12.4588C173.124 12.2798 173.015 12.1207 172.938 11.9815H172.861V15.4545H171.587ZM172.836 9.72727C172.836 10.1875 172.902 10.5909 173.036 10.9375C173.169 11.2841 173.363 11.5554 173.615 11.7514C173.868 11.9446 174.178 12.0412 174.544 12.0412C174.925 12.0412 175.243 11.9403 175.499 11.7386C175.755 11.5341 175.948 11.2571 176.078 10.9077C176.212 10.5582 176.279 10.1648 176.279 9.72727C176.279 9.29545 176.213 8.90767 176.083 8.56392C175.955 8.22017 175.762 7.94886 175.503 7.75C175.248 7.55114 174.928 7.4517 174.544 7.4517C174.175 7.4517 173.863 7.54687 173.607 7.73722C173.354 7.92756 173.162 8.19318 173.032 8.53409C172.901 8.875 172.836 9.27273 172.836 9.72727ZM179.423 13H178.025L181.165 4.27273H182.687L185.827 13H184.43L181.962 5.85795H181.894L179.423 13ZM179.657 9.58239H184.191V10.6903H179.657V9.58239ZM189.33 13.1278C188.802 13.1278 188.33 12.9929 187.915 12.723C187.504 12.4503 187.18 12.0625 186.944 11.5597C186.711 11.054 186.594 10.4474 186.594 9.74006C186.594 9.03267 186.712 8.42756 186.948 7.92472C187.187 7.42187 187.513 7.03693 187.928 6.76989C188.343 6.50284 188.813 6.36932 189.339 6.36932C189.745 6.36932 190.072 6.4375 190.319 6.57386C190.569 6.70739 190.762 6.86364 190.898 7.04261C191.038 7.22159 191.146 7.37926 191.222 7.51562H191.299V4.27273H192.573V13H191.329V11.9815H191.222C191.146 12.1207 191.035 12.2798 190.89 12.4588C190.748 12.6378 190.552 12.794 190.302 12.9276C190.052 13.0611 189.728 13.1278 189.33 13.1278ZM189.612 12.0412C189.978 12.0412 190.288 11.9446 190.54 11.7514C190.796 11.5554 190.989 11.2841 191.12 10.9375C191.254 10.5909 191.32 10.1875 191.32 9.72727C191.32 9.27273 191.255 8.875 191.124 8.53409C190.994 8.19318 190.802 7.92756 190.549 7.73722C190.296 7.54687 189.984 7.4517 189.612 7.4517C189.228 7.4517 188.908 7.55114 188.653 7.75C188.397 7.94886 188.204 8.22017 188.073 8.56392C187.945 8.90767 187.881 9.29545 187.881 9.72727C187.881 10.1648 187.947 10.5582 188.077 10.9077C188.208 11.2571 188.401 11.5341 188.657 11.7386C188.915 11.9403 189.234 12.0412 189.612 12.0412ZM199.991 6.45455L197.618 13H196.254L193.876 6.45455H195.244L196.902 11.4915H196.97L198.623 6.45455H199.991ZM201.189 13V6.45455H202.463V13H201.189ZM201.832 5.4446C201.61 5.4446 201.42 5.37074 201.261 5.22301C201.105 5.07244 201.027 4.89347 201.027 4.68608C201.027 4.47585 201.105 4.29687 201.261 4.14915C201.42 3.99858 201.61 3.9233 201.832 3.9233C202.054 3.9233 202.243 3.99858 202.399 4.14915C202.558 4.29687 202.637 4.47585 202.637 4.68608C202.637 4.89347 202.558 5.07244 202.399 5.22301C202.243 5.37074 202.054 5.4446 201.832 5.4446ZM209.082 8.05256L207.927 8.2571C207.879 8.10937 207.802 7.96875 207.697 7.83523C207.594 7.7017 207.455 7.59233 207.279 7.5071C207.103 7.42187 206.883 7.37926 206.619 7.37926C206.258 7.37926 205.957 7.46023 205.715 7.62216C205.474 7.78125 205.353 7.98722 205.353 8.24006C205.353 8.45881 205.434 8.63494 205.596 8.76847C205.758 8.90199 206.019 9.01136 206.38 9.09659L207.42 9.33523C208.022 9.47443 208.471 9.68892 208.766 9.97869C209.062 10.2685 209.21 10.6449 209.21 11.108C209.21 11.5 209.096 11.8494 208.869 12.1562C208.644 12.4602 208.33 12.6989 207.927 12.8722C207.526 13.0455 207.062 13.1321 206.533 13.1321C205.8 13.1321 205.202 12.9759 204.739 12.6634C204.276 12.348 203.992 11.9006 203.887 11.321L205.119 11.1335C205.195 11.4545 205.353 11.6974 205.592 11.8622C205.83 12.0241 206.141 12.1051 206.525 12.1051C206.942 12.1051 207.276 12.0185 207.526 11.8452C207.776 11.669 207.901 11.4545 207.901 11.2017C207.901 10.9972 207.825 10.8253 207.671 10.6861C207.521 10.5469 207.289 10.4418 206.977 10.3707L205.869 10.1278C205.258 9.98864 204.806 9.76705 204.513 9.46307C204.224 9.15909 204.079 8.77415 204.079 8.30824C204.079 7.92187 204.187 7.58381 204.403 7.29403C204.619 7.00426 204.917 6.77841 205.298 6.61648C205.678 6.4517 206.114 6.36932 206.606 6.36932C207.313 6.36932 207.87 6.52273 208.276 6.82955C208.683 7.13352 208.951 7.54119 209.082 8.05256ZM213.368 13.1321C212.754 13.1321 212.218 12.9915 211.761 12.7102C211.304 12.429 210.949 12.0355 210.696 11.5298C210.443 11.0241 210.316 10.4332 210.316 9.7571C210.316 9.07812 210.443 8.48437 210.696 7.97585C210.949 7.46733 211.304 7.07244 211.761 6.79119C212.218 6.50994 212.754 6.36932 213.368 6.36932C213.981 6.36932 214.517 6.50994 214.974 6.79119C215.431 7.07244 215.787 7.46733 216.039 7.97585C216.292 8.48437 216.419 9.07812 216.419 9.7571C216.419 10.4332 216.292 11.0241 216.039 11.5298C215.787 12.0355 215.431 12.429 214.974 12.7102C214.517 12.9915 213.981 13.1321 213.368 13.1321ZM213.372 12.0625C213.77 12.0625 214.099 11.9574 214.36 11.7472C214.622 11.5369 214.815 11.2571 214.94 10.9077C215.068 10.5582 215.132 10.1733 215.132 9.75284C215.132 9.33523 215.068 8.9517 214.94 8.60227C214.815 8.25 214.622 7.96733 214.36 7.75426C214.099 7.54119 213.77 7.43466 213.372 7.43466C212.971 7.43466 212.639 7.54119 212.375 7.75426C212.113 7.96733 211.919 8.25 211.791 8.60227C211.666 8.9517 211.603 9.33523 211.603 9.75284C211.603 10.1733 211.666 10.5582 211.791 10.9077C211.919 11.2571 212.113 11.5369 212.375 11.7472C212.639 11.9574 212.971 12.0625 213.372 12.0625ZM217.841 13V6.45455H219.072V7.49432H219.141C219.26 7.14205 219.47 6.86506 219.771 6.66335C220.075 6.45881 220.419 6.35653 220.803 6.35653C220.882 6.35653 220.976 6.35937 221.084 6.36506C221.195 6.37074 221.281 6.37784 221.344 6.38636V7.60511C221.293 7.59091 221.202 7.57528 221.071 7.55824C220.94 7.53835 220.81 7.52841 220.679 7.52841C220.378 7.52841 220.109 7.59233 219.874 7.72017C219.641 7.84517 219.456 8.01989 219.32 8.24432C219.183 8.46591 219.115 8.71875 219.115 9.00284V13H217.841Z" fill="#24292E"/>
<circle cx="245" cy="9" r="5" fill="#6984E3"/>
<path d="M258.959 13V4.27273H264.371V5.40625H260.276V8.06534H263.983V9.1946H260.276V13H258.959ZM267.769 13.1449C267.354 13.1449 266.979 13.0682 266.644 12.9148C266.309 12.7585 266.043 12.5327 265.847 12.2372C265.654 11.9418 265.558 11.5795 265.558 11.1506C265.558 10.7812 265.629 10.4773 265.771 10.2386C265.913 10 266.104 9.81108 266.346 9.67188C266.587 9.53267 266.857 9.42756 267.156 9.35653C267.454 9.28551 267.758 9.23153 268.067 9.1946C268.46 9.14915 268.778 9.11222 269.022 9.08381C269.266 9.05256 269.444 9.00284 269.555 8.93466C269.665 8.86648 269.721 8.75568 269.721 8.60227V8.57244C269.721 8.20028 269.616 7.91193 269.406 7.70739C269.198 7.50284 268.888 7.40057 268.477 7.40057C268.048 7.40057 267.71 7.49574 267.462 7.68608C267.218 7.87358 267.049 8.08239 266.955 8.3125L265.758 8.03977C265.9 7.64205 266.107 7.32102 266.38 7.0767C266.656 6.82955 266.972 6.65057 267.33 6.53977C267.688 6.42614 268.065 6.36932 268.46 6.36932C268.721 6.36932 268.998 6.40057 269.29 6.46307C269.586 6.52273 269.862 6.63352 270.117 6.79545C270.376 6.95739 270.587 7.18892 270.752 7.49006C270.917 7.78835 270.999 8.17614 270.999 8.65341V13H269.755V12.1051H269.704C269.621 12.2699 269.498 12.4318 269.333 12.5909C269.168 12.75 268.957 12.8821 268.698 12.9872C268.44 13.0923 268.13 13.1449 267.769 13.1449ZM268.046 12.1222C268.398 12.1222 268.7 12.0526 268.95 11.9134C269.202 11.7741 269.394 11.5923 269.525 11.3679C269.658 11.1406 269.725 10.8977 269.725 10.6392V9.79545C269.68 9.84091 269.592 9.88352 269.461 9.9233C269.333 9.96023 269.187 9.9929 269.022 10.0213C268.857 10.0469 268.697 10.071 268.54 10.0938C268.384 10.1136 268.254 10.1307 268.148 10.1449C267.901 10.1761 267.675 10.2287 267.471 10.3026C267.269 10.3764 267.107 10.483 266.985 10.6222C266.866 10.7585 266.806 10.9403 266.806 11.1676C266.806 11.483 266.923 11.7216 267.156 11.8835C267.388 12.0426 267.685 12.1222 268.046 12.1222ZM275.453 13.1321C274.82 13.1321 274.275 12.9886 273.817 12.7017C273.363 12.4119 273.013 12.0128 272.769 11.5043C272.525 10.9957 272.402 10.4134 272.402 9.7571C272.402 9.09233 272.527 8.50568 272.777 7.99716C273.027 7.4858 273.38 7.08665 273.834 6.79972C274.289 6.51278 274.824 6.36932 275.441 6.36932C275.938 6.36932 276.381 6.46165 276.77 6.64631C277.159 6.82812 277.473 7.08381 277.712 7.41335C277.953 7.7429 278.097 8.12784 278.142 8.56818H276.902C276.834 8.26136 276.678 7.99716 276.434 7.77557C276.192 7.55398 275.868 7.44318 275.462 7.44318C275.107 7.44318 274.796 7.53693 274.529 7.72443C274.265 7.90909 274.059 8.1733 273.911 8.51705C273.763 8.85795 273.689 9.26136 273.689 9.72727C273.689 10.2045 273.762 10.6165 273.907 10.9631C274.051 11.3097 274.256 11.5781 274.52 11.7685C274.787 11.9588 275.101 12.054 275.462 12.054C275.703 12.054 275.922 12.0099 276.118 11.9219C276.317 11.831 276.483 11.7017 276.617 11.5341C276.753 11.3665 276.848 11.1648 276.902 10.929H278.142C278.097 11.3523 277.959 11.7301 277.729 12.0625C277.499 12.3949 277.191 12.6562 276.804 12.8466C276.421 13.0369 275.971 13.1321 275.453 13.1321ZM282.326 13.1321C281.681 13.1321 281.126 12.9943 280.66 12.7188C280.197 12.4403 279.839 12.0497 279.586 11.5469C279.336 11.0412 279.211 10.4489 279.211 9.76989C279.211 9.09943 279.336 8.50852 279.586 7.99716C279.839 7.4858 280.191 7.08665 280.643 6.79972C281.097 6.51278 281.629 6.36932 282.237 6.36932C282.606 6.36932 282.964 6.4304 283.31 6.55256C283.657 6.67472 283.968 6.86648 284.244 7.12784C284.519 7.3892 284.737 7.72869 284.896 8.14631C285.055 8.56108 285.134 9.06534 285.134 9.65909V10.1108H279.931V9.15625H283.886C283.886 8.82102 283.817 8.52415 283.681 8.26562C283.545 8.00426 283.353 7.7983 283.106 7.64773C282.862 7.49716 282.575 7.42188 282.245 7.42188C281.887 7.42188 281.575 7.50994 281.308 7.68608C281.043 7.85937 280.839 8.08665 280.694 8.3679C280.552 8.64631 280.481 8.94886 280.481 9.27557V10.0213C280.481 10.4588 280.558 10.831 280.711 11.1378C280.867 11.4446 281.085 11.679 281.363 11.8409C281.641 12 281.967 12.0795 282.339 12.0795C282.58 12.0795 282.8 12.0455 282.999 11.9773C283.198 11.9062 283.37 11.8011 283.515 11.6619C283.66 11.5227 283.771 11.3509 283.847 11.1463L285.053 11.3636C284.957 11.7187 284.783 12.0298 284.533 12.2969C284.286 12.5611 283.975 12.767 283.6 12.9148C283.228 13.0597 282.803 13.1321 282.326 13.1321ZM286.65 13V4.27273H287.924V7.51562H288.001C288.075 7.37926 288.181 7.22159 288.321 7.04261C288.46 6.86364 288.653 6.70739 288.9 6.57386C289.147 6.4375 289.474 6.36932 289.88 6.36932C290.409 6.36932 290.88 6.50284 291.295 6.76989C291.71 7.03693 292.035 7.42187 292.271 7.92472C292.51 8.42756 292.629 9.03267 292.629 9.74006C292.629 10.4474 292.511 11.054 292.275 11.5597C292.039 12.0625 291.716 12.4503 291.304 12.723C290.892 12.9929 290.422 13.1278 289.893 13.1278C289.495 13.1278 289.17 13.0611 288.917 12.9276C288.667 12.794 288.471 12.6378 288.329 12.4588C288.187 12.2798 288.078 12.1207 288.001 11.9815H287.895V13H286.65ZM287.899 9.72727C287.899 10.1875 287.966 10.5909 288.099 10.9375C288.233 11.2841 288.426 11.5554 288.679 11.7514C288.931 11.9446 289.241 12.0412 289.608 12.0412C289.988 12.0412 290.306 11.9403 290.562 11.7386C290.818 11.5341 291.011 11.2571 291.142 10.9077C291.275 10.5582 291.342 10.1648 291.342 9.72727C291.342 9.29545 291.277 8.90767 291.146 8.56392C291.018 8.22017 290.825 7.94886 290.566 7.75C290.311 7.55114 289.991 7.4517 289.608 7.4517C289.238 7.4517 288.926 7.54687 288.67 7.73722C288.417 7.92756 288.225 8.19318 288.095 8.53409C287.964 8.875 287.899 9.27273 287.899 9.72727ZM296.817 13.1321C296.203 13.1321 295.668 12.9915 295.21 12.7102C294.753 12.429 294.398 12.0355 294.145 11.5298C293.892 11.0241 293.766 10.4332 293.766 9.7571C293.766 9.07812 293.892 8.48437 294.145 7.97585C294.398 7.46733 294.753 7.07244 295.21 6.79119C295.668 6.50994 296.203 6.36932 296.817 6.36932C297.43 6.36932 297.966 6.50994 298.423 6.79119C298.881 7.07244 299.236 7.46733 299.489 7.97585C299.741 8.48437 299.868 9.07812 299.868 9.7571C299.868 10.4332 299.741 11.0241 299.489 11.5298C299.236 12.0355 298.881 12.429 298.423 12.7102C297.966 12.9915 297.43 13.1321 296.817 13.1321ZM296.821 12.0625C297.219 12.0625 297.548 11.9574 297.81 11.7472C298.071 11.5369 298.264 11.2571 298.389 10.9077C298.517 10.5582 298.581 10.1733 298.581 9.75284C298.581 9.33523 298.517 8.9517 298.389 8.60227C298.264 8.25 298.071 7.96733 297.81 7.75426C297.548 7.54119 297.219 7.43466 296.821 7.43466C296.42 7.43466 296.088 7.54119 295.824 7.75426C295.563 7.96733 295.368 8.25 295.24 8.60227C295.115 8.9517 295.053 9.33523 295.053 9.75284C295.053 10.1733 295.115 10.5582 295.24 10.9077C295.368 11.2571 295.563 11.5369 295.824 11.7472C296.088 11.9574 296.42 12.0625 296.821 12.0625ZM304.047 13.1321C303.434 13.1321 302.898 12.9915 302.441 12.7102C301.983 12.429 301.628 12.0355 301.375 11.5298C301.123 11.0241 300.996 10.4332 300.996 9.7571C300.996 9.07812 301.123 8.48437 301.375 7.97585C301.628 7.46733 301.983 7.07244 302.441 6.79119C302.898 6.50994 303.434 6.36932 304.047 6.36932C304.661 6.36932 305.196 6.50994 305.654 6.79119C306.111 7.07244 306.466 7.46733 306.719 7.97585C306.972 8.48437 307.098 9.07812 307.098 9.7571C307.098 10.4332 306.972 11.0241 306.719 11.5298C306.466 12.0355 306.111 12.429 305.654 12.7102C305.196 12.9915 304.661 13.1321 304.047 13.1321ZM304.051 12.0625C304.449 12.0625 304.779 11.9574 305.04 11.7472C305.301 11.5369 305.495 11.2571 305.62 10.9077C305.748 10.5582 305.811 10.1733 305.811 9.75284C305.811 9.33523 305.748 8.9517 305.62 8.60227C305.495 8.25 305.301 7.96733 305.04 7.75426C304.779 7.54119 304.449 7.43466 304.051 7.43466C303.651 7.43466 303.319 7.54119 303.054 7.75426C302.793 7.96733 302.598 8.25 302.471 8.60227C302.346 8.9517 302.283 9.33523 302.283 9.75284C302.283 10.1733 302.346 10.5582 302.471 10.9077C302.598 11.2571 302.793 11.5369 303.054 11.7472C303.319 11.9574 303.651 12.0625 304.051 12.0625ZM309.692 10.7798L309.684 9.22443H309.906L312.513 6.45455H314.039L311.065 9.60795H310.864L309.692 10.7798ZM308.521 13V4.27273H309.795V13H308.521ZM312.654 13L310.31 9.8892L311.188 8.99858L314.218 13H312.654Z" fill="#24292E"/>
<circle cx="338" cy="9" r="5" fill="#A966EC"/>
<path d="M359.54 8.63636C359.54 9.56818 359.369 10.3693 359.028 11.0398C358.688 11.7074 358.22 12.2216 357.626 12.5824C357.036 12.9403 356.364 13.1193 355.611 13.1193C354.855 13.1193 354.18 12.9403 353.587 12.5824C352.996 12.2216 352.53 11.706 352.189 11.0355C351.848 10.3651 351.678 9.56534 351.678 8.63636C351.678 7.70455 351.848 6.90483 352.189 6.23722C352.53 5.56676 352.996 5.05256 353.587 4.6946C354.18 4.33381 354.855 4.15341 355.611 4.15341C356.364 4.15341 357.036 4.33381 357.626 4.6946C358.22 5.05256 358.688 5.56676 359.028 6.23722C359.369 6.90483 359.54 7.70455 359.54 8.63636ZM358.236 8.63636C358.236 7.92614 358.121 7.32812 357.891 6.84233C357.663 6.35369 357.351 5.98438 356.953 5.73438C356.558 5.48153 356.111 5.35511 355.611 5.35511C355.108 5.35511 354.659 5.48153 354.264 5.73438C353.869 5.98438 353.557 6.35369 353.327 6.84233C353.099 7.32812 352.986 7.92614 352.986 8.63636C352.986 9.34659 353.099 9.94602 353.327 10.4347C353.557 10.9205 353.869 11.2898 354.264 11.5426C354.659 11.7926 355.108 11.9176 355.611 11.9176C356.111 11.9176 356.558 11.7926 356.953 11.5426C357.351 11.2898 357.663 10.9205 357.891 10.4347C358.121 9.94602 358.236 9.34659 358.236 8.63636ZM361.079 15.4545V6.45455H362.324V7.51562H362.43C362.504 7.37926 362.61 7.22159 362.75 7.04261C362.889 6.86364 363.082 6.70739 363.329 6.57386C363.576 6.4375 363.903 6.36932 364.309 6.36932C364.838 6.36932 365.309 6.50284 365.724 6.76989C366.139 7.03693 366.464 7.42187 366.7 7.92472C366.939 8.42756 367.058 9.03267 367.058 9.74006C367.058 10.4474 366.94 11.054 366.704 11.5597C366.468 12.0625 366.145 12.4503 365.733 12.723C365.321 12.9929 364.85 13.1278 364.322 13.1278C363.924 13.1278 363.599 13.0611 363.346 12.9276C363.096 12.794 362.9 12.6378 362.758 12.4588C362.616 12.2798 362.507 12.1207 362.43 11.9815H362.353V15.4545H361.079ZM362.328 9.72727C362.328 10.1875 362.395 10.5909 362.528 10.9375C362.662 11.2841 362.855 11.5554 363.108 11.7514C363.36 11.9446 363.67 12.0412 364.037 12.0412C364.417 12.0412 364.735 11.9403 364.991 11.7386C365.247 11.5341 365.44 11.2571 365.571 10.9077C365.704 10.5582 365.771 10.1648 365.771 9.72727C365.771 9.29545 365.706 8.90767 365.575 8.56392C365.447 8.22017 365.254 7.94886 364.995 7.75C364.74 7.55114 364.42 7.4517 364.037 7.4517C363.667 7.4517 363.355 7.54687 363.099 7.73722C362.846 7.92756 362.654 8.19318 362.524 8.53409C362.393 8.875 362.328 9.27273 362.328 9.72727ZM371.306 13.1321C370.662 13.1321 370.106 12.9943 369.64 12.7188C369.177 12.4403 368.819 12.0497 368.566 11.5469C368.316 11.0412 368.191 10.4489 368.191 9.76989C368.191 9.09943 368.316 8.50852 368.566 7.99716C368.819 7.4858 369.172 7.08665 369.623 6.79972C370.078 6.51278 370.609 6.36932 371.217 6.36932C371.586 6.36932 371.944 6.4304 372.291 6.55256C372.637 6.67472 372.949 6.86648 373.224 7.12784C373.5 7.3892 373.717 7.72869 373.876 8.14631C374.035 8.56108 374.115 9.06534 374.115 9.65909V10.1108H368.912V9.15625H372.866C372.866 8.82102 372.798 8.52415 372.662 8.26562C372.525 8.00426 372.333 7.7983 372.086 7.64773C371.842 7.49716 371.555 7.42188 371.225 7.42188C370.868 7.42188 370.555 7.50994 370.288 7.68608C370.024 7.85937 369.819 8.08665 369.674 8.3679C369.532 8.64631 369.461 8.94886 369.461 9.27557V10.0213C369.461 10.4588 369.538 10.831 369.691 11.1378C369.848 11.4446 370.065 11.679 370.343 11.8409C370.622 12 370.947 12.0795 371.319 12.0795C371.561 12.0795 371.781 12.0455 371.98 11.9773C372.179 11.9062 372.35 11.8011 372.495 11.6619C372.64 11.5227 372.751 11.3509 372.828 11.1463L374.034 11.3636C373.937 11.7187 373.764 12.0298 373.514 12.2969C373.267 12.5611 372.956 12.767 372.581 12.9148C372.208 13.0597 371.784 13.1321 371.306 13.1321ZM376.803 9.11364V13H375.528V6.45455H376.751V7.51989H376.832C376.983 7.1733 377.219 6.89489 377.54 6.68466C377.864 6.47443 378.271 6.36932 378.763 6.36932C379.209 6.36932 379.599 6.46307 379.935 6.65057C380.27 6.83523 380.53 7.1108 380.714 7.47727C380.899 7.84375 380.991 8.29687 380.991 8.83665V13H379.717V8.99006C379.717 8.51562 379.594 8.14489 379.347 7.87784C379.099 7.60795 378.76 7.47301 378.328 7.47301C378.033 7.47301 377.77 7.53693 377.54 7.66477C377.313 7.79261 377.132 7.98011 376.999 8.22727C376.868 8.47159 376.803 8.76705 376.803 9.11364ZM381.821 5.40625V4.27273H388.576V5.40625H385.853V13H384.54V5.40625H381.821ZM390.98 13.1449C390.565 13.1449 390.19 13.0682 389.855 12.9148C389.52 12.7585 389.254 12.5327 389.058 12.2372C388.865 11.9418 388.768 11.5795 388.768 11.1506C388.768 10.7812 388.839 10.4773 388.982 10.2386C389.124 10 389.315 9.81108 389.557 9.67188C389.798 9.53267 390.068 9.42756 390.366 9.35653C390.665 9.28551 390.969 9.23153 391.278 9.1946C391.67 9.14915 391.989 9.11222 392.233 9.08381C392.477 9.05256 392.655 9.00284 392.766 8.93466C392.876 8.86648 392.932 8.75568 392.932 8.60227V8.57244C392.932 8.20028 392.827 7.91193 392.616 7.70739C392.409 7.50284 392.099 7.40057 391.688 7.40057C391.259 7.40057 390.92 7.49574 390.673 7.68608C390.429 7.87358 390.26 8.08239 390.166 8.3125L388.969 8.03977C389.111 7.64205 389.318 7.32102 389.591 7.0767C389.866 6.82955 390.183 6.65057 390.541 6.53977C390.899 6.42614 391.276 6.36932 391.67 6.36932C391.932 6.36932 392.209 6.40057 392.501 6.46307C392.797 6.52273 393.072 6.63352 393.328 6.79545C393.587 6.95739 393.798 7.18892 393.963 7.49006C394.128 7.78835 394.21 8.17614 394.21 8.65341V13H392.966V12.1051H392.915C392.832 12.2699 392.709 12.4318 392.544 12.5909C392.379 12.75 392.168 12.8821 391.909 12.9872C391.651 13.0923 391.341 13.1449 390.98 13.1449ZM391.257 12.1222C391.609 12.1222 391.911 12.0526 392.161 11.9134C392.413 11.7741 392.605 11.5923 392.736 11.3679C392.869 11.1406 392.936 10.8977 392.936 10.6392V9.79545C392.891 9.84091 392.803 9.88352 392.672 9.9233C392.544 9.96023 392.398 9.9929 392.233 10.0213C392.068 10.0469 391.908 10.071 391.751 10.0938C391.595 10.1136 391.464 10.1307 391.359 10.1449C391.112 10.1761 390.886 10.2287 390.682 10.3026C390.48 10.3764 390.318 10.483 390.196 10.6222C390.077 10.7585 390.017 10.9403 390.017 11.1676C390.017 11.483 390.134 11.7216 390.366 11.8835C390.599 12.0426 390.896 12.1222 391.257 12.1222ZM396.01 13V4.27273H397.284V7.51562H397.36C397.434 7.37926 397.541 7.22159 397.68 7.04261C397.819 6.86364 398.012 6.70739 398.26 6.57386C398.507 6.4375 398.833 6.36932 399.24 6.36932C399.768 6.36932 400.24 6.50284 400.654 6.76989C401.069 7.03693 401.395 7.42187 401.63 7.92472C401.869 8.42756 401.988 9.03267 401.988 9.74006C401.988 10.4474 401.87 11.054 401.635 11.5597C401.399 12.0625 401.075 12.4503 400.663 12.723C400.251 12.9929 399.781 13.1278 399.252 13.1278C398.855 13.1278 398.529 13.0611 398.277 12.9276C398.027 12.794 397.831 12.6378 397.689 12.4588C397.547 12.2798 397.437 12.1207 397.36 11.9815H397.254V13H396.01ZM397.258 9.72727C397.258 10.1875 397.325 10.5909 397.458 10.9375C397.592 11.2841 397.785 11.5554 398.038 11.7514C398.291 11.9446 398.6 12.0412 398.967 12.0412C399.348 12.0412 399.666 11.9403 399.922 11.7386C400.177 11.5341 400.37 11.2571 400.501 10.9077C400.635 10.5582 400.701 10.1648 400.701 9.72727C400.701 9.29545 400.636 8.90767 400.505 8.56392C400.377 8.22017 400.184 7.94886 399.926 7.75C399.67 7.55114 399.35 7.4517 398.967 7.4517C398.598 7.4517 398.285 7.54687 398.029 7.73722C397.777 7.92756 397.585 8.19318 397.454 8.53409C397.324 8.875 397.258 9.27273 397.258 9.72727ZM404.693 4.27273V13H403.419V4.27273H404.693ZM409.228 13.1321C408.583 13.1321 408.028 12.9943 407.562 12.7188C407.099 12.4403 406.741 12.0497 406.488 11.5469C406.238 11.0412 406.113 10.4489 406.113 9.76989C406.113 9.09943 406.238 8.50852 406.488 7.99716C406.741 7.4858 407.093 7.08665 407.545 6.79972C408 6.51278 408.531 6.36932 409.139 6.36932C409.508 6.36932 409.866 6.4304 410.213 6.55256C410.559 6.67472 410.87 6.86648 411.146 7.12784C411.422 7.3892 411.639 7.72869 411.798 8.14631C411.957 8.56108 412.037 9.06534 412.037 9.65909V10.1108H406.833V9.15625H410.788C410.788 8.82102 410.72 8.52415 410.583 8.26562C410.447 8.00426 410.255 7.7983 410.008 7.64773C409.764 7.49716 409.477 7.42188 409.147 7.42188C408.789 7.42188 408.477 7.50994 408.21 7.68608C407.946 7.85937 407.741 8.08665 407.596 8.3679C407.454 8.64631 407.383 8.94886 407.383 9.27557V10.0213C407.383 10.4588 407.46 10.831 407.613 11.1378C407.77 11.4446 407.987 11.679 408.265 11.8409C408.544 12 408.869 12.0795 409.241 12.0795C409.483 12.0795 409.703 12.0455 409.902 11.9773C410.1 11.9062 410.272 11.8011 410.417 11.6619C410.562 11.5227 410.673 11.3509 410.75 11.1463L411.956 11.3636C411.859 11.7187 411.686 12.0298 411.436 12.2969C411.189 12.5611 410.877 12.767 410.502 12.9148C410.13 13.0597 409.706 13.1321 409.228 13.1321Z" fill="#24292E"/>
</svg>
