<svg width="16" height="16" viewBox="0 0 16 16" fill="none" xmlns="http://www.w3.org/2000/svg">
<path fill-rule="evenodd" clip-rule="evenodd" d="M4.79999 3.8C4.79999 3.46863 5.06862 3.2 5.39999 3.2H13.8C14.1314 3.2 14.4 3.46863 14.4 3.8C14.4 4.13137 14.1314 4.4 13.8 4.4H5.39999C5.06862 4.4 4.79999 4.13137 4.79999 3.8ZM4.79999 8C4.79999 7.66863 5.06862 7.4 5.39999 7.4H13.8C14.1314 7.4 14.4 7.66863 14.4 8C14.4 8.33137 14.1314 8.6 13.8 8.6H5.39999C5.06862 8.6 4.79999 8.33137 4.79999 8ZM4.79999 12.2C4.79999 11.8686 5.06862 11.6 5.39999 11.6H13.8C14.1314 11.6 14.4 11.8686 14.4 12.2C14.4 12.5314 14.1314 12.8 13.8 12.8H5.39999C5.06862 12.8 4.79999 12.5314 4.79999 12.2Z" fill="white"/>
<path fill-rule="evenodd" clip-rule="evenodd" d="M1.59198 3.8C1.59198 3.35817 1.95015 3 2.39198 3H2.39998C2.84181 3 3.19998 3.35817 3.19998 3.8V3.808C3.19998 4.24983 2.84181 4.608 2.39998 4.608H2.39198C1.95015 4.608 1.59198 4.24983 1.59198 3.808V3.8Z" fill="white"/>
<path fill-rule="evenodd" clip-rule="evenodd" d="M1.59198 12.2C1.59198 11.7582 1.95015 11.4 2.39198 11.4H2.39998C2.84181 11.4 3.19998 11.7582 3.19998 12.2V12.208C3.19998 12.6498 2.84181 13.008 2.39998 13.008H2.39198C1.95015 13.008 1.59198 12.6498 1.59198 12.208V12.2Z" fill="white"/>
<path fill-rule="evenodd" clip-rule="evenodd" d="M1.59198 8C1.59198 7.55817 1.95015 7.2 2.39198 7.2H2.39998C2.84181 7.2 3.19998 7.55817 3.19998 8V8.008C3.19998 8.44983 2.84181 8.808 2.39998 8.808H2.39198C1.95015 8.808 1.59198 8.44983 1.59198 8.008V8Z" fill="white"/>
</svg>
