<svg width="24" height="24" viewBox="0 0 24 24" fill="none" xmlns="http://www.w3.org/2000/svg">
<path fill-rule="evenodd" clip-rule="evenodd" d="M10.8 4.19999C7.15491 4.19999 4.19999 7.15491 4.19999 10.8C4.19999 14.4451 7.15491 17.4 10.8 17.4C12.6228 17.4 14.2715 16.6622 15.4669 15.4669C16.6622 14.2715 17.4 12.6228 17.4 10.8C17.4 7.15491 14.4451 4.19999 10.8 4.19999ZM2.39999 10.8C2.39999 6.1608 6.1608 2.39999 10.8 2.39999C15.4392 2.39999 19.2 6.1608 19.2 10.8C19.2 12.795 18.5036 14.6287 17.3421 16.0693L21.3364 20.0636C21.6879 20.4151 21.6879 20.9849 21.3364 21.3364C20.9849 21.6879 20.4151 21.6879 20.0636 21.3364L16.0693 17.3421C14.6287 18.5036 12.795 19.2 10.8 19.2C6.1608 19.2 2.39999 15.4392 2.39999 10.8Z" fill="#596066"/>
</svg>
