<svg width="60" height="60" viewBox="0 0 60 60" fill="none" xmlns="http://www.w3.org/2000/svg">
<path d="M60 30C60 46.5685 46.5685 60 30 60C13.4315 60 0 46.5685 0 30C0 13.4315 13.4315 0 30 0C46.5685 0 60 13.4315 60 30ZM9.96376 30C9.96376 41.0657 18.9343 50.0362 30 50.0362C41.0657 50.0362 50.0362 41.0657 50.0362 30C50.0362 18.9343 41.0657 9.96376 30 9.96376C18.9343 9.96376 9.96376 18.9343 9.96376 30Z" fill="#F6F7F9"/>
<path d="M30 0C37.2258 8.61667e-08 44.2088 2.608 49.6656 7.34465C55.1223 12.0813 58.6862 18.6283 59.702 25.7823C60.7179 32.9364 59.1175 40.2167 55.1951 46.2852C51.2727 52.3537 45.2917 56.8025 38.3516 58.8141C31.4114 60.8256 23.9784 60.2647 17.4187 57.2344C10.8591 54.2041 5.61352 48.908 2.64624 42.3196C-0.321051 35.7311 -0.81069 28.2931 1.26732 21.3726C3.34532 14.452 7.85134 8.51399 13.9572 4.64991L19.2854 13.0693C15.2075 15.65 12.198 19.6159 10.8102 24.2379C9.42232 28.86 9.74934 33.8277 11.7311 38.2279C13.7129 42.6282 17.2163 46.1653 21.5973 48.1892C25.9783 50.213 30.9426 50.5877 35.5778 49.2442C40.213 47.9007 44.2075 44.9294 46.8272 40.8764C49.4469 36.8235 50.5157 31.9611 49.8372 27.1831C49.1588 22.4051 46.7786 18.0326 43.1341 14.8691C39.4897 11.7056 34.8259 9.96376 30 9.96376V0Z" fill="#53B483"/>
<path d="M23.0852 25.1534C23.4744 25.1562 23.858 25.2273 24.2358 25.3665C24.6136 25.5057 24.9545 25.733 25.2585 26.0483C25.5653 26.3636 25.8097 26.7898 25.9915 27.3267C26.1761 27.8608 26.2699 28.5256 26.2727 29.321C26.2727 30.0852 26.196 30.7656 26.0426 31.3622C25.8892 31.956 25.669 32.4574 25.3821 32.8665C25.098 33.2756 24.7528 33.5866 24.3466 33.7997C23.9403 34.0128 23.483 34.1193 22.9744 34.1193C22.4545 34.1193 21.9929 34.017 21.5895 33.8125C21.1861 33.608 20.858 33.3253 20.6051 32.9645C20.3523 32.6009 20.1946 32.1832 20.1321 31.7116H21.4318C21.517 32.0866 21.6903 32.3906 21.9517 32.6236C22.2159 32.8537 22.5568 32.9688 22.9744 32.9688C23.6136 32.9688 24.1122 32.6903 24.4702 32.1335C24.8281 31.5739 25.0085 30.7926 25.0114 29.7898H24.9432C24.7955 30.0341 24.6108 30.2443 24.3892 30.4205C24.1705 30.5966 23.9247 30.733 23.652 30.8295C23.3793 30.9261 23.0881 30.9744 22.7784 30.9744C22.2756 30.9744 21.8182 30.8509 21.4062 30.6037C20.9943 30.3565 20.6662 30.017 20.4219 29.5852C20.1776 29.1534 20.0554 28.6605 20.0554 28.1065C20.0554 27.5554 20.1804 27.0554 20.4304 26.6065C20.6832 26.1577 21.0355 25.8026 21.4872 25.5412C21.9418 25.277 22.4744 25.1477 23.0852 25.1534ZM23.0895 26.2614C22.7571 26.2614 22.4574 26.3437 22.1903 26.5085C21.9261 26.6705 21.7173 26.8906 21.5639 27.169C21.4105 27.4446 21.3338 27.7514 21.3338 28.0895C21.3338 28.4276 21.4077 28.7344 21.5554 29.0099C21.706 29.2827 21.9105 29.5 22.169 29.6619C22.4304 29.821 22.7287 29.9006 23.0639 29.9006C23.3139 29.9006 23.5469 29.8523 23.7628 29.7557C23.9787 29.6591 24.1676 29.5256 24.3295 29.3551C24.4915 29.1818 24.6179 28.9858 24.7088 28.767C24.7997 28.5483 24.8452 28.3182 24.8452 28.0767C24.8452 27.7557 24.7685 27.4574 24.6151 27.1818C24.4645 26.9062 24.2571 26.6847 23.9929 26.517C23.7287 26.3466 23.4276 26.2614 23.0895 26.2614ZM30.8505 34.1449C30.1772 34.142 29.6019 33.9645 29.1246 33.6122C28.6474 33.2599 28.2823 32.7472 28.0295 32.0739C27.7766 31.4006 27.6502 30.5895 27.6502 29.6406C27.6502 28.6946 27.7766 27.8864 28.0295 27.2159C28.2852 26.5455 28.6516 26.0341 29.1289 25.6818C29.609 25.3295 30.1829 25.1534 30.8505 25.1534C31.5181 25.1534 32.0906 25.331 32.5678 25.6861C33.0451 26.0384 33.4102 26.5497 33.663 27.2202C33.9187 27.8878 34.0465 28.6946 34.0465 29.6406C34.0465 30.5923 33.9201 31.4048 33.6673 32.0781C33.4144 32.7486 33.0494 33.2614 32.5721 33.6165C32.0948 33.9688 31.521 34.1449 30.8505 34.1449ZM30.8505 33.0071C31.4414 33.0071 31.9031 32.7188 32.2354 32.142C32.5707 31.5653 32.7383 30.7315 32.7383 29.6406C32.7383 28.9162 32.6616 28.304 32.5082 27.804C32.3576 27.3011 32.1403 26.9205 31.8562 26.6619C31.5749 26.4006 31.2397 26.2699 30.8505 26.2699C30.2624 26.2699 29.8008 26.5597 29.4656 27.1392C29.1303 27.7187 28.9613 28.5526 28.9585 29.6406C28.9585 30.3679 29.0337 30.983 29.1843 31.4858C29.3377 31.9858 29.555 32.3651 29.8363 32.6236C30.1175 32.8793 30.4556 33.0071 30.8505 33.0071ZM40.1136 32.3636V31.9034C40.1136 31.5739 40.1818 31.2727 40.3182 31C40.4574 30.7244 40.6591 30.5043 40.9233 30.3395C41.1903 30.1719 41.5128 30.0881 41.8906 30.0881C42.277 30.0881 42.6009 30.1705 42.8622 30.3352C43.1236 30.5 43.321 30.7202 43.4545 30.9957C43.5909 31.2713 43.6591 31.5739 43.6591 31.9034V32.3636C43.6591 32.6932 43.5909 32.9957 43.4545 33.2713C43.3182 33.544 43.1179 33.7642 42.8537 33.9318C42.5923 34.0966 42.2713 34.179 41.8906 34.179C41.5071 34.179 41.1832 34.0966 40.919 33.9318C40.6548 33.7642 40.4545 33.544 40.3182 33.2713C40.1818 32.9957 40.1136 32.6932 40.1136 32.3636ZM41.1065 31.9034V32.3636C41.1065 32.608 41.1648 32.8295 41.2812 33.0284C41.3977 33.2273 41.6009 33.3267 41.8906 33.3267C42.1776 33.3267 42.3778 33.2273 42.4915 33.0284C42.6051 32.8295 42.6619 32.608 42.6619 32.3636V31.9034C42.6619 31.6591 42.6065 31.4375 42.4957 31.2386C42.3878 31.0398 42.1861 30.9403 41.8906 30.9403C41.6065 30.9403 41.4048 31.0398 41.2855 31.2386C41.1662 31.4375 41.1065 31.6591 41.1065 31.9034ZM35.7244 27.3693V26.9091C35.7244 26.5795 35.7926 26.277 35.929 26.0014C36.0682 25.7259 36.2699 25.5057 36.5341 25.3409C36.8011 25.1761 37.1236 25.0938 37.5014 25.0938C37.8878 25.0938 38.2116 25.1761 38.473 25.3409C38.7344 25.5057 38.9318 25.7259 39.0653 26.0014C39.1989 26.277 39.2656 26.5795 39.2656 26.9091V27.3693C39.2656 27.6989 39.1974 28.0014 39.0611 28.277C38.9276 28.5497 38.7287 28.7699 38.4645 28.9375C38.2031 29.1023 37.8821 29.1847 37.5014 29.1847C37.1151 29.1847 36.7898 29.1023 36.5256 28.9375C36.2642 28.7699 36.0653 28.5497 35.929 28.277C35.7926 28.0014 35.7244 27.6989 35.7244 27.3693ZM36.7216 26.9091V27.3693C36.7216 27.6136 36.7784 27.8352 36.892 28.0341C37.0085 28.233 37.2116 28.3324 37.5014 28.3324C37.7855 28.3324 37.9844 28.233 38.098 28.0341C38.2145 27.8352 38.2727 27.6136 38.2727 27.3693V26.9091C38.2727 26.6648 38.2173 26.4432 38.1065 26.2443C37.9957 26.0455 37.794 25.946 37.5014 25.946C37.2173 25.946 37.0156 26.0455 36.8963 26.2443C36.7798 26.4432 36.7216 26.6648 36.7216 26.9091ZM36.1293 34L42.1293 25.2727H43.1477L37.1477 34H36.1293Z" fill="#255E46"/>
</svg>
