<svg width="60" height="60" viewBox="0 0 60 60" fill="none" xmlns="http://www.w3.org/2000/svg">
<path d="M60 30C60 46.5685 46.5685 60 30 60C13.4315 60 0 46.5685 0 30C0 13.4315 13.4315 0 30 0C46.5685 0 60 13.4315 60 30ZM9.96376 30C9.96376 41.0657 18.9343 50.0362 30 50.0362C41.0657 50.0362 50.0362 41.0657 50.0362 30C50.0362 18.9343 41.0657 9.96376 30 9.96376C18.9343 9.96376 9.96376 18.9343 9.96376 30Z" fill="#F6F7F9"/>
<path d="M30 0C36.3339 7.55307e-08 42.5052 2.0047 47.63 5.72691C52.7548 9.44911 56.5699 14.6978 58.529 20.7211C60.488 26.7444 60.4904 33.2332 58.5358 39.258C56.5811 45.2827 52.7698 50.5342 47.6478 54.2602C42.5258 57.9861 36.3559 59.9953 30.022 60C23.6881 60.0046 17.5153 58.0045 12.3878 54.286C7.26031 50.5676 3.44129 45.3216 1.47783 39.2998C-0.485622 33.2779 -0.492757 26.7891 1.45745 20.763L10.9372 23.8308C9.63466 27.8555 9.63943 32.1892 10.9508 36.2111C12.2621 40.2329 14.8127 43.7366 18.2373 46.22C21.6618 48.7035 25.7845 50.0393 30.0147 50.0362C34.2449 50.0331 38.3656 48.6912 41.7865 46.2027C45.2074 43.7143 47.7529 40.2069 49.0583 36.1832C50.3638 32.1594 50.3622 27.8257 49.0538 23.8029C47.7454 19.7801 45.1973 16.2746 41.7746 13.7886C38.3519 11.3026 34.2302 9.96376 30 9.96376V0Z" fill="#53B483"/>
<path d="M23.8489 34.1193C23.2381 34.1193 22.6983 34.0142 22.2296 33.804C21.7637 33.5937 21.3986 33.304 21.1344 32.9347C20.8702 32.5653 20.7395 32.1449 20.7424 31.6733C20.7395 31.304 20.8148 30.9645 20.9682 30.6548C21.1245 30.3423 21.3361 30.0824 21.6032 29.875C21.8702 29.6648 22.1685 29.5312 22.498 29.4744V29.4233C22.0634 29.3182 21.7154 29.0852 21.454 28.7244C21.1926 28.3636 21.0634 27.9489 21.0662 27.4801C21.0634 27.0341 21.1813 26.6364 21.4199 26.2869C21.6614 25.9347 21.9924 25.6577 22.4128 25.456C22.8333 25.2543 23.312 25.1534 23.8489 25.1534C24.3801 25.1534 24.8546 25.2557 25.2722 25.4602C25.6926 25.6619 26.0236 25.9389 26.2651 26.2912C26.5066 26.6406 26.6287 27.0369 26.6316 27.4801C26.6287 27.9489 26.4952 28.3636 26.231 28.7244C25.9668 29.0852 25.623 29.3182 25.1998 29.4233V29.4744C25.5265 29.5312 25.8205 29.6648 26.0819 29.875C26.3461 30.0824 26.5563 30.3423 26.7125 30.6548C26.8716 30.9645 26.9526 31.304 26.9554 31.6733C26.9526 32.1449 26.8191 32.5653 26.5549 32.9347C26.2907 33.304 25.9242 33.5937 25.4554 33.804C24.9895 34.0142 24.454 34.1193 23.8489 34.1193ZM23.8489 33.0412C24.2097 33.0412 24.5222 32.9815 24.7864 32.8622C25.0506 32.7401 25.2551 32.571 25.4 32.3551C25.5449 32.1364 25.6188 31.8807 25.6216 31.5881C25.6188 31.2841 25.5392 31.0156 25.383 30.7827C25.2296 30.5497 25.0208 30.3665 24.7566 30.233C24.4924 30.0994 24.1898 30.0327 23.8489 30.0327C23.5051 30.0327 23.1998 30.0994 22.9327 30.233C22.6657 30.3665 22.4554 30.5497 22.302 30.7827C22.1486 31.0156 22.0733 31.2841 22.0762 31.5881C22.0733 31.8807 22.1429 32.1364 22.285 32.3551C22.4299 32.571 22.6358 32.7401 22.9029 32.8622C23.1699 32.9815 23.4853 33.0412 23.8489 33.0412ZM23.8489 28.9801C24.1387 28.9801 24.3958 28.9219 24.6202 28.8054C24.8446 28.6889 25.0208 28.527 25.1486 28.3196C25.2793 28.1122 25.3461 27.8693 25.3489 27.5909C25.3461 27.3182 25.2807 27.0795 25.1529 26.875C25.0279 26.6705 24.8532 26.5128 24.6287 26.402C24.4043 26.2884 24.1444 26.2315 23.8489 26.2315C23.5478 26.2315 23.2836 26.2884 23.0563 26.402C22.8319 26.5128 22.6571 26.6705 22.5321 26.875C22.4071 27.0795 22.3461 27.3182 22.3489 27.5909C22.3461 27.8693 22.4086 28.1122 22.5364 28.3196C22.6642 28.527 22.8404 28.6889 23.0648 28.8054C23.2921 28.9219 23.5534 28.9801 23.8489 28.9801ZM28.4821 34V33.0455L31.4352 29.9858C31.7505 29.6534 32.0105 29.3622 32.215 29.1122C32.4224 28.8594 32.5772 28.6193 32.6795 28.392C32.7818 28.1648 32.8329 27.9233 32.8329 27.6676C32.8329 27.3778 32.7647 27.1278 32.6284 26.9176C32.492 26.7045 32.3059 26.5412 32.0701 26.4276C31.8343 26.3111 31.5687 26.2528 31.2733 26.2528C30.9608 26.2528 30.688 26.3168 30.4551 26.4446C30.2221 26.5724 30.0431 26.7528 29.9181 26.9858C29.7931 27.2187 29.7306 27.4915 29.7306 27.804H28.4735C28.4735 27.2727 28.5957 26.8082 28.84 26.4105C29.0843 26.0128 29.4196 25.7045 29.8457 25.4858C30.2718 25.2642 30.7562 25.1534 31.2988 25.1534C31.8471 25.1534 32.3301 25.2628 32.7477 25.4815C33.1681 25.6974 33.4963 25.9929 33.7321 26.3679C33.9679 26.7401 34.0858 27.1605 34.0858 27.6293C34.0858 27.9531 34.0247 28.2699 33.9025 28.5795C33.7832 28.8892 33.5744 29.2344 33.2761 29.6151C32.9778 29.9929 32.563 30.4517 32.0318 30.9915L30.2974 32.8068V32.8707H34.2264V34H28.4821ZM40.3968 32.3636V31.9034C40.3968 31.5739 40.465 31.2727 40.6014 31C40.7406 30.7244 40.9423 30.5043 41.2065 30.3395C41.4735 30.1719 41.796 30.0881 42.1738 30.0881C42.5602 30.0881 42.8841 30.1705 43.1454 30.3352C43.4068 30.5 43.6042 30.7202 43.7377 30.9957C43.8741 31.2713 43.9423 31.5739 43.9423 31.9034V32.3636C43.9423 32.6932 43.8741 32.9957 43.7377 33.2713C43.6014 33.544 43.4011 33.7642 43.1369 33.9318C42.8755 34.0966 42.5545 34.179 42.1738 34.179C41.7903 34.179 41.4664 34.0966 41.2022 33.9318C40.938 33.7642 40.7377 33.544 40.6014 33.2713C40.465 32.9957 40.3968 32.6932 40.3968 32.3636ZM41.3897 31.9034V32.3636C41.3897 32.608 41.448 32.8295 41.5645 33.0284C41.6809 33.2273 41.8841 33.3267 42.1738 33.3267C42.4608 33.3267 42.661 33.2273 42.7747 33.0284C42.8883 32.8295 42.9451 32.608 42.9451 32.3636V31.9034C42.9451 31.6591 42.8897 31.4375 42.7789 31.2386C42.671 31.0398 42.4693 30.9403 42.1738 30.9403C41.8897 30.9403 41.688 31.0398 41.5687 31.2386C41.4494 31.4375 41.3897 31.6591 41.3897 31.9034ZM36.0076 27.3693V26.9091C36.0076 26.5795 36.0758 26.277 36.2122 26.0014C36.3514 25.7259 36.5531 25.5057 36.8173 25.3409C37.0843 25.1761 37.4068 25.0938 37.7846 25.0938C38.171 25.0938 38.4949 25.1761 38.7562 25.3409C39.0176 25.5057 39.215 25.7259 39.3485 26.0014C39.4821 26.277 39.5488 26.5795 39.5488 26.9091V27.3693C39.5488 27.6989 39.4806 28.0014 39.3443 28.277C39.2108 28.5497 39.0119 28.7699 38.7477 28.9375C38.4863 29.1023 38.1653 29.1847 37.7846 29.1847C37.3983 29.1847 37.073 29.1023 36.8088 28.9375C36.5474 28.7699 36.3485 28.5497 36.2122 28.277C36.0758 28.0014 36.0076 27.6989 36.0076 27.3693ZM37.0048 26.9091V27.3693C37.0048 27.6136 37.0616 27.8352 37.1752 28.0341C37.2917 28.233 37.4949 28.3324 37.7846 28.3324C38.0687 28.3324 38.2676 28.233 38.3812 28.0341C38.4977 27.8352 38.5559 27.6136 38.5559 27.3693V26.9091C38.5559 26.6648 38.5005 26.4432 38.3897 26.2443C38.2789 26.0455 38.0772 25.946 37.7846 25.946C37.5005 25.946 37.2988 26.0455 37.1795 26.2443C37.063 26.4432 37.0048 26.6648 37.0048 26.9091ZM36.4125 34L42.4125 25.2727H43.4309L37.4309 34H36.4125Z" fill="#255E46"/>
</svg>
