<svg width="61" height="60" viewBox="0 0 61 60" fill="none" xmlns="http://www.w3.org/2000/svg">
<path d="M60.5 30C60.5 46.5685 47.0685 60 30.5 60C13.9315 60 0.5 46.5685 0.5 30C0.5 13.4315 13.9315 0 30.5 0C47.0685 0 60.5 13.4315 60.5 30ZM10.4638 30C10.4638 41.0657 19.4343 50.0362 30.5 50.0362C41.5657 50.0362 50.5362 41.0657 50.5362 30C50.5362 18.9343 41.5657 9.96376 30.5 9.96376C19.4343 9.96376 10.4638 18.9343 10.4638 30Z" fill="#F6F7F9"/>
<path d="M30.5 0C38.0658 9.02208e-08 45.3521 2.85862 50.8996 8.00323C56.447 13.1478 59.8457 20.1985 60.415 27.7428C60.9842 35.2871 58.6819 42.7679 53.9693 48.6867C49.2566 54.6055 42.4817 58.5251 35.0016 59.6603L33.5065 49.8094C38.5023 49.0512 43.0271 46.4334 46.1745 42.4804C49.322 38.5274 50.8596 33.5311 50.4794 28.4925C50.0993 23.4538 47.8293 18.7449 44.1243 15.3089C40.4194 11.873 35.553 9.96376 30.5 9.96376V0Z" fill="#E9A23B"/>
<path d="M20.4707 32.2955V31.2301L24.242 25.2727H25.0815V26.8409H24.5488L21.8514 31.1108V31.179H27.0204V32.2955H20.4707ZM24.6085 34V31.9716L24.617 31.4858V25.2727H25.8656V34H24.6085ZM31.4544 34.1193C30.8436 34.1193 30.3038 34.0142 29.835 33.804C29.3691 33.5937 29.0041 33.304 28.7399 32.9347C28.4757 32.5653 28.345 32.1449 28.3478 31.6733C28.345 31.304 28.4203 30.9645 28.5737 30.6548C28.7299 30.3423 28.9416 30.0824 29.2086 29.875C29.4757 29.6648 29.774 29.5312 30.1035 29.4744V29.4233C29.6689 29.3182 29.3208 29.0852 29.0595 28.7244C28.7981 28.3636 28.6689 27.9489 28.6717 27.4801C28.6689 27.0341 28.7868 26.6364 29.0254 26.2869C29.2669 25.9347 29.5978 25.6577 30.0183 25.456C30.4387 25.2543 30.9174 25.1534 31.4544 25.1534C31.9856 25.1534 32.46 25.2557 32.8777 25.4602C33.2981 25.6619 33.6291 25.9389 33.8706 26.2912C34.112 26.6406 34.2342 27.0369 34.237 27.4801C34.2342 27.9489 34.1007 28.3636 33.8365 28.7244C33.5723 29.0852 33.2285 29.3182 32.8052 29.4233V29.4744C33.1319 29.5312 33.426 29.6648 33.6873 29.875C33.9515 30.0824 34.1618 30.3423 34.318 30.6548C34.4771 30.9645 34.5581 31.304 34.5609 31.6733C34.5581 32.1449 34.4245 32.5653 34.1603 32.9347C33.8961 33.304 33.5297 33.5937 33.0609 33.804C32.595 34.0142 32.0595 34.1193 31.4544 34.1193ZM31.4544 33.0412C31.8152 33.0412 32.1277 32.9815 32.3919 32.8622C32.6561 32.7401 32.8606 32.571 33.0055 32.3551C33.1504 32.1364 33.2243 31.8807 33.2271 31.5881C33.2243 31.2841 33.1447 31.0156 32.9885 30.7827C32.835 30.5497 32.6262 30.3665 32.362 30.233C32.0978 30.0994 31.7953 30.0327 31.4544 30.0327C31.1106 30.0327 30.8052 30.0994 30.5382 30.233C30.2711 30.3665 30.0609 30.5497 29.9075 30.7827C29.7541 31.0156 29.6788 31.2841 29.6816 31.5881C29.6788 31.8807 29.7484 32.1364 29.8904 32.3551C30.0353 32.571 30.2413 32.7401 30.5083 32.8622C30.7754 32.9815 31.0907 33.0412 31.4544 33.0412ZM31.4544 28.9801C31.7441 28.9801 32.0012 28.9219 32.2257 28.8054C32.4501 28.6889 32.6262 28.527 32.7541 28.3196C32.8848 28.1122 32.9515 27.8693 32.9544 27.5909C32.9515 27.3182 32.8862 27.0795 32.7583 26.875C32.6333 26.6705 32.4586 26.5128 32.2342 26.402C32.0098 26.2884 31.7498 26.2315 31.4544 26.2315C31.1532 26.2315 30.889 26.2884 30.6618 26.402C30.4373 26.5128 30.2626 26.6705 30.1376 26.875C30.0126 27.0795 29.9515 27.3182 29.9544 27.5909C29.9515 27.8693 30.014 28.1122 30.1419 28.3196C30.2697 28.527 30.4458 28.6889 30.6703 28.8054C30.8975 28.9219 31.1589 28.9801 31.4544 28.9801ZM40.6429 32.3636V31.9034C40.6429 31.5739 40.7111 31.2727 40.8475 31C40.9867 30.7244 41.1884 30.5043 41.4526 30.3395C41.7196 30.1719 42.0421 30.0881 42.4199 30.0881C42.8063 30.0881 43.1301 30.1705 43.3915 30.3352C43.6529 30.5 43.8503 30.7202 43.9838 30.9957C44.1202 31.2713 44.1884 31.5739 44.1884 31.9034V32.3636C44.1884 32.6932 44.1202 32.9957 43.9838 33.2713C43.8475 33.544 43.6472 33.7642 43.383 33.9318C43.1216 34.0966 42.8006 34.179 42.4199 34.179C42.0364 34.179 41.7125 34.0966 41.4483 33.9318C41.1841 33.7642 40.9838 33.544 40.8475 33.2713C40.7111 32.9957 40.6429 32.6932 40.6429 32.3636ZM41.6358 31.9034V32.3636C41.6358 32.608 41.6941 32.8295 41.8105 33.0284C41.927 33.2273 42.1301 33.3267 42.4199 33.3267C42.7069 33.3267 42.9071 33.2273 43.0208 33.0284C43.1344 32.8295 43.1912 32.608 43.1912 32.3636V31.9034C43.1912 31.6591 43.1358 31.4375 43.025 31.2386C42.9171 31.0398 42.7154 30.9403 42.4199 30.9403C42.1358 30.9403 41.9341 31.0398 41.8148 31.2386C41.6955 31.4375 41.6358 31.6591 41.6358 31.9034ZM36.2537 27.3693V26.9091C36.2537 26.5795 36.3219 26.277 36.4583 26.0014C36.5975 25.7259 36.7992 25.5057 37.0634 25.3409C37.3304 25.1761 37.6529 25.0938 38.0307 25.0938C38.4171 25.0938 38.7409 25.1761 39.0023 25.3409C39.2637 25.5057 39.4611 25.7259 39.5946 26.0014C39.7282 26.277 39.7949 26.5795 39.7949 26.9091V27.3693C39.7949 27.6989 39.7267 28.0014 39.5904 28.277C39.4569 28.5497 39.258 28.7699 38.9938 28.9375C38.7324 29.1023 38.4114 29.1847 38.0307 29.1847C37.6444 29.1847 37.3191 29.1023 37.0549 28.9375C36.7935 28.7699 36.5946 28.5497 36.4583 28.277C36.3219 28.0014 36.2537 27.6989 36.2537 27.3693ZM37.2509 26.9091V27.3693C37.2509 27.6136 37.3077 27.8352 37.4213 28.0341C37.5378 28.233 37.7409 28.3324 38.0307 28.3324C38.3148 28.3324 38.5137 28.233 38.6273 28.0341C38.7438 27.8352 38.802 27.6136 38.802 27.3693V26.9091C38.802 26.6648 38.7466 26.4432 38.6358 26.2443C38.525 26.0455 38.3233 25.946 38.0307 25.946C37.7466 25.946 37.5449 26.0455 37.4256 26.2443C37.3091 26.4432 37.2509 26.6648 37.2509 26.9091ZM36.6586 34L42.6586 25.2727H43.677L37.677 34H36.6586Z" fill="#C8811A"/>
</svg>
