<svg width="60" height="60" viewBox="0 0 60 60" fill="none" xmlns="http://www.w3.org/2000/svg">
<path d="M60 30C60 46.5685 46.5685 60 30 60C13.4315 60 0 46.5685 0 30C0 13.4315 13.4315 0 30 0C46.5685 0 60 13.4315 60 30ZM9.96376 30C9.96376 41.0657 18.9343 50.0362 30 50.0362C41.0657 50.0362 50.0362 41.0657 50.0362 30C50.0362 18.9343 41.0657 9.96376 30 9.96376C18.9343 9.96376 9.96376 18.9343 9.96376 30Z" fill="#F6F7F9"/>
<path d="M30 0C34.5663 5.44524e-08 39.0723 1.04237 43.1747 3.04769C47.2771 5.053 50.8676 7.96833 53.6726 11.5715C56.4776 15.1747 58.423 19.3707 59.3607 23.8396C60.2984 28.3086 60.2035 32.9327 59.0833 37.3594C57.9631 41.7862 55.8472 45.8988 52.8968 49.3839C49.9464 52.869 46.2393 55.6346 42.0582 57.47C37.877 59.3054 33.332 60.162 28.7695 59.9748C24.2071 59.7875 19.7476 58.5612 15.7309 56.3893L20.47 47.6247C23.1527 49.0753 26.1311 49.8943 29.1782 50.0194C32.2253 50.1445 35.2608 49.5723 38.0533 48.3465C40.8458 47.1207 43.3217 45.2736 45.2922 42.946C47.2627 40.6184 48.6759 37.8717 49.424 34.9152C50.1721 31.9587 50.2355 28.8704 49.6093 25.8857C48.983 22.9009 47.6837 20.0986 45.8103 17.6921C43.9369 15.2856 41.5389 13.3385 38.7991 11.9992C36.0592 10.6599 33.0497 9.96376 30 9.96376V0Z" fill="#53B483"/>
<path d="M24.0561 34.1193C23.522 34.1193 23.0419 34.017 22.6158 33.8125C22.1925 33.6051 21.8544 33.321 21.6016 32.9602C21.3487 32.5994 21.2138 32.1875 21.1967 31.7244H22.4751C22.5064 32.0994 22.6726 32.4077 22.9737 32.6491C23.2749 32.8906 23.6357 33.0114 24.0561 33.0114C24.3913 33.0114 24.6882 32.9347 24.9467 32.7812C25.2081 32.625 25.4126 32.4105 25.5604 32.1378C25.7109 31.8651 25.7862 31.554 25.7862 31.2045C25.7862 30.8494 25.7095 30.5327 25.5561 30.2543C25.4027 29.9759 25.1911 29.7571 24.9212 29.598C24.6541 29.4389 24.3473 29.358 24.0007 29.3551C23.7365 29.3551 23.4709 29.4006 23.2038 29.4915C22.9368 29.5824 22.7209 29.7017 22.5561 29.8494L21.3501 29.6705L21.8402 25.2727H26.6385V26.402H22.9354L22.6584 28.8438H22.7095C22.88 28.679 23.1058 28.5412 23.3871 28.4304C23.6712 28.3196 23.9751 28.2642 24.299 28.2642C24.8303 28.2642 25.3033 28.3906 25.718 28.6435C26.1357 28.8963 26.4638 29.2415 26.7024 29.679C26.9439 30.1136 27.0632 30.6136 27.0604 31.179C27.0632 31.7443 26.9354 32.2486 26.6768 32.6918C26.4212 33.1349 26.0661 33.4844 25.6115 33.7401C25.1598 33.9929 24.6413 34.1193 24.0561 34.1193ZM28.9109 34L32.7205 26.4659V26.402H28.3143V25.2727H34.0842V26.4403L30.2873 34H28.9109ZM40.1214 32.3636V31.9034C40.1214 31.5739 40.1896 31.2727 40.326 31C40.4652 30.7244 40.6669 30.5043 40.9311 30.3395C41.1982 30.1719 41.5206 30.0881 41.8984 30.0881C42.2848 30.0881 42.6087 30.1705 42.87 30.3352C43.1314 30.5 43.3288 30.7202 43.4624 30.9957C43.5987 31.2713 43.6669 31.5739 43.6669 31.9034V32.3636C43.6669 32.6932 43.5987 32.9957 43.4624 33.2713C43.326 33.544 43.1257 33.7642 42.8615 33.9318C42.6001 34.0966 42.2791 34.179 41.8984 34.179C41.5149 34.179 41.1911 34.0966 40.9268 33.9318C40.6626 33.7642 40.4624 33.544 40.326 33.2713C40.1896 32.9957 40.1214 32.6932 40.1214 32.3636ZM41.1143 31.9034V32.3636C41.1143 32.608 41.1726 32.8295 41.2891 33.0284C41.4055 33.2273 41.6087 33.3267 41.8984 33.3267C42.1854 33.3267 42.3857 33.2273 42.4993 33.0284C42.6129 32.8295 42.6697 32.608 42.6697 32.3636V31.9034C42.6697 31.6591 42.6143 31.4375 42.5036 31.2386C42.3956 31.0398 42.1939 30.9403 41.8984 30.9403C41.6143 30.9403 41.4126 31.0398 41.2933 31.2386C41.174 31.4375 41.1143 31.6591 41.1143 31.9034ZM35.7322 27.3693V26.9091C35.7322 26.5795 35.8004 26.277 35.9368 26.0014C36.076 25.7259 36.2777 25.5057 36.5419 25.3409C36.8089 25.1761 37.1314 25.0938 37.5092 25.0938C37.8956 25.0938 38.2195 25.1761 38.4808 25.3409C38.7422 25.5057 38.9396 25.7259 39.0732 26.0014C39.2067 26.277 39.2734 26.5795 39.2734 26.9091V27.3693C39.2734 27.6989 39.2053 28.0014 39.0689 28.277C38.9354 28.5497 38.7365 28.7699 38.4723 28.9375C38.2109 29.1023 37.8899 29.1847 37.5092 29.1847C37.1229 29.1847 36.7976 29.1023 36.5334 28.9375C36.272 28.7699 36.0732 28.5497 35.9368 28.277C35.8004 28.0014 35.7322 27.6989 35.7322 27.3693ZM36.7294 26.9091V27.3693C36.7294 27.6136 36.7862 27.8352 36.8999 28.0341C37.0163 28.233 37.2195 28.3324 37.5092 28.3324C37.7933 28.3324 37.9922 28.233 38.1058 28.0341C38.2223 27.8352 38.2805 27.6136 38.2805 27.3693V26.9091C38.2805 26.6648 38.2251 26.4432 38.1143 26.2443C38.0036 26.0455 37.8018 25.946 37.5092 25.946C37.2251 25.946 37.0234 26.0455 36.9041 26.2443C36.7876 26.4432 36.7294 26.6648 36.7294 26.9091ZM36.1371 34L42.1371 25.2727H43.1555L37.1555 34H36.1371Z" fill="#255E46"/>
</svg>
