<svg width="88" height="16" viewBox="0 0 88 16" fill="none" xmlns="http://www.w3.org/2000/svg">
<path fill-rule="evenodd" clip-rule="evenodd" d="M7.19206 2.14044C7.49095 1.42181 8.50897 1.42181 8.80787 2.14044L10.1959 5.47759L13.7986 5.76642C14.5744 5.82861 14.889 6.79681 14.2979 7.30314L11.553 9.65444L12.3916 13.1701C12.5722 13.9272 11.7486 14.5255 11.0844 14.1198L7.99996 12.2359L4.91553 14.1198C4.25131 14.5255 3.42772 13.9272 3.60831 13.1701L4.44692 9.65444L1.70202 7.30314C1.11093 6.79681 1.42551 5.82861 2.20133 5.76642L5.80406 5.47759L7.19206 2.14044Z" fill="#E9A23B"/>
<path fill-rule="evenodd" clip-rule="evenodd" d="M25.1921 2.14044C25.491 1.42181 26.509 1.42181 26.8079 2.14044L28.1959 5.47759L31.7986 5.76642C32.5744 5.82861 32.889 6.79681 32.2979 7.30314L29.553 9.65444L30.3916 13.1701C30.5722 13.9272 29.7486 14.5255 29.0844 14.1198L26 12.2359L22.9155 14.1198C22.2513 14.5255 21.4277 13.9272 21.6083 13.1701L22.4469 9.65444L19.702 7.30314C19.1109 6.79681 19.4255 5.82861 20.2013 5.76642L23.8041 5.47759L25.1921 2.14044Z" fill="#E9A23B"/>
<path fill-rule="evenodd" clip-rule="evenodd" d="M43.1921 2.14044C43.491 1.42181 44.509 1.42181 44.8079 2.14044L46.1959 5.47759L49.7986 5.76642C50.5744 5.82861 50.889 6.79681 50.2979 7.30314L47.553 9.65444L48.3916 13.1701C48.5722 13.9272 47.7486 14.5255 47.0844 14.1198L44 12.2359L40.9155 14.1198C40.2513 14.5255 39.4277 13.9272 39.6083 13.1701L40.4469 9.65444L37.702 7.30314C37.1109 6.79681 37.4255 5.82861 38.2013 5.76642L41.8041 5.47759L43.1921 2.14044Z" fill="#E9A23B"/>
<path fill-rule="evenodd" clip-rule="evenodd" d="M61.1921 2.14044C61.491 1.42181 62.509 1.42181 62.8079 2.14044L64.1959 5.47759L67.7986 5.76642C68.5744 5.82861 68.889 6.79681 68.2979 7.30314L65.553 9.65444L66.3916 13.1701C66.5722 13.9272 65.7486 14.5255 65.0844 14.1198L62 12.2359L58.9155 14.1198C58.2513 14.5255 57.4277 13.9272 57.6083 13.1701L58.4469 9.65444L55.702 7.30314C55.1109 6.79681 55.4255 5.82861 56.2013 5.76642L59.8041 5.47759L61.1921 2.14044Z" fill="#E5E7EA"/>
<path fill-rule="evenodd" clip-rule="evenodd" d="M79.1921 2.14044C79.491 1.42181 80.509 1.42181 80.8079 2.14044L82.1959 5.47759L85.7986 5.76642C86.5744 5.82861 86.889 6.79681 86.2979 7.30314L83.553 9.65444L84.3916 13.1701C84.5722 13.9272 83.7486 14.5255 83.0844 14.1198L80 12.2359L76.9155 14.1198C76.2513 14.5255 75.4277 13.9272 75.6083 13.1701L76.4469 9.65444L73.702 7.30314C73.1109 6.79681 73.4255 5.82861 74.2013 5.76642L77.8041 5.47759L79.1921 2.14044Z" fill="#E5E7EA"/>
</svg>
