<svg width="88" height="16" viewBox="0 0 88 16" fill="none" xmlns="http://www.w3.org/2000/svg">
<path fill-rule="evenodd" clip-rule="evenodd" d="M7.19209 2.14046C7.49098 1.42183 8.509 1.42183 8.8079 2.14046L10.1959 5.4776L13.7986 5.76643C14.5744 5.82863 14.889 6.79682 14.2979 7.30316L11.553 9.65446L12.3916 13.1701C12.5722 13.9272 11.7486 14.5256 11.0844 14.1199L7.99999 12.2359L4.91556 14.1199C4.25134 14.5256 3.42775 13.9272 3.60834 13.1701L4.44695 9.65446L1.70205 7.30316C1.11096 6.79682 1.42554 5.82863 2.20136 5.76643L5.80409 5.4776L7.19209 2.14046Z" fill="#E9A23B"/>
<path fill-rule="evenodd" clip-rule="evenodd" d="M25.1921 2.14046C25.491 1.42183 26.509 1.42183 26.8079 2.14046L28.1959 5.4776L31.7986 5.76643C32.5744 5.82863 32.889 6.79682 32.2979 7.30316L29.553 9.65446L30.3916 13.1701C30.5722 13.9272 29.7486 14.5256 29.0844 14.1199L26 12.2359L22.9156 14.1199C22.2513 14.5256 21.4277 13.9272 21.6083 13.1701L22.4469 9.65446L19.7021 7.30316C19.111 6.79682 19.4255 5.82863 20.2014 5.76643L23.8041 5.4776L25.1921 2.14046Z" fill="#E9A23B"/>
<path fill-rule="evenodd" clip-rule="evenodd" d="M43.1921 2.14046C43.491 1.42183 44.509 1.42183 44.8079 2.14046L46.1959 5.4776L49.7986 5.76643C50.5744 5.82863 50.889 6.79682 50.2979 7.30316L47.553 9.65446L48.3916 13.1701C48.5722 13.9272 47.7486 14.5256 47.0844 14.1199L44 12.2359L40.9156 14.1199C40.2513 14.5256 39.4277 13.9272 39.6083 13.1701L40.4469 9.65446L37.7021 7.30316C37.111 6.79682 37.4255 5.82863 38.2014 5.76643L41.8041 5.4776L43.1921 2.14046Z" fill="#E9A23B"/>
<path fill-rule="evenodd" clip-rule="evenodd" d="M61.1921 2.14046C61.491 1.42183 62.509 1.42183 62.8079 2.14046L64.1959 5.4776L67.7986 5.76643C68.5744 5.82863 68.889 6.79682 68.2979 7.30316L65.553 9.65446L66.3916 13.1701C66.5722 13.9272 65.7486 14.5256 65.0844 14.1199L62 12.2359L58.9156 14.1199C58.2513 14.5256 57.4277 13.9272 57.6083 13.1701L58.4469 9.65446L55.7021 7.30316C55.111 6.79682 55.4255 5.82863 56.2014 5.76643L59.8041 5.4776L61.1921 2.14046Z" fill="#E9A23B"/>
<path fill-rule="evenodd" clip-rule="evenodd" d="M79.1921 2.14046C79.491 1.42183 80.509 1.42183 80.8079 2.14046L82.1959 5.4776L85.7986 5.76643C86.5744 5.82863 86.889 6.79682 86.2979 7.30316L83.553 9.65446L84.3916 13.1701C84.5722 13.9272 83.7486 14.5256 83.0844 14.1199L80 12.2359L76.9156 14.1199C76.2513 14.5256 75.4277 13.9272 75.6083 13.1701L76.4469 9.65446L73.7021 7.30316C73.111 6.79682 73.4255 5.82863 74.2014 5.76643L77.8041 5.4776L79.1921 2.14046Z" fill="#E9A23B"/>
</svg>
