<svg width="32" height="32" viewBox="0 0 32 32" fill="none" xmlns="http://www.w3.org/2000/svg">
<g clip-path="url(#clip0_4_17842)">
<path d="M16.0001 32.0002C24.8367 32.0002 32.0002 24.8367 32.0002 16.0001C32.0002 7.1635 24.8367 0 16.0001 0C7.1635 0 0 7.1635 0 16.0001C0 24.8367 7.1635 32.0002 16.0001 32.0002Z" fill="#34E0A1"/>
<path d="M25.8825 12.8786L27.8134 10.7781H23.5317C21.3882 9.31385 18.7995 8.46112 16.0001 8.46112C13.2041 8.46112 10.6226 9.31577 8.4827 10.7781H4.19046L6.12105 12.8786C4.93759 13.9584 4.19574 15.5139 4.19574 17.2407C4.19574 20.4997 6.83795 23.1419 10.097 23.1419C11.6452 23.1419 13.0555 22.5448 14.1084 21.5687L15.9999 23.6282L17.8913 21.5706C18.9442 22.5467 20.3531 23.1419 21.9011 23.1419C25.1601 23.1419 27.8059 20.4997 27.8059 17.2407C27.8076 15.512 27.0657 13.9567 25.8823 12.8786H25.8825ZM10.0986 21.2344C7.89252 21.2344 6.10497 19.4468 6.10497 17.2407C6.10497 15.0346 7.89276 13.247 10.0986 13.247C12.3048 13.247 14.0923 15.0348 14.0923 17.2407C14.0923 19.4466 12.3045 21.2344 10.0986 21.2344ZM16.0018 17.1246C16.0018 14.4965 14.0906 12.2405 11.5682 11.2768C12.9324 10.7066 14.4286 10.3903 16.0001 10.3903C17.5714 10.3903 19.0695 10.7066 20.4337 11.2768C17.9132 12.2424 16.002 14.4965 16.002 17.1246H16.0018ZM21.903 21.2344C19.6969 21.2344 17.9093 19.4468 17.9093 17.2407C17.9093 15.0346 19.6971 13.247 21.903 13.247C24.1091 13.247 25.8967 15.0348 25.8967 17.2407C25.8967 19.4466 24.1089 21.2344 21.903 21.2344ZM21.903 15.1455C20.7462 15.1455 19.8095 16.0822 19.8095 17.239C19.8095 18.3956 20.7462 19.3323 21.903 19.3323C23.0596 19.3323 23.9963 18.3956 23.9963 17.239C23.9963 16.0841 23.0596 15.1455 21.903 15.1455ZM12.1922 17.2407C12.1922 18.3973 11.2555 19.334 10.0986 19.334C8.94206 19.334 8.00533 18.3973 8.00533 17.2407C8.00533 16.0839 8.94206 15.1472 10.0986 15.1472C11.2552 15.1455 12.1922 16.0839 12.1922 17.2407Z" fill="black"/>
</g>
<defs>
<clipPath id="clip0_4_17842">
<rect width="32" height="32" fill="white"/>
</clipPath>
</defs>
</svg>
