<svg width="32" height="32" viewBox="0 0 32 32" fill="none" xmlns="http://www.w3.org/2000/svg">
<rect width="32" height="32" rx="16" fill="#FF1919"/>
<g clip-path="url(#clip0_48_79)">
<path d="M10.2328 15.7036C9.9731 16.1193 9.86425 17.4269 9.95474 18.2938C9.98622 18.5797 10.0387 18.8184 10.1134 18.9613C10.217 19.158 10.3915 19.2761 10.5895 19.2826C10.7167 19.2892 10.7967 19.2669 13.1902 18.497C13.1902 18.497 14.2538 18.1574 14.259 18.1547C14.5239 18.0866 14.7036 17.8426 14.7206 17.5318C14.7377 17.2118 14.5738 16.9298 14.301 16.8288C14.301 16.8288 13.5508 16.5233 13.5495 16.5233C10.9764 15.4623 10.861 15.4203 10.7311 15.419C10.5318 15.4125 10.3561 15.5121 10.2328 15.7036ZM15.9875 23.6105C16.0295 23.4898 16.0347 23.4072 16.0413 20.8918C16.0413 20.8918 16.0465 19.781 16.0479 19.7692C16.0649 19.4964 15.8892 19.2485 15.6006 19.137C15.3029 19.0229 14.9829 19.0938 14.8033 19.3167C14.8033 19.3167 14.2787 19.9397 14.2761 19.9397C12.4741 22.0564 12.398 22.1547 12.3547 22.2793C12.3272 22.3528 12.318 22.4315 12.3259 22.5102C12.3364 22.6229 12.3875 22.7331 12.4715 22.8367C12.8898 23.3338 14.8938 24.0708 15.5338 23.9606C15.758 23.9226 15.9193 23.798 15.9875 23.6105ZM20.0544 22.7357C20.659 22.4944 21.977 20.8184 22.0701 20.1718C22.1029 19.9475 22.0321 19.7534 21.8774 19.6302C21.7764 19.5541 21.699 19.5239 19.3056 18.7384C19.3056 18.7384 18.2564 18.3921 18.242 18.3856C17.9875 18.2872 17.6977 18.379 17.5036 18.619C17.3003 18.8656 17.2701 19.1921 17.4328 19.4374L17.8551 20.1246C19.2754 22.4315 19.3842 22.5941 19.4865 22.6741C19.6439 22.7987 19.8446 22.8197 20.0544 22.7357ZM18.8177 16.7974C21.5364 16.139 21.6426 16.1036 21.7488 16.0328C21.9141 15.9213 21.9967 15.7364 21.9823 15.5108C21.9823 15.5043 21.9836 15.4964 21.9823 15.4885C21.9128 14.8197 20.7429 13.0833 20.1659 12.8013C19.9613 12.7029 19.7567 12.7095 19.5875 12.8236C19.4826 12.8918 19.4052 12.9954 17.9495 14.9875C17.9495 14.9875 17.2924 15.8833 17.2846 15.8925C17.1115 16.1036 17.1088 16.4052 17.278 16.6649C17.4538 16.9338 17.7501 17.0636 18.0216 16.9888C18.0216 16.9888 18.0111 17.0085 18.0085 17.0111C18.1423 16.96 18.381 16.901 18.8177 16.7974ZM16.0885 14.5521C16.0413 13.4741 15.7174 8.6754 15.6793 8.45376C15.6242 8.2518 15.4669 8.10885 15.2413 8.05114C14.5462 7.87934 11.8931 8.62294 11.4013 9.12917C11.2426 9.29442 11.1849 9.49639 11.2321 9.67606C11.3095 9.83475 14.5974 15.0072 14.5974 15.0072C15.0826 15.7954 15.48 15.6721 15.6098 15.6315C15.7383 15.5934 16.1331 15.4702 16.0885 14.5521Z" fill="white"/>
</g>
<defs>
<clipPath id="clip0_48_79">
<rect width="12.1536" height="16" fill="white" transform="translate(9.92319 8)"/>
</clipPath>
</defs>
</svg>
