<svg viewBox="0 0 767 296" fill="none" xmlns="http://www.w3.org/2000/svg">
    <g clip-path="url(#clip0_5_17965)">
        <path
            d="M0.999645 11.2102V10.3409L4.83487 4.27273H5.46555V5.61932H5.03942L2.14169 10.2045V10.2727H7.30646V11.2102H0.999645ZM5.1076 13V10.946V10.5412V4.27273H6.11328V13H5.1076Z"
            fill="#979797" />
        <path
            d="M4.21165 72.8693C3.64915 72.8693 3.14773 72.7727 2.70739 72.5795C2.26989 72.3864 1.92188 72.1179 1.66335 71.7741C1.40767 71.4276 1.26847 71.0256 1.24574 70.5682H2.3196C2.34233 70.8494 2.43892 71.0923 2.60938 71.2969C2.77983 71.4986 3.00284 71.6548 3.27841 71.7656C3.55398 71.8764 3.85938 71.9318 4.1946 71.9318C4.5696 71.9318 4.90199 71.8665 5.19176 71.7358C5.48153 71.6051 5.70881 71.4233 5.87358 71.1903C6.03835 70.9574 6.12074 70.6875 6.12074 70.3807C6.12074 70.0597 6.04119 69.777 5.8821 69.5327C5.72301 69.2855 5.49006 69.0923 5.18324 68.9531C4.87642 68.8139 4.50142 68.7443 4.05824 68.7443H3.35938V67.8068H4.05824C4.40483 67.8068 4.70881 67.7443 4.97017 67.6193C5.23438 67.4943 5.44034 67.3182 5.58807 67.0909C5.73864 66.8636 5.81392 66.5966 5.81392 66.2898C5.81392 65.9943 5.74858 65.7372 5.6179 65.5185C5.48722 65.2997 5.30256 65.1293 5.06392 65.0071C4.82813 64.8849 4.54972 64.8239 4.22869 64.8239C3.92756 64.8239 3.64347 64.8793 3.37642 64.9901C3.11222 65.098 2.89631 65.2557 2.72869 65.4631C2.56108 65.6676 2.47017 65.9148 2.45597 66.2045H1.43324C1.45028 65.7472 1.58807 65.3466 1.84659 65.0028C2.10511 64.6562 2.44318 64.3864 2.8608 64.1932C3.28125 64 3.7429 63.9034 4.24574 63.9034C4.78551 63.9034 5.24858 64.0128 5.63494 64.2315C6.02131 64.4474 6.31818 64.733 6.52557 65.0881C6.73295 65.4432 6.83665 65.8267 6.83665 66.2386C6.83665 66.7301 6.70739 67.1491 6.44886 67.4957C6.19318 67.8423 5.84517 68.0824 5.40483 68.2159V68.2841C5.95597 68.375 6.38636 68.6094 6.69602 68.9872C7.00568 69.3622 7.16051 69.8267 7.16051 70.3807C7.16051 70.8551 7.03125 71.2812 6.77273 71.6591C6.51705 72.0341 6.16761 72.3295 5.72443 72.5455C5.28125 72.7614 4.77699 72.8693 4.21165 72.8693Z"
            fill="#979797" />
        <path
            d="M1.63778 132.5V131.733L4.51847 128.58C4.85653 128.21 5.13494 127.889 5.35369 127.616C5.57244 127.341 5.73438 127.082 5.83949 126.841C5.94744 126.597 6.00142 126.341 6.00142 126.074C6.00142 125.767 5.92756 125.501 5.77983 125.277C5.63494 125.053 5.43608 124.879 5.18324 124.757C4.9304 124.635 4.64631 124.574 4.33097 124.574C3.99574 124.574 3.70312 124.643 3.45312 124.783C3.20597 124.919 3.0142 125.111 2.87784 125.358C2.74432 125.605 2.67756 125.895 2.67756 126.227H1.67188C1.67188 125.716 1.78977 125.267 2.02557 124.881C2.26136 124.494 2.58239 124.193 2.98864 123.977C3.39773 123.761 3.85653 123.653 4.36506 123.653C4.87642 123.653 5.32955 123.761 5.72443 123.977C6.11932 124.193 6.42898 124.484 6.65341 124.851C6.87784 125.217 6.99006 125.625 6.99006 126.074C6.99006 126.395 6.93182 126.709 6.81534 127.016C6.7017 127.32 6.50284 127.659 6.21875 128.034C5.9375 128.406 5.54688 128.861 5.04688 129.398L3.08665 131.494V131.562H7.14347V132.5H1.63778Z"
            fill="#979797" />
        <path d="M4.39347 183.523V192.25H3.33665V184.631H3.28551L1.15483 186.045V184.972L3.33665 183.523H4.39347Z"
            fill="#979797" />
        <path
            d="M4.25 252.119C3.60795 252.119 3.06108 251.945 2.60938 251.595C2.15767 251.243 1.8125 250.733 1.57386 250.065C1.33523 249.395 1.21591 248.585 1.21591 247.636C1.21591 246.693 1.33523 245.888 1.57386 245.22C1.81534 244.55 2.16193 244.038 2.61364 243.686C3.06818 243.331 3.61364 243.153 4.25 243.153C4.88636 243.153 5.4304 243.331 5.8821 243.686C6.33665 244.038 6.68324 244.55 6.92188 245.22C7.16335 245.888 7.28409 246.693 7.28409 247.636C7.28409 248.585 7.16477 249.395 6.92614 250.065C6.6875 250.733 6.34233 251.243 5.89062 251.595C5.43892 251.945 4.89205 252.119 4.25 252.119ZM4.25 251.182C4.88636 251.182 5.38068 250.875 5.73295 250.261C6.08523 249.648 6.26136 248.773 6.26136 247.636C6.26136 246.881 6.1804 246.237 6.01847 245.706C5.85938 245.175 5.62926 244.77 5.32812 244.491C5.02983 244.213 4.67045 244.074 4.25 244.074C3.61932 244.074 3.12642 244.385 2.77131 245.007C2.41619 245.626 2.23864 246.503 2.23864 247.636C2.23864 248.392 2.31818 249.034 2.47727 249.562C2.63636 250.091 2.86506 250.493 3.16335 250.768C3.46449 251.044 3.8267 251.182 4.25 251.182Z"
            fill="#979797" />
        <path d="M24 13H767" stroke="#9EA5AD" stroke-dasharray="4 4" />
        <path d="M24 70.75H767" stroke="#9EA5AD" stroke-dasharray="4 4" />
        <path d="M24 128.5H767" stroke="#9EA5AD" stroke-dasharray="4 4" />
        <path d="M24 186.25H767" stroke="#9EA5AD" stroke-dasharray="4 4" />
        <path d="M24 244H767" stroke="#9EA5AD" stroke-dasharray="4 4" />
        <path
            d="M97.0568 280V271.273H102.29V272.21H98.1136V275.159H101.898V276.097H98.1136V280H97.0568ZM106.227 280.136C105.597 280.136 105.053 279.997 104.595 279.719C104.141 279.438 103.79 279.045 103.543 278.543C103.298 278.037 103.176 277.449 103.176 276.778C103.176 276.108 103.298 275.517 103.543 275.006C103.79 274.491 104.134 274.091 104.574 273.804C105.017 273.514 105.534 273.369 106.125 273.369C106.466 273.369 106.803 273.426 107.135 273.54C107.467 273.653 107.77 273.838 108.043 274.094C108.315 274.347 108.533 274.682 108.695 275.099C108.857 275.517 108.938 276.031 108.938 276.642V277.068H103.892V276.199H107.915C107.915 275.83 107.841 275.5 107.693 275.21C107.548 274.92 107.341 274.692 107.071 274.524C106.804 274.357 106.489 274.273 106.125 274.273C105.724 274.273 105.378 274.372 105.085 274.571C104.795 274.767 104.572 275.023 104.416 275.338C104.26 275.653 104.182 275.991 104.182 276.352V276.932C104.182 277.426 104.267 277.845 104.438 278.189C104.611 278.53 104.851 278.79 105.158 278.969C105.464 279.145 105.821 279.233 106.227 279.233C106.491 279.233 106.73 279.196 106.943 279.122C107.159 279.045 107.345 278.932 107.501 278.781C107.658 278.628 107.778 278.437 107.864 278.21L108.835 278.483C108.733 278.812 108.561 279.102 108.32 279.352C108.078 279.599 107.78 279.793 107.425 279.932C107.07 280.068 106.67 280.136 106.227 280.136ZM110.604 280V271.273H111.609V274.494H111.695C111.768 274.381 111.871 274.236 112.001 274.06C112.135 273.881 112.325 273.722 112.572 273.582C112.822 273.44 113.161 273.369 113.587 273.369C114.138 273.369 114.624 273.507 115.044 273.783C115.464 274.058 115.793 274.449 116.028 274.955C116.264 275.46 116.382 276.057 116.382 276.744C116.382 277.438 116.264 278.038 116.028 278.547C115.793 279.053 115.466 279.445 115.048 279.723C114.631 279.999 114.149 280.136 113.604 280.136C113.183 280.136 112.847 280.067 112.594 279.928C112.341 279.786 112.146 279.625 112.01 279.446C111.874 279.264 111.768 279.114 111.695 278.994H111.575V280H110.604ZM111.592 276.727C111.592 277.222 111.665 277.658 111.81 278.036C111.955 278.411 112.166 278.705 112.445 278.918C112.723 279.128 113.064 279.233 113.467 279.233C113.888 279.233 114.239 279.122 114.52 278.901C114.804 278.676 115.017 278.375 115.159 277.997C115.304 277.616 115.376 277.193 115.376 276.727C115.376 276.267 115.305 275.852 115.163 275.483C115.024 275.111 114.813 274.817 114.528 274.601C114.247 274.382 113.893 274.273 113.467 274.273C113.058 274.273 112.714 274.376 112.436 274.584C112.158 274.788 111.947 275.075 111.805 275.445C111.663 275.811 111.592 276.239 111.592 276.727ZM124.347 271.273V280H123.29V272.381H123.239L121.108 273.795V272.722L123.29 271.273H124.347ZM129.635 271.153C129.993 271.156 130.351 271.224 130.709 271.358C131.067 271.491 131.393 271.713 131.689 272.023C131.984 272.33 132.222 272.749 132.401 273.28C132.58 273.811 132.669 274.477 132.669 275.278C132.669 276.054 132.595 276.743 132.447 277.345C132.303 277.945 132.092 278.45 131.817 278.862C131.544 279.274 131.212 279.587 130.82 279.8C130.43 280.013 129.99 280.119 129.499 280.119C129.01 280.119 128.574 280.023 128.19 279.83C127.81 279.634 127.497 279.362 127.253 279.016C127.011 278.666 126.857 278.261 126.788 277.801H127.828C127.922 278.202 128.108 278.533 128.386 278.794C128.668 279.053 129.038 279.182 129.499 279.182C130.172 279.182 130.703 278.888 131.092 278.3C131.484 277.712 131.68 276.881 131.68 275.807H131.612C131.453 276.045 131.264 276.251 131.045 276.425C130.827 276.598 130.584 276.732 130.317 276.825C130.05 276.919 129.766 276.966 129.464 276.966C128.964 276.966 128.506 276.842 128.088 276.595C127.673 276.345 127.341 276.003 127.091 275.568C126.844 275.131 126.72 274.631 126.72 274.068C126.72 273.534 126.839 273.045 127.078 272.602C127.32 272.156 127.658 271.801 128.092 271.537C128.53 271.273 129.044 271.145 129.635 271.153ZM129.635 272.091C129.277 272.091 128.955 272.18 128.668 272.359C128.384 272.536 128.158 272.774 127.99 273.075C127.825 273.374 127.743 273.705 127.743 274.068C127.743 274.432 127.822 274.763 127.982 275.061C128.143 275.357 128.364 275.592 128.642 275.768C128.923 275.942 129.243 276.028 129.601 276.028C129.871 276.028 130.122 275.976 130.355 275.871C130.588 275.763 130.791 275.616 130.964 275.432C131.141 275.244 131.278 275.033 131.378 274.797C131.477 274.558 131.527 274.31 131.527 274.051C131.527 273.71 131.445 273.391 131.28 273.092C131.118 272.794 130.893 272.553 130.607 272.368C130.322 272.183 129.999 272.091 129.635 272.091Z"
            fill="#979797" />
        <path
            d="M197.39 280V271.273H202.623V272.21H198.447V275.159H202.231V276.097H198.447V280H197.39ZM206.561 280.136C205.93 280.136 205.386 279.997 204.928 279.719C204.474 279.438 204.123 279.045 203.876 278.543C203.632 278.037 203.509 277.449 203.509 276.778C203.509 276.108 203.632 275.517 203.876 275.006C204.123 274.491 204.467 274.091 204.907 273.804C205.35 273.514 205.867 273.369 206.458 273.369C206.799 273.369 207.136 273.426 207.468 273.54C207.801 273.653 208.103 273.838 208.376 274.094C208.649 274.347 208.866 274.682 209.028 275.099C209.19 275.517 209.271 276.031 209.271 276.642V277.068H204.225V276.199H208.248C208.248 275.83 208.174 275.5 208.027 275.21C207.882 274.92 207.674 274.692 207.404 274.524C207.137 274.357 206.822 274.273 206.458 274.273C206.058 274.273 205.711 274.372 205.419 274.571C205.129 274.767 204.906 275.023 204.75 275.338C204.593 275.653 204.515 275.991 204.515 276.352V276.932C204.515 277.426 204.6 277.845 204.771 278.189C204.944 278.53 205.184 278.79 205.491 278.969C205.798 279.145 206.154 279.233 206.561 279.233C206.825 279.233 207.063 279.196 207.277 279.122C207.492 279.045 207.678 278.932 207.835 278.781C207.991 278.628 208.112 278.437 208.197 278.21L209.169 278.483C209.066 278.812 208.894 279.102 208.653 279.352C208.411 279.599 208.113 279.793 207.758 279.932C207.403 280.068 207.004 280.136 206.561 280.136ZM210.937 280V271.273H211.943V274.494H212.028C212.102 274.381 212.204 274.236 212.335 274.06C212.468 273.881 212.659 273.722 212.906 273.582C213.156 273.44 213.494 273.369 213.92 273.369C214.471 273.369 214.957 273.507 215.377 273.783C215.798 274.058 216.126 274.449 216.362 274.955C216.598 275.46 216.715 276.057 216.715 276.744C216.715 277.438 216.598 278.038 216.362 278.547C216.126 279.053 215.799 279.445 215.382 279.723C214.964 279.999 214.482 280.136 213.937 280.136C213.517 280.136 213.18 280.067 212.927 279.928C212.674 279.786 212.48 279.625 212.343 279.446C212.207 279.264 212.102 279.114 212.028 278.994H211.909V280H210.937ZM211.926 276.727C211.926 277.222 211.998 277.658 212.143 278.036C212.288 278.411 212.5 278.705 212.778 278.918C213.056 279.128 213.397 279.233 213.801 279.233C214.221 279.233 214.572 279.122 214.853 278.901C215.137 278.676 215.35 278.375 215.492 277.997C215.637 277.616 215.71 277.193 215.71 276.727C215.71 276.267 215.639 275.852 215.497 275.483C215.357 275.111 215.146 274.817 214.862 274.601C214.58 274.382 214.227 274.273 213.801 274.273C213.392 274.273 213.048 274.376 212.769 274.584C212.491 274.788 212.281 275.075 212.139 275.445C211.997 275.811 211.926 276.239 211.926 276.727ZM221.612 280V279.233L224.492 276.08C224.83 275.71 225.109 275.389 225.328 275.116C225.546 274.841 225.708 274.582 225.813 274.341C225.921 274.097 225.975 273.841 225.975 273.574C225.975 273.267 225.902 273.001 225.754 272.777C225.609 272.553 225.41 272.379 225.157 272.257C224.904 272.135 224.62 272.074 224.305 272.074C223.97 272.074 223.677 272.143 223.427 272.283C223.18 272.419 222.988 272.611 222.852 272.858C222.718 273.105 222.652 273.395 222.652 273.727H221.646C221.646 273.216 221.764 272.767 222 272.381C222.235 271.994 222.556 271.693 222.963 271.477C223.372 271.261 223.83 271.153 224.339 271.153C224.85 271.153 225.303 271.261 225.698 271.477C226.093 271.693 226.403 271.984 226.627 272.351C226.852 272.717 226.964 273.125 226.964 273.574C226.964 273.895 226.906 274.209 226.789 274.516C226.676 274.82 226.477 275.159 226.193 275.534C225.911 275.906 225.521 276.361 225.021 276.898L223.061 278.994V279.062H227.117V280H221.612ZM231.724 280.119C231.082 280.119 230.535 279.945 230.083 279.595C229.632 279.243 229.286 278.733 229.048 278.065C228.809 277.395 228.69 276.585 228.69 275.636C228.69 274.693 228.809 273.888 229.048 273.22C229.289 272.55 229.636 272.038 230.088 271.686C230.542 271.331 231.088 271.153 231.724 271.153C232.36 271.153 232.904 271.331 233.356 271.686C233.811 272.038 234.157 272.55 234.396 273.22C234.637 273.888 234.758 274.693 234.758 275.636C234.758 276.585 234.639 277.395 234.4 278.065C234.161 278.733 233.816 279.243 233.365 279.595C232.913 279.945 232.366 280.119 231.724 280.119ZM231.724 279.182C232.36 279.182 232.855 278.875 233.207 278.261C233.559 277.648 233.735 276.773 233.735 275.636C233.735 274.881 233.654 274.237 233.492 273.706C233.333 273.175 233.103 272.77 232.802 272.491C232.504 272.213 232.144 272.074 231.724 272.074C231.093 272.074 230.6 272.385 230.245 273.007C229.89 273.626 229.713 274.503 229.713 275.636C229.713 276.392 229.792 277.034 229.951 277.562C230.11 278.091 230.339 278.493 230.637 278.768C230.938 279.044 231.301 279.182 231.724 279.182Z"
            fill="#979797" />
        <path
            d="M299.723 280V271.273H304.956V272.21H300.78V275.159H304.564V276.097H300.78V280H299.723ZM308.894 280.136C308.263 280.136 307.719 279.997 307.262 279.719C306.807 279.438 306.456 279.045 306.209 278.543C305.965 278.037 305.843 277.449 305.843 276.778C305.843 276.108 305.965 275.517 306.209 275.006C306.456 274.491 306.8 274.091 307.241 273.804C307.684 273.514 308.201 273.369 308.792 273.369C309.133 273.369 309.469 273.426 309.802 273.54C310.134 273.653 310.437 273.838 310.709 274.094C310.982 274.347 311.199 274.682 311.361 275.099C311.523 275.517 311.604 276.031 311.604 276.642V277.068H306.559V276.199H310.581C310.581 275.83 310.508 275.5 310.36 275.21C310.215 274.92 310.008 274.692 309.738 274.524C309.471 274.357 309.155 274.273 308.792 274.273C308.391 274.273 308.044 274.372 307.752 274.571C307.462 274.767 307.239 275.023 307.083 275.338C306.927 275.653 306.848 275.991 306.848 276.352V276.932C306.848 277.426 306.934 277.845 307.104 278.189C307.277 278.53 307.518 278.79 307.824 278.969C308.131 279.145 308.488 279.233 308.894 279.233C309.158 279.233 309.397 279.196 309.61 279.122C309.826 279.045 310.012 278.932 310.168 278.781C310.324 278.628 310.445 278.437 310.53 278.21L311.502 278.483C311.4 278.812 311.228 279.102 310.986 279.352C310.745 279.599 310.446 279.793 310.091 279.932C309.736 280.068 309.337 280.136 308.894 280.136ZM313.27 280V271.273H314.276V274.494H314.361C314.435 274.381 314.537 274.236 314.668 274.06C314.802 273.881 314.992 273.722 315.239 273.582C315.489 273.44 315.827 273.369 316.253 273.369C316.804 273.369 317.29 273.507 317.711 273.783C318.131 274.058 318.459 274.449 318.695 274.955C318.931 275.46 319.049 276.057 319.049 276.744C319.049 277.438 318.931 278.038 318.695 278.547C318.459 279.053 318.133 279.445 317.715 279.723C317.297 279.999 316.816 280.136 316.27 280.136C315.85 280.136 315.513 280.067 315.26 279.928C315.008 279.786 314.813 279.625 314.677 279.446C314.54 279.264 314.435 279.114 314.361 278.994H314.242V280H313.27ZM314.259 276.727C314.259 277.222 314.331 277.658 314.476 278.036C314.621 278.411 314.833 278.705 315.111 278.918C315.39 279.128 315.731 279.233 316.134 279.233C316.554 279.233 316.905 279.122 317.187 278.901C317.471 278.676 317.684 278.375 317.826 277.997C317.971 277.616 318.043 277.193 318.043 276.727C318.043 276.267 317.972 275.852 317.83 275.483C317.691 275.111 317.479 274.817 317.195 274.601C316.914 274.382 316.56 274.273 316.134 274.273C315.725 274.273 315.381 274.376 315.103 274.584C314.824 274.788 314.614 275.075 314.472 275.445C314.33 275.811 314.259 276.239 314.259 276.727ZM323.945 280V279.233L326.826 276.08C327.164 275.71 327.442 275.389 327.661 275.116C327.88 274.841 328.042 274.582 328.147 274.341C328.255 274.097 328.309 273.841 328.309 273.574C328.309 273.267 328.235 273.001 328.087 272.777C327.942 272.553 327.743 272.379 327.491 272.257C327.238 272.135 326.954 272.074 326.638 272.074C326.303 272.074 326.01 272.143 325.76 272.283C325.513 272.419 325.321 272.611 325.185 272.858C325.052 273.105 324.985 273.395 324.985 273.727H323.979C323.979 273.216 324.097 272.767 324.333 272.381C324.569 271.994 324.89 271.693 325.296 271.477C325.705 271.261 326.164 271.153 326.672 271.153C327.184 271.153 327.637 271.261 328.032 271.477C328.427 271.693 328.736 271.984 328.961 272.351C329.185 272.717 329.297 273.125 329.297 273.574C329.297 273.895 329.239 274.209 329.123 274.516C329.009 274.82 328.81 275.159 328.526 275.534C328.245 275.906 327.854 276.361 327.354 276.898L325.394 278.994V279.062H329.451V280H323.945ZM334.279 271.273V280H333.222V272.381H333.171L331.04 273.795V272.722L333.222 271.273H334.279Z"
            fill="#979797" />
        <path
            d="M400.057 280V271.273H405.29V272.21H401.114V275.159H404.898V276.097H401.114V280H400.057ZM409.227 280.136C408.597 280.136 408.053 279.997 407.595 279.719C407.141 279.438 406.79 279.045 406.543 278.543C406.298 278.037 406.176 277.449 406.176 276.778C406.176 276.108 406.298 275.517 406.543 275.006C406.79 274.491 407.134 274.091 407.574 273.804C408.017 273.514 408.534 273.369 409.125 273.369C409.466 273.369 409.803 273.426 410.135 273.54C410.467 273.653 410.77 273.838 411.043 274.094C411.315 274.347 411.533 274.682 411.695 275.099C411.857 275.517 411.938 276.031 411.938 276.642V277.068H406.892V276.199H410.915C410.915 275.83 410.841 275.5 410.693 275.21C410.548 274.92 410.341 274.692 410.071 274.524C409.804 274.357 409.489 274.273 409.125 274.273C408.724 274.273 408.378 274.372 408.085 274.571C407.795 274.767 407.572 275.023 407.416 275.338C407.26 275.653 407.182 275.991 407.182 276.352V276.932C407.182 277.426 407.267 277.845 407.438 278.189C407.611 278.53 407.851 278.79 408.158 278.969C408.464 279.145 408.821 279.233 409.227 279.233C409.491 279.233 409.73 279.196 409.943 279.122C410.159 279.045 410.345 278.932 410.501 278.781C410.658 278.628 410.778 278.437 410.864 278.21L411.835 278.483C411.733 278.812 411.561 279.102 411.32 279.352C411.078 279.599 410.78 279.793 410.425 279.932C410.07 280.068 409.67 280.136 409.227 280.136ZM413.604 280V271.273H414.609V274.494H414.695C414.768 274.381 414.871 274.236 415.001 274.06C415.135 273.881 415.325 273.722 415.572 273.582C415.822 273.44 416.161 273.369 416.587 273.369C417.138 273.369 417.624 273.507 418.044 273.783C418.464 274.058 418.793 274.449 419.028 274.955C419.264 275.46 419.382 276.057 419.382 276.744C419.382 277.438 419.264 278.038 419.028 278.547C418.793 279.053 418.466 279.445 418.048 279.723C417.631 279.999 417.149 280.136 416.604 280.136C416.183 280.136 415.847 280.067 415.594 279.928C415.341 279.786 415.146 279.625 415.01 279.446C414.874 279.264 414.768 279.114 414.695 278.994H414.575V280H413.604ZM414.592 276.727C414.592 277.222 414.665 277.658 414.81 278.036C414.955 278.411 415.166 278.705 415.445 278.918C415.723 279.128 416.064 279.233 416.467 279.233C416.888 279.233 417.239 279.122 417.52 278.901C417.804 278.676 418.017 278.375 418.159 277.997C418.304 277.616 418.376 277.193 418.376 276.727C418.376 276.267 418.305 275.852 418.163 275.483C418.024 275.111 417.813 274.817 417.528 274.601C417.247 274.382 416.893 274.273 416.467 274.273C416.058 274.273 415.714 274.376 415.436 274.584C415.158 274.788 414.947 275.075 414.805 275.445C414.663 275.811 414.592 276.239 414.592 276.727ZM424.278 280V279.233L427.159 276.08C427.497 275.71 427.776 275.389 427.994 275.116C428.213 274.841 428.375 274.582 428.48 274.341C428.588 274.097 428.642 273.841 428.642 273.574C428.642 273.267 428.568 273.001 428.42 272.777C428.276 272.553 428.077 272.379 427.824 272.257C427.571 272.135 427.287 272.074 426.972 272.074C426.636 272.074 426.344 272.143 426.094 272.283C425.847 272.419 425.655 272.611 425.518 272.858C425.385 273.105 425.318 273.395 425.318 273.727H424.312C424.312 273.216 424.43 272.767 424.666 272.381C424.902 271.994 425.223 271.693 425.629 271.477C426.038 271.261 426.497 271.153 427.006 271.153C427.517 271.153 427.97 271.261 428.365 271.477C428.76 271.693 429.07 271.984 429.294 272.351C429.518 272.717 429.631 273.125 429.631 273.574C429.631 273.895 429.572 274.209 429.456 274.516C429.342 274.82 429.143 275.159 428.859 275.534C428.578 275.906 428.188 276.361 427.688 276.898L425.727 278.994V279.062H429.784V280H424.278ZM431.544 280V279.233L434.425 276.08C434.763 275.71 435.041 275.389 435.26 275.116C435.479 274.841 435.641 274.582 435.746 274.341C435.854 274.097 435.908 273.841 435.908 273.574C435.908 273.267 435.834 273.001 435.686 272.777C435.541 272.553 435.342 272.379 435.089 272.257C434.837 272.135 434.553 272.074 434.237 272.074C433.902 272.074 433.609 272.143 433.359 272.283C433.112 272.419 432.92 272.611 432.784 272.858C432.651 273.105 432.584 273.395 432.584 273.727H431.578C431.578 273.216 431.696 272.767 431.932 272.381C432.168 271.994 432.489 271.693 432.895 271.477C433.304 271.261 433.763 271.153 434.271 271.153C434.783 271.153 435.236 271.261 435.631 271.477C436.026 271.693 436.335 271.984 436.56 272.351C436.784 272.717 436.896 273.125 436.896 273.574C436.896 273.895 436.838 274.209 436.722 274.516C436.608 274.82 436.409 275.159 436.125 275.534C435.844 275.906 435.453 276.361 434.953 276.898L432.993 278.994V279.062H437.05V280H431.544Z"
            fill="#979797" />
        <path
            d="M501.39 280V271.273H506.623V272.21H502.447V275.159H506.231V276.097H502.447V280H501.39ZM510.561 280.136C509.93 280.136 509.386 279.997 508.928 279.719C508.474 279.438 508.123 279.045 507.876 278.543C507.632 278.037 507.509 277.449 507.509 276.778C507.509 276.108 507.632 275.517 507.876 275.006C508.123 274.491 508.467 274.091 508.907 273.804C509.35 273.514 509.867 273.369 510.458 273.369C510.799 273.369 511.136 273.426 511.468 273.54C511.801 273.653 512.103 273.838 512.376 274.094C512.649 274.347 512.866 274.682 513.028 275.099C513.19 275.517 513.271 276.031 513.271 276.642V277.068H508.225V276.199H512.248C512.248 275.83 512.174 275.5 512.026 275.21C511.882 274.92 511.674 274.692 511.404 274.524C511.137 274.357 510.822 274.273 510.458 274.273C510.058 274.273 509.711 274.372 509.419 274.571C509.129 274.767 508.906 275.023 508.75 275.338C508.593 275.653 508.515 275.991 508.515 276.352V276.932C508.515 277.426 508.6 277.845 508.771 278.189C508.944 278.53 509.184 278.79 509.491 278.969C509.798 279.145 510.154 279.233 510.561 279.233C510.825 279.233 511.063 279.196 511.276 279.122C511.492 279.045 511.678 278.932 511.835 278.781C511.991 278.628 512.112 278.437 512.197 278.21L513.169 278.483C513.066 278.812 512.894 279.102 512.653 279.352C512.411 279.599 512.113 279.793 511.758 279.932C511.403 280.068 511.004 280.136 510.561 280.136ZM514.937 280V271.273H515.943V274.494H516.028C516.102 274.381 516.204 274.236 516.335 274.06C516.468 273.881 516.659 273.722 516.906 273.582C517.156 273.44 517.494 273.369 517.92 273.369C518.471 273.369 518.957 273.507 519.377 273.783C519.798 274.058 520.126 274.449 520.362 274.955C520.598 275.46 520.715 276.057 520.715 276.744C520.715 277.438 520.598 278.038 520.362 278.547C520.126 279.053 519.799 279.445 519.382 279.723C518.964 279.999 518.482 280.136 517.937 280.136C517.517 280.136 517.18 280.067 516.927 279.928C516.674 279.786 516.48 279.625 516.343 279.446C516.207 279.264 516.102 279.114 516.028 278.994H515.909V280H514.937ZM515.926 276.727C515.926 277.222 515.998 277.658 516.143 278.036C516.288 278.411 516.5 278.705 516.778 278.918C517.056 279.128 517.397 279.233 517.801 279.233C518.221 279.233 518.572 279.122 518.853 278.901C519.137 278.676 519.35 278.375 519.492 277.997C519.637 277.616 519.71 277.193 519.71 276.727C519.71 276.267 519.639 275.852 519.497 275.483C519.357 275.111 519.146 274.817 518.862 274.601C518.58 274.382 518.227 274.273 517.801 274.273C517.392 274.273 517.048 274.376 516.769 274.584C516.491 274.788 516.281 275.075 516.139 275.445C515.997 275.811 515.926 276.239 515.926 276.727ZM525.612 280V279.233L528.492 276.08C528.83 275.71 529.109 275.389 529.328 275.116C529.546 274.841 529.708 274.582 529.813 274.341C529.921 274.097 529.975 273.841 529.975 273.574C529.975 273.267 529.901 273.001 529.754 272.777C529.609 272.553 529.41 272.379 529.157 272.257C528.904 272.135 528.62 272.074 528.305 272.074C527.97 272.074 527.677 272.143 527.427 272.283C527.18 272.419 526.988 272.611 526.852 272.858C526.718 273.105 526.651 273.395 526.651 273.727H525.646C525.646 273.216 525.764 272.767 526 272.381C526.235 271.994 526.556 271.693 526.963 271.477C527.372 271.261 527.83 271.153 528.339 271.153C528.85 271.153 529.303 271.261 529.698 271.477C530.093 271.693 530.403 271.984 530.627 272.351C530.852 272.717 530.964 273.125 530.964 273.574C530.964 273.895 530.906 274.209 530.789 274.516C530.676 274.82 530.477 275.159 530.193 275.534C529.911 275.906 529.521 276.361 529.021 276.898L527.061 278.994V279.062H531.117V280H525.612ZM535.826 280.119C535.264 280.119 534.762 280.023 534.322 279.83C533.884 279.636 533.536 279.368 533.278 279.024C533.022 278.678 532.883 278.276 532.86 277.818H533.934C533.957 278.099 534.053 278.342 534.224 278.547C534.394 278.749 534.617 278.905 534.893 279.016C535.169 279.126 535.474 279.182 535.809 279.182C536.184 279.182 536.517 279.116 536.806 278.986C537.096 278.855 537.323 278.673 537.488 278.44C537.653 278.207 537.735 277.938 537.735 277.631C537.735 277.31 537.656 277.027 537.497 276.783C537.338 276.536 537.105 276.342 536.798 276.203C536.491 276.064 536.116 275.994 535.673 275.994H534.974V275.057H535.673C536.019 275.057 536.323 274.994 536.585 274.869C536.849 274.744 537.055 274.568 537.203 274.341C537.353 274.114 537.428 273.847 537.428 273.54C537.428 273.244 537.363 272.987 537.232 272.768C537.102 272.55 536.917 272.379 536.678 272.257C536.443 272.135 536.164 272.074 535.843 272.074C535.542 272.074 535.258 272.129 534.991 272.24C534.727 272.348 534.511 272.506 534.343 272.713C534.176 272.918 534.085 273.165 534.071 273.455H533.048C533.065 272.997 533.203 272.597 533.461 272.253C533.72 271.906 534.058 271.636 534.475 271.443C534.896 271.25 535.357 271.153 535.86 271.153C536.4 271.153 536.863 271.263 537.25 271.482C537.636 271.697 537.933 271.983 538.14 272.338C538.348 272.693 538.451 273.077 538.451 273.489C538.451 273.98 538.322 274.399 538.063 274.746C537.808 275.092 537.46 275.332 537.019 275.466V275.534C537.571 275.625 538.001 275.859 538.311 276.237C538.62 276.612 538.775 277.077 538.775 277.631C538.775 278.105 538.646 278.531 538.387 278.909C538.132 279.284 537.782 279.58 537.339 279.795C536.896 280.011 536.392 280.119 535.826 280.119Z"
            fill="#979797" />
        <path
            d="M603.723 280V271.273H608.956V272.21H604.78V275.159H608.564V276.097H604.78V280H603.723ZM612.894 280.136C612.263 280.136 611.719 279.997 611.262 279.719C610.807 279.438 610.456 279.045 610.209 278.543C609.965 278.037 609.843 277.449 609.843 276.778C609.843 276.108 609.965 275.517 610.209 275.006C610.456 274.491 610.8 274.091 611.24 273.804C611.684 273.514 612.201 273.369 612.792 273.369C613.133 273.369 613.469 273.426 613.802 273.54C614.134 273.653 614.437 273.838 614.709 274.094C614.982 274.347 615.199 274.682 615.361 275.099C615.523 275.517 615.604 276.031 615.604 276.642V277.068H610.559V276.199H614.581C614.581 275.83 614.508 275.5 614.36 275.21C614.215 274.92 614.008 274.692 613.738 274.524C613.471 274.357 613.155 274.273 612.792 274.273C612.391 274.273 612.044 274.372 611.752 274.571C611.462 274.767 611.239 275.023 611.083 275.338C610.927 275.653 610.848 275.991 610.848 276.352V276.932C610.848 277.426 610.934 277.845 611.104 278.189C611.277 278.53 611.517 278.79 611.824 278.969C612.131 279.145 612.488 279.233 612.894 279.233C613.158 279.233 613.397 279.196 613.61 279.122C613.826 279.045 614.012 278.932 614.168 278.781C614.324 278.628 614.445 278.437 614.53 278.21L615.502 278.483C615.4 278.812 615.228 279.102 614.986 279.352C614.745 279.599 614.446 279.793 614.091 279.932C613.736 280.068 613.337 280.136 612.894 280.136ZM617.27 280V271.273H618.276V274.494H618.361C618.435 274.381 618.537 274.236 618.668 274.06C618.802 273.881 618.992 273.722 619.239 273.582C619.489 273.44 619.827 273.369 620.253 273.369C620.804 273.369 621.29 273.507 621.711 273.783C622.131 274.058 622.459 274.449 622.695 274.955C622.931 275.46 623.049 276.057 623.049 276.744C623.049 277.438 622.931 278.038 622.695 278.547C622.459 279.053 622.133 279.445 621.715 279.723C621.297 279.999 620.816 280.136 620.27 280.136C619.85 280.136 619.513 280.067 619.26 279.928C619.008 279.786 618.813 279.625 618.677 279.446C618.54 279.264 618.435 279.114 618.361 278.994H618.242V280H617.27ZM618.259 276.727C618.259 277.222 618.331 277.658 618.476 278.036C618.621 278.411 618.833 278.705 619.111 278.918C619.39 279.128 619.731 279.233 620.134 279.233C620.554 279.233 620.905 279.122 621.187 278.901C621.471 278.676 621.684 278.375 621.826 277.997C621.971 277.616 622.043 277.193 622.043 276.727C622.043 276.267 621.972 275.852 621.83 275.483C621.691 275.111 621.479 274.817 621.195 274.601C620.914 274.382 620.56 274.273 620.134 274.273C619.725 274.273 619.381 274.376 619.103 274.584C618.824 274.788 618.614 275.075 618.472 275.445C618.33 275.811 618.259 276.239 618.259 276.727ZM627.945 280V279.233L630.826 276.08C631.164 275.71 631.442 275.389 631.661 275.116C631.88 274.841 632.042 274.582 632.147 274.341C632.255 274.097 632.309 273.841 632.309 273.574C632.309 273.267 632.235 273.001 632.087 272.777C631.942 272.553 631.743 272.379 631.49 272.257C631.238 272.135 630.954 272.074 630.638 272.074C630.303 272.074 630.01 272.143 629.76 272.283C629.513 272.419 629.321 272.611 629.185 272.858C629.052 273.105 628.985 273.395 628.985 273.727H627.979C627.979 273.216 628.097 272.767 628.333 272.381C628.569 271.994 628.89 271.693 629.296 271.477C629.705 271.261 630.164 271.153 630.672 271.153C631.184 271.153 631.637 271.261 632.032 271.477C632.427 271.693 632.736 271.984 632.961 272.351C633.185 272.717 633.297 273.125 633.297 273.574C633.297 273.895 633.239 274.209 633.123 274.516C633.009 274.82 632.81 275.159 632.526 275.534C632.245 275.906 631.854 276.361 631.354 276.898L629.394 278.994V279.062H633.451V280H627.945ZM634.819 278.21V277.341L638.654 271.273H639.285V272.619H638.858L635.961 277.205V277.273H641.125V278.21H634.819ZM638.927 280V277.946V277.541V271.273H639.932V280H638.927Z"
            fill="#979797" />
        <path
            d="M706.057 280V271.273H711.29V272.21H707.114V275.159H710.898V276.097H707.114V280H706.057ZM715.227 280.136C714.597 280.136 714.052 279.997 713.595 279.719C713.141 279.438 712.79 279.045 712.543 278.543C712.298 278.037 712.176 277.449 712.176 276.778C712.176 276.108 712.298 275.517 712.543 275.006C712.79 274.491 713.133 274.091 713.574 273.804C714.017 273.514 714.534 273.369 715.125 273.369C715.466 273.369 715.802 273.426 716.135 273.54C716.467 273.653 716.77 273.838 717.043 274.094C717.315 274.347 717.533 274.682 717.695 275.099C717.856 275.517 717.937 276.031 717.937 276.642V277.068H712.892V276.199H716.915C716.915 275.83 716.841 275.5 716.693 275.21C716.548 274.92 716.341 274.692 716.071 274.524C715.804 274.357 715.489 274.273 715.125 274.273C714.724 274.273 714.378 274.372 714.085 274.571C713.795 274.767 713.572 275.023 713.416 275.338C713.26 275.653 713.182 275.991 713.182 276.352V276.932C713.182 277.426 713.267 277.845 713.437 278.189C713.611 278.53 713.851 278.79 714.158 278.969C714.464 279.145 714.821 279.233 715.227 279.233C715.491 279.233 715.73 279.196 715.943 279.122C716.159 279.045 716.345 278.932 716.501 278.781C716.658 278.628 716.778 278.437 716.864 278.21L717.835 278.483C717.733 278.812 717.561 279.102 717.32 279.352C717.078 279.599 716.78 279.793 716.425 279.932C716.07 280.068 715.67 280.136 715.227 280.136ZM719.604 280V271.273H720.609V274.494H720.695C720.768 274.381 720.871 274.236 721.001 274.06C721.135 273.881 721.325 273.722 721.572 273.582C721.822 273.44 722.16 273.369 722.587 273.369C723.138 273.369 723.624 273.507 724.044 273.783C724.464 274.058 724.793 274.449 725.028 274.955C725.264 275.46 725.382 276.057 725.382 276.744C725.382 277.438 725.264 278.038 725.028 278.547C724.793 279.053 724.466 279.445 724.048 279.723C723.631 279.999 723.149 280.136 722.604 280.136C722.183 280.136 721.847 280.067 721.594 279.928C721.341 279.786 721.146 279.625 721.01 279.446C720.874 279.264 720.768 279.114 720.695 278.994H720.575V280H719.604ZM720.592 276.727C720.592 277.222 720.665 277.658 720.81 278.036C720.954 278.411 721.166 278.705 721.445 278.918C721.723 279.128 722.064 279.233 722.467 279.233C722.888 279.233 723.239 279.122 723.52 278.901C723.804 278.676 724.017 278.375 724.159 277.997C724.304 277.616 724.376 277.193 724.376 276.727C724.376 276.267 724.305 275.852 724.163 275.483C724.024 275.111 723.812 274.817 723.528 274.601C723.247 274.382 722.893 274.273 722.467 274.273C722.058 274.273 721.714 274.376 721.436 274.584C721.158 274.788 720.947 275.075 720.805 275.445C720.663 275.811 720.592 276.239 720.592 276.727ZM730.278 280V279.233L733.159 276.08C733.497 275.71 733.776 275.389 733.994 275.116C734.213 274.841 734.375 274.582 734.48 274.341C734.588 274.097 734.642 273.841 734.642 273.574C734.642 273.267 734.568 273.001 734.42 272.777C734.276 272.553 734.077 272.379 733.824 272.257C733.571 272.135 733.287 272.074 732.972 272.074C732.636 272.074 732.344 272.143 732.094 272.283C731.847 272.419 731.655 272.611 731.518 272.858C731.385 273.105 731.318 273.395 731.318 273.727H730.312C730.312 273.216 730.43 272.767 730.666 272.381C730.902 271.994 731.223 271.693 731.629 271.477C732.038 271.261 732.497 271.153 733.006 271.153C733.517 271.153 733.97 271.261 734.365 271.477C734.76 271.693 735.07 271.984 735.294 272.351C735.518 272.717 735.631 273.125 735.631 273.574C735.631 273.895 735.572 274.209 735.456 274.516C735.342 274.82 735.143 275.159 734.859 275.534C734.578 275.906 734.187 276.361 733.687 276.898L731.727 278.994V279.062H735.784V280H730.278ZM740.271 280.119C739.771 280.119 739.321 280.02 738.92 279.821C738.52 279.622 738.199 279.349 737.957 279.003C737.716 278.656 737.584 278.261 737.561 277.818H738.584C738.624 278.213 738.802 278.54 739.121 278.798C739.442 279.054 739.825 279.182 740.271 279.182C740.629 279.182 740.947 279.098 741.226 278.93C741.507 278.763 741.727 278.533 741.886 278.24C742.048 277.945 742.129 277.611 742.129 277.239C742.129 276.858 742.045 276.518 741.878 276.22C741.713 275.919 741.486 275.682 741.196 275.509C740.906 275.335 740.575 275.247 740.203 275.244C739.936 275.241 739.662 275.283 739.381 275.368C739.099 275.45 738.868 275.557 738.686 275.688L737.697 275.568L738.226 271.273H742.76V272.21H739.112L738.805 274.784H738.856C739.035 274.642 739.26 274.524 739.53 274.43C739.8 274.337 740.081 274.29 740.374 274.29C740.908 274.29 741.383 274.418 741.801 274.673C742.222 274.926 742.551 275.273 742.79 275.713C743.031 276.153 743.152 276.656 743.152 277.222C743.152 277.778 743.027 278.276 742.777 278.713C742.53 279.148 742.189 279.491 741.754 279.744C741.32 279.994 740.825 280.119 740.271 280.119Z"
            fill="#979797" />
        <path d="M113 243H212H315.5H414.5H510.5L617 186H724" stroke="#6984E3" stroke-width="2" stroke-linecap="round" />
        <path d="M113 243H212H315.5H414.5H510.5H617L725 243" stroke="#A966EC" stroke-width="2" stroke-linecap="round" />
        <path d="M114 242L211.5 186.5H412L522.5 128.5L621 128.5L720.5 13" stroke="#2D4493" stroke-width="2"
            stroke-linecap="round" />
        <path d="M114 242H211.5H412H522.5H621L722.5 186.5" stroke="#2F9461" stroke-width="2" stroke-linecap="round" />
        <path d="M114 243H211.5L322 186.5L412 187.5H522.5L622 130L720.5 72" stroke="#F34141" stroke-width="2"
            stroke-linecap="round" />
    </g>
    <defs>
        <clipPath id="clip0_5_17965">
            <rect width="767" height="296" rx="8" fill="white" />
        </clipPath>
    </defs>
</svg>