<svg width="291" height="236" viewBox="0 0 291 236" fill="none" xmlns="http://www.w3.org/2000/svg">
<g clip-path="url(#clip0_40_4562)">
<path d="M56.1548 52.6378C56.098 52.0649 55.8542 51.6198 55.4233 51.3026C54.9924 50.9853 54.4077 50.8267 53.669 50.8267C53.1671 50.8267 52.7434 50.8977 52.3977 51.0398C52.0521 51.1771 51.7869 51.3688 51.6023 51.6151C51.4223 51.8613 51.3324 52.1406 51.3324 52.4531C51.3229 52.7135 51.3774 52.9408 51.4957 53.1349C51.6188 53.3291 51.7869 53.4972 52 53.6392C52.2131 53.7765 52.4593 53.8973 52.7386 54.0014C53.018 54.1009 53.3163 54.1861 53.6335 54.2571L54.9403 54.5696C55.5748 54.7116 56.1572 54.901 56.6875 55.1378C57.2178 55.3745 57.6771 55.6657 58.0653 56.0114C58.4536 56.357 58.7543 56.7642 58.9673 57.233C59.1851 57.7017 59.2964 58.2391 59.3011 58.8452C59.2964 59.7353 59.0691 60.5071 58.6193 61.1605C58.1742 61.8092 57.5303 62.3134 56.6875 62.6733C55.8494 63.0284 54.8385 63.206 53.6548 63.206C52.4806 63.206 51.4579 63.026 50.5866 62.6662C49.7202 62.3063 49.0431 61.7737 48.5554 61.0682C48.0724 60.358 47.8191 59.4796 47.7955 58.4332H50.7713C50.8045 58.9209 50.9441 59.3281 51.1903 59.6548C51.4413 59.9768 51.7751 60.2206 52.1918 60.3864C52.6132 60.5473 53.089 60.6278 53.6193 60.6278C54.1402 60.6278 54.5923 60.5521 54.9759 60.4006C55.3641 60.2491 55.6648 60.0384 55.8778 59.7685C56.0909 59.4986 56.1974 59.1884 56.1974 58.8381C56.1974 58.5114 56.1004 58.2367 55.9062 58.0142C55.7169 57.7917 55.4375 57.6023 55.0682 57.446C54.7036 57.2898 54.2562 57.1477 53.7259 57.0199L52.142 56.6222C50.9157 56.3239 49.9474 55.8575 49.2372 55.223C48.527 54.5885 48.1742 53.7339 48.179 52.6591C48.1742 51.7784 48.4086 51.009 48.8821 50.3509C49.3603 49.6927 50.0161 49.179 50.8494 48.8097C51.6828 48.4403 52.6297 48.2557 53.6903 48.2557C54.7699 48.2557 55.7121 48.4403 56.517 48.8097C57.3267 49.179 57.9564 49.6927 58.4062 50.3509C58.8561 51.009 59.0881 51.7713 59.1023 52.6378H56.1548ZM66.2844 63.2131C65.1623 63.2131 64.1964 62.9858 63.3867 62.5312C62.5818 62.072 61.9615 61.4233 61.5259 60.5852C61.0903 59.7424 60.8725 58.7457 60.8725 57.5952C60.8725 56.473 61.0903 55.4882 61.5259 54.6406C61.9615 53.7931 62.5747 53.1326 63.3654 52.6591C64.1609 52.1856 65.0936 51.9489 66.1637 51.9489C66.8834 51.9489 67.5534 52.0649 68.1737 52.2969C68.7987 52.5241 69.3432 52.8674 69.8072 53.3267C70.2759 53.786 70.6405 54.3636 70.9009 55.0597C71.1613 55.7509 71.2915 56.5606 71.2915 57.4886V58.3196H62.0799V56.4446H68.4435C68.4435 56.009 68.3488 55.6231 68.1594 55.2869C67.9701 54.9508 67.7073 54.688 67.3711 54.4986C67.0397 54.3045 66.6538 54.2074 66.2134 54.2074C65.7541 54.2074 65.3469 54.3139 64.9918 54.527C64.6415 54.7353 64.3668 55.017 64.168 55.3722C63.9691 55.7225 63.8673 56.1132 63.8626 56.544V58.3267C63.8626 58.8665 63.962 59.3329 64.1609 59.7259C64.3645 60.1188 64.6509 60.4219 65.0202 60.6349C65.3896 60.848 65.8275 60.9545 66.3342 60.9545C66.6703 60.9545 66.9781 60.9072 67.2575 60.8125C67.5368 60.7178 67.7759 60.5758 67.9748 60.3864C68.1737 60.197 68.3252 59.965 68.4293 59.6903L71.2276 59.875C71.0856 60.5473 70.7944 61.1345 70.354 61.6364C69.9184 62.1335 69.355 62.5218 68.6637 62.8011C67.9772 63.0758 67.1841 63.2131 66.2844 63.2131ZM76.2915 56.6932V63H73.266V52.0909H76.1495V54.0156H76.2773C76.5188 53.3812 76.9237 52.8793 77.4918 52.5099C78.06 52.1359 78.7489 51.9489 79.5586 51.9489C80.3162 51.9489 80.9767 52.1146 81.5401 52.446C82.1036 52.7775 82.5415 53.2509 82.854 53.8665C83.1665 54.4773 83.3228 55.2064 83.3228 56.054V63H80.2972V56.5938C80.302 55.9261 80.1315 55.4053 79.7859 55.0312C79.4402 54.6525 78.9644 54.4631 78.3583 54.4631C77.9511 54.4631 77.5913 54.5507 77.2788 54.7259C76.971 54.901 76.7295 55.1567 76.5543 55.4929C76.3839 55.8243 76.2963 56.2244 76.2915 56.6932ZM91.5099 52.0909V54.3636H84.9403V52.0909H91.5099ZM86.4318 49.4773H89.4574V59.6477C89.4574 59.9271 89.5 60.1449 89.5852 60.3011C89.6705 60.4527 89.7888 60.5592 89.9403 60.6207C90.0966 60.6823 90.2765 60.7131 90.4801 60.7131C90.6222 60.7131 90.7642 60.7012 90.9062 60.6776C91.0483 60.6491 91.1572 60.6278 91.233 60.6136L91.7088 62.8651C91.5573 62.9124 91.3442 62.9669 91.0696 63.0284C90.795 63.0947 90.4612 63.1349 90.0682 63.1491C89.339 63.1776 88.6998 63.0805 88.1506 62.858C87.6061 62.6354 87.1823 62.2898 86.8793 61.821C86.5762 61.3523 86.4271 60.7604 86.4318 60.0455V49.4773ZM93.4808 63V52.0909H96.5064V63H93.4808ZM95.0007 50.6847C94.5509 50.6847 94.165 50.5355 93.843 50.2372C93.5258 49.9342 93.3672 49.572 93.3672 49.1506C93.3672 48.7339 93.5258 48.3764 93.843 48.0781C94.165 47.7751 94.5509 47.6236 95.0007 47.6236C95.4505 47.6236 95.834 47.7751 96.1513 48.0781C96.4732 48.3764 96.6342 48.7339 96.6342 49.1506C96.6342 49.572 96.4732 49.9342 96.1513 50.2372C95.834 50.5355 95.4505 50.6847 95.0007 50.6847ZM115.847 60.884L112.627 63.391L110.442 62.471L111.776 54.858C111.914 53.984 111.615 53.616 111.086 53.616C110.672 53.616 110.304 53.869 109.706 54.306L108.993 54.812L107.521 63H104.462L105.911 54.858C106.072 53.984 105.75 53.616 105.244 53.616C104.83 53.616 104.439 53.869 103.841 54.306L103.128 54.812L101.679 63H98.6427L100.345 53.271L98.5047 53.892L98.3897 53.593L103.197 51.776L103.611 52.121L103.197 54.421L106.647 51.753C108.556 51.753 109.246 52.581 109.039 54.421L112.512 51.753C114.513 51.753 115.203 52.719 114.881 54.628L113.547 62.126L115.64 60.631L115.847 60.884ZM122.307 50.074L121.456 50.258L119.34 50.074L119.409 48.602L119.938 47.199L120.881 47.038L122.813 47.199V48.786L122.307 50.074ZM122.468 60.884L119.248 63.391L117.04 62.471L118.673 53.271L116.81 53.892L116.718 53.593L121.525 51.776L121.939 52.121L120.145 62.149L122.261 60.631L122.468 60.884ZM135.254 60.884L132.034 63.391L129.826 62.471L131.183 54.927C131.344 54.03 130.976 53.616 130.378 53.616C129.918 53.616 129.458 53.869 128.745 54.352L128.262 54.697L126.79 63H123.754L125.456 53.271L123.616 53.892L123.501 53.593L128.308 51.776L128.722 52.121L128.331 54.26L131.85 51.753C133.897 51.753 134.61 52.719 134.288 54.628L132.931 62.126L135.047 60.631L135.254 60.884ZM142.38 60.976L138.493 63.391L136.285 62.471L138.033 52.742H136.584L136.676 52.351H138.079L138.263 51.385L141.161 49.062H141.69L141.115 52.351H143.392L143.323 52.742H141.046L139.367 62.241L142.219 60.7L142.38 60.976Z" fill="#24292E"/>
<path d="M153.291 62V48.9091H158.303C159.249 48.9091 160.035 49.0582 160.661 49.3565C161.292 49.6506 161.763 50.0533 162.074 50.5646C162.389 51.076 162.547 51.6555 162.547 52.3033C162.547 52.8359 162.445 53.2919 162.24 53.6712C162.036 54.0462 161.761 54.3509 161.415 54.5852C161.07 54.8196 160.685 54.9879 160.259 55.0902V55.218C160.723 55.2436 161.168 55.3864 161.594 55.6463C162.025 55.902 162.376 56.2642 162.649 56.733C162.922 57.2017 163.058 57.7685 163.058 58.4332C163.058 59.1108 162.894 59.7202 162.566 60.2614C162.238 60.7983 161.744 61.2223 161.083 61.5334C160.423 61.8445 159.592 62 158.59 62H153.291ZM155.663 60.0185H158.213C159.074 60.0185 159.694 59.8544 160.073 59.5263C160.457 59.1939 160.648 58.7678 160.648 58.2479C160.648 57.8601 160.553 57.5107 160.361 57.1996C160.169 56.8842 159.896 56.6371 159.543 56.4581C159.189 56.2749 158.767 56.1832 158.277 56.1832H155.663V60.0185ZM155.663 54.4766H158.009C158.418 54.4766 158.786 54.402 159.114 54.2528C159.442 54.0994 159.7 53.8842 159.888 53.6072C160.08 53.326 160.175 52.9936 160.175 52.6101C160.175 52.103 159.996 51.6854 159.638 51.3572C159.285 51.0291 158.759 50.8651 158.06 50.8651H155.663V54.4766ZM165.121 62V48.9091H167.493V60.0121H173.258V62H165.121ZM186.504 55.4545C186.504 56.8651 186.24 58.0732 185.712 59.0788C185.188 60.0803 184.472 60.8473 183.564 61.38C182.661 61.9126 181.636 62.179 180.489 62.179C179.343 62.179 178.316 61.9126 177.408 61.38C176.505 60.843 175.789 60.0739 175.261 59.0724C174.737 58.0668 174.474 56.8608 174.474 55.4545C174.474 54.044 174.737 52.8381 175.261 51.8366C175.789 50.831 176.505 50.0618 177.408 49.5291C178.316 48.9964 179.343 48.7301 180.489 48.7301C181.636 48.7301 182.661 48.9964 183.564 49.5291C184.472 50.0618 185.188 50.831 185.712 51.8366C186.24 52.8381 186.504 54.044 186.504 55.4545ZM184.12 55.4545C184.12 54.4616 183.964 53.6243 183.653 52.9425C183.347 52.2564 182.92 51.7386 182.375 51.3892C181.83 51.0355 181.201 50.8587 180.489 50.8587C179.778 50.8587 179.149 51.0355 178.604 51.3892C178.058 51.7386 177.63 52.2564 177.319 52.9425C177.012 53.6243 176.859 54.4616 176.859 55.4545C176.859 56.4474 177.012 57.2869 177.319 57.973C177.63 58.6548 178.058 59.1726 178.604 59.5263C179.149 59.8757 179.778 60.0504 180.489 60.0504C181.201 60.0504 181.83 59.8757 182.375 59.5263C182.92 59.1726 183.347 58.6548 183.653 57.973C183.964 57.2869 184.12 56.4474 184.12 55.4545ZM197.516 53.0895C197.41 52.7443 197.263 52.4354 197.075 52.1626C196.892 51.8857 196.67 51.6491 196.41 51.4531C196.155 51.2571 195.861 51.1101 195.528 51.0121C195.196 50.9098 194.834 50.8587 194.442 50.8587C193.738 50.8587 193.112 51.0355 192.562 51.3892C192.013 51.7429 191.58 52.2628 191.265 52.9489C190.954 53.6307 190.798 54.4616 190.798 55.4418C190.798 56.4304 190.954 57.2678 191.265 57.9538C191.576 58.6399 192.008 59.1619 192.562 59.5199C193.116 59.8736 193.76 60.0504 194.493 60.0504C195.157 60.0504 195.733 59.9226 196.219 59.6669C196.709 59.4112 197.086 59.049 197.35 58.5803C197.614 58.1072 197.746 57.5533 197.746 56.9183L198.283 57.0014H194.729V55.1477H200.041V56.7202C200.041 57.8409 199.802 58.8104 199.325 59.6286C198.848 60.4467 198.192 61.0774 197.356 61.5206C196.521 61.9595 195.562 62.179 194.48 62.179C193.274 62.179 192.215 61.9084 191.303 61.3672C190.395 60.8217 189.686 60.0483 189.175 59.0469C188.667 58.0412 188.414 56.848 188.414 55.4673C188.414 54.4105 188.563 53.4666 188.861 52.6357C189.164 51.8047 189.586 51.0994 190.127 50.5199C190.668 49.9361 191.303 49.4929 192.032 49.1903C192.76 48.8835 193.553 48.7301 194.41 48.7301C195.134 48.7301 195.809 48.8366 196.436 49.0497C197.062 49.2585 197.618 49.5568 198.104 49.9446C198.594 50.3324 198.997 50.7926 199.312 51.3253C199.628 51.858 199.834 52.446 199.932 53.0895H197.516ZM209.449 52.5078C209.389 51.9496 209.137 51.5149 208.694 51.2038C208.255 50.8928 207.684 50.7372 206.981 50.7372C206.487 50.7372 206.063 50.8118 205.709 50.9609C205.355 51.1101 205.085 51.3125 204.897 51.5682C204.71 51.8239 204.614 52.1158 204.61 52.4439C204.61 52.7166 204.672 52.9531 204.795 53.1534C204.923 53.3537 205.096 53.5241 205.313 53.6648C205.53 53.8011 205.771 53.9162 206.035 54.0099C206.299 54.1037 206.566 54.1825 206.834 54.2464L208.061 54.5533C208.556 54.6683 209.031 54.8239 209.487 55.0199C209.947 55.2159 210.358 55.4631 210.721 55.7614C211.087 56.0597 211.377 56.4197 211.59 56.8416C211.803 57.2635 211.909 57.7578 211.909 58.3246C211.909 59.0916 211.713 59.767 211.321 60.3509C210.929 60.9304 210.363 61.3842 209.621 61.7124C208.884 62.0362 207.991 62.1982 206.943 62.1982C205.924 62.1982 205.04 62.0405 204.29 61.7251C203.544 61.4098 202.961 60.9496 202.539 60.3445C202.121 59.7393 201.895 59.0021 201.861 58.1328H204.194C204.228 58.5888 204.369 58.968 204.616 59.2706C204.863 59.5732 205.185 59.799 205.581 59.9482C205.982 60.0973 206.429 60.1719 206.924 60.1719C207.439 60.1719 207.891 60.0952 208.279 59.9418C208.671 59.7841 208.978 59.5668 209.199 59.2898C209.421 59.0085 209.534 58.6804 209.538 58.3054C209.534 57.9645 209.434 57.6832 209.238 57.4616C209.042 57.2358 208.767 57.0483 208.413 56.8991C208.064 56.7457 207.654 56.6094 207.186 56.4901L205.696 56.1065C204.618 55.8295 203.766 55.4098 203.14 54.8473C202.517 54.2805 202.206 53.5284 202.206 52.5909C202.206 51.8196 202.415 51.1442 202.833 50.5646C203.255 49.9851 203.828 49.5355 204.552 49.2159C205.277 48.892 206.097 48.7301 207.013 48.7301C207.942 48.7301 208.756 48.892 209.455 49.2159C210.158 49.5355 210.71 49.9808 211.11 50.5518C211.511 51.1186 211.718 51.7706 211.73 52.5078H209.449Z" fill="#53B483"/>
<path d="M243.691 51.0552L242.391 50.4372C244.615 46.6682 244.634 44.3672 244.634 44.3672C242.632 44.0678 240.591 44.1568 238.623 44.6292L239.618 43.2592C238.066 43.0541 236.488 43.2383 235.025 43.7952C233.562 44.3521 232.26 45.2641 231.238 46.4492L231.684 44.4292C229.683 45.0212 227.958 46.3063 226.818 48.0542L226.718 46.7092C225.767 47.4721 224.977 48.4155 224.392 49.485C223.807 50.5545 223.439 51.7291 223.31 52.9412L222.725 50.5242C222.725 50.5242 218.73 56.6932 222.9 62.7042C223.624 61.4224 224.438 60.1933 225.336 59.0262C225.088 56.5513 225.173 54.0544 225.589 51.6022C225.606 53.7645 225.774 55.9229 226.089 58.0622C226.912 57.0377 227.786 56.0551 228.708 55.1182C228.629 52.8583 228.833 50.5975 229.315 48.3882C229.19 50.4021 229.219 52.4226 229.402 54.4322C230.279 53.5848 231.199 52.7838 232.16 52.0322C232.442 50.1803 232.97 48.3745 233.732 46.6632C233.323 48.2482 233.036 49.8623 232.875 51.4912C234.577 50.2259 236.412 49.149 238.347 48.2792C236.518 49.2671 234.832 50.4991 233.335 51.9412C234.98 52.0729 236.633 52.0772 238.279 51.9542C236.454 52.4032 234.578 52.605 232.7 52.5542C231.74 53.4982 230.835 54.4912 230 55.4802C232.252 55.4599 234.498 55.2559 236.717 54.8702C234.332 55.6733 231.849 56.15 229.337 56.2872C228.537 57.2872 227.807 58.2582 227.177 59.1482C229.432 59.2353 231.691 59.1625 233.936 58.9302C231.544 59.6172 229.071 59.9801 226.583 60.0092C225.368 61.7882 223.018 65.6742 222.369 66.8222H223.98C224.554 65.6872 225.146 64.6222 225.742 63.5932C229.712 64.4105 233.844 63.6455 237.258 61.4612L235.17 60.2852C238.17 59.9442 241.459 56.4342 241.459 56.4342L239.87 56.3702C241.463 54.8512 242.758 53.0488 243.691 51.0552Z" fill="#53B483"/>
<g filter="url(#filter0_d_40_4562)">
<rect x="47.8169" y="85" width="196" height="161" rx="8" fill="white"/>
</g>
<rect x="62" y="106" width="63" height="10" rx="4" fill="#E5E7EA"/>
<rect x="62" y="140" width="159" height="10" rx="4" fill="#E5E7EA"/>
<rect x="62" y="158" width="143" height="10" rx="4" fill="#E5E7EA"/>
<rect x="62" y="176" width="151" height="10" rx="4" fill="#E5E7EA"/>
<rect x="62" y="210" width="151" height="10" rx="4" fill="#E5E7EA"/>
<rect x="62" y="228" width="95" height="10" rx="4" fill="#E5E7EA"/>
</g>
<defs>
<filter id="filter0_d_40_4562" x="35.8169" y="77" width="220" height="185" filterUnits="userSpaceOnUse" color-interpolation-filters="sRGB">
<feFlood flood-opacity="0" result="BackgroundImageFix"/>
<feColorMatrix in="SourceAlpha" type="matrix" values="0 0 0 0 0 0 0 0 0 0 0 0 0 0 0 0 0 0 127 0" result="hardAlpha"/>
<feOffset dy="4"/>
<feGaussianBlur stdDeviation="6"/>
<feComposite in2="hardAlpha" operator="out"/>
<feColorMatrix type="matrix" values="0 0 0 0 0 0 0 0 0 0 0 0 0 0 0 0 0 0 0.12 0"/>
<feBlend mode="normal" in2="BackgroundImageFix" result="effect1_dropShadow_40_4562"/>
<feBlend mode="normal" in="SourceGraphic" in2="effect1_dropShadow_40_4562" result="shape"/>
</filter>
<clipPath id="clip0_40_4562">
<rect width="291" height="236" fill="white"/>
</clipPath>
</defs>
</svg>
