<svg width="61" height="60" viewBox="0 0 61 60" fill="none" xmlns="http://www.w3.org/2000/svg">
<path d="M60.5 30C60.5 46.5685 47.0685 60 30.5 60C13.9315 60 0.5 46.5685 0.5 30C0.5 13.4315 13.9315 0 30.5 0C47.0685 0 60.5 13.4315 60.5 30ZM10.4638 30C10.4638 41.0657 19.4343 50.0362 30.5 50.0362C41.5657 50.0362 50.5362 41.0657 50.5362 30C50.5362 18.9343 41.5657 9.96376 30.5 9.96376C19.4343 9.96376 10.4638 18.9343 10.4638 30Z" fill="#F6F7F9"/>
<path d="M30.5 0C35.406 5.85029e-08 40.2371 1.20316 44.57 3.50405C48.9029 5.80494 52.6055 9.13335 55.3532 13.1976C58.1009 17.2619 59.81 21.9381 60.3306 26.8163C60.8512 31.6946 60.1676 36.6261 58.3395 41.1787L49.0933 37.466C50.3142 34.4254 50.7708 31.1318 50.4231 27.8737C50.0754 24.6156 48.9339 21.4926 47.0988 18.7781C45.2637 16.0637 42.7908 13.8407 39.897 12.304C37.0031 10.7673 33.7766 9.96376 30.5 9.96376V0Z" fill="#F34141"/>
<path d="M23.8622 34.1193C23.277 34.1193 22.7543 34.0185 22.294 33.8168C21.8366 33.6151 21.4744 33.3352 21.2074 32.9773C20.9432 32.6165 20.8011 32.1989 20.7812 31.7244H22.1193C22.1364 31.983 22.223 32.2074 22.3793 32.3977C22.5384 32.5852 22.7457 32.7301 23.0014 32.8324C23.2571 32.9347 23.5412 32.9858 23.8537 32.9858C24.1974 32.9858 24.5014 32.9261 24.7656 32.8068C25.0327 32.6875 25.2415 32.5213 25.392 32.3082C25.5426 32.0923 25.6179 31.8438 25.6179 31.5625C25.6179 31.2699 25.5426 31.0128 25.392 30.7912C25.2443 30.5668 25.027 30.3906 24.7401 30.2628C24.456 30.1349 24.1122 30.071 23.7088 30.071H22.9716V28.9972H23.7088C24.0327 28.9972 24.3168 28.9389 24.5611 28.8224C24.8082 28.706 25.0014 28.544 25.1406 28.3366C25.2798 28.1264 25.3494 27.8807 25.3494 27.5994C25.3494 27.3295 25.2884 27.0952 25.1662 26.8963C25.0469 26.6946 24.8764 26.5369 24.6548 26.4233C24.4361 26.3097 24.1776 26.2528 23.8793 26.2528C23.5952 26.2528 23.3295 26.3054 23.0824 26.4105C22.8381 26.5128 22.6392 26.6605 22.4858 26.8537C22.3324 27.044 22.25 27.2727 22.2386 27.5398H20.9645C20.9787 27.0682 21.1179 26.6534 21.3821 26.2955C21.6491 25.9375 22.0014 25.6577 22.4389 25.456C22.8764 25.2543 23.3622 25.1534 23.8963 25.1534C24.456 25.1534 24.9389 25.2628 25.3452 25.4815C25.7543 25.6974 26.0696 25.9858 26.2912 26.3466C26.5156 26.7074 26.6264 27.1023 26.6236 27.5312C26.6264 28.0199 26.4901 28.4347 26.2145 28.7756C25.9418 29.1165 25.5781 29.3452 25.1236 29.4616V29.5298C25.7031 29.6179 26.152 29.848 26.4702 30.2202C26.7912 30.5923 26.9503 31.054 26.9474 31.6051C26.9503 32.0852 26.8168 32.5156 26.5469 32.8963C26.2798 33.277 25.9148 33.5767 25.4517 33.7955C24.9886 34.0114 24.4588 34.1193 23.8622 34.1193ZM28.5582 34V33.0455L31.5114 29.9858C31.8267 29.6534 32.0866 29.3622 32.2912 29.1122C32.4986 28.8594 32.6534 28.6193 32.7557 28.392C32.858 28.1648 32.9091 27.9233 32.9091 27.6676C32.9091 27.3778 32.8409 27.1278 32.7045 26.9176C32.5682 26.7045 32.3821 26.5412 32.1463 26.4276C31.9105 26.3111 31.6449 26.2528 31.3494 26.2528C31.0369 26.2528 30.7642 26.3168 30.5312 26.4446C30.2983 26.5724 30.1193 26.7528 29.9943 26.9858C29.8693 27.2187 29.8068 27.4915 29.8068 27.804H28.5497C28.5497 27.2727 28.6719 26.8082 28.9162 26.4105C29.1605 26.0128 29.4957 25.7045 29.9219 25.4858C30.348 25.2642 30.8324 25.1534 31.375 25.1534C31.9233 25.1534 32.4063 25.2628 32.8239 25.4815C33.2443 25.6974 33.5724 25.9929 33.8082 26.3679C34.044 26.7401 34.1619 27.1605 34.1619 27.6293C34.1619 27.9531 34.1009 28.2699 33.9787 28.5795C33.8594 28.8892 33.6506 29.2344 33.3523 29.6151C33.054 29.9929 32.6392 30.4517 32.108 30.9915L30.3736 32.8068V32.8707H34.3026V34H28.5582ZM40.473 32.3636V31.9034C40.473 31.5739 40.5412 31.2727 40.6776 31C40.8168 30.7244 41.0185 30.5043 41.2827 30.3395C41.5497 30.1719 41.8722 30.0881 42.25 30.0881C42.6364 30.0881 42.9602 30.1705 43.2216 30.3352C43.483 30.5 43.6804 30.7202 43.8139 30.9957C43.9503 31.2713 44.0185 31.5739 44.0185 31.9034V32.3636C44.0185 32.6932 43.9503 32.9957 43.8139 33.2713C43.6776 33.544 43.4773 33.7642 43.2131 33.9318C42.9517 34.0966 42.6307 34.179 42.25 34.179C41.8665 34.179 41.5426 34.0966 41.2784 33.9318C41.0142 33.7642 40.8139 33.544 40.6776 33.2713C40.5412 32.9957 40.473 32.6932 40.473 32.3636ZM41.4659 31.9034V32.3636C41.4659 32.608 41.5241 32.8295 41.6406 33.0284C41.7571 33.2273 41.9602 33.3267 42.25 33.3267C42.5369 33.3267 42.7372 33.2273 42.8509 33.0284C42.9645 32.8295 43.0213 32.608 43.0213 32.3636V31.9034C43.0213 31.6591 42.9659 31.4375 42.8551 31.2386C42.7472 31.0398 42.5455 30.9403 42.25 30.9403C41.9659 30.9403 41.7642 31.0398 41.6449 31.2386C41.5256 31.4375 41.4659 31.6591 41.4659 31.9034ZM36.0838 27.3693V26.9091C36.0838 26.5795 36.152 26.277 36.2884 26.0014C36.4276 25.7259 36.6293 25.5057 36.8935 25.3409C37.1605 25.1761 37.483 25.0938 37.8608 25.0938C38.2472 25.0938 38.571 25.1761 38.8324 25.3409C39.0938 25.5057 39.2912 25.7259 39.4247 26.0014C39.5582 26.277 39.625 26.5795 39.625 26.9091V27.3693C39.625 27.6989 39.5568 28.0014 39.4205 28.277C39.2869 28.5497 39.0881 28.7699 38.8239 28.9375C38.5625 29.1023 38.2415 29.1847 37.8608 29.1847C37.4744 29.1847 37.1491 29.1023 36.8849 28.9375C36.6236 28.7699 36.4247 28.5497 36.2884 28.277C36.152 28.0014 36.0838 27.6989 36.0838 27.3693ZM37.081 26.9091V27.3693C37.081 27.6136 37.1378 27.8352 37.2514 28.0341C37.3679 28.233 37.571 28.3324 37.8608 28.3324C38.1449 28.3324 38.3438 28.233 38.4574 28.0341C38.5739 27.8352 38.6321 27.6136 38.6321 27.3693V26.9091C38.6321 26.6648 38.5767 26.4432 38.4659 26.2443C38.3551 26.0455 38.1534 25.946 37.8608 25.946C37.5767 25.946 37.375 26.0455 37.2557 26.2443C37.1392 26.4432 37.081 26.6648 37.081 26.9091ZM36.4886 34L42.4886 25.2727H43.5071L37.5071 34H36.4886Z" fill="#A32E2E"/>
</svg>
