<svg width="61" height="60" viewBox="0 0 61 60" fill="none" xmlns="http://www.w3.org/2000/svg">
<path d="M60.5 30C60.5 46.5685 47.0685 60 30.5 60C13.9315 60 0.5 46.5685 0.5 30C0.5 13.4315 13.9315 0 30.5 0C47.0685 0 60.5 13.4315 60.5 30ZM10.4638 30C10.4638 41.0657 19.4343 50.0362 30.5 50.0362C41.5657 50.0362 50.5362 41.0657 50.5362 30C50.5362 18.9343 41.5657 9.96376 30.5 9.96376C19.4343 9.96376 10.4638 18.9343 10.4638 30Z" fill="#F6F7F9"/>
<path d="M30.5 0C36.8937 7.6244e-08 43.1202 2.0427 48.2713 5.83017C53.4225 9.61764 57.2288 14.9518 59.1353 21.0546C61.0418 27.1575 60.9486 33.7098 58.8694 39.7559C56.7902 45.8021 52.8337 51.0259 47.5769 54.6653L41.9052 46.4734C45.4161 44.0426 48.0585 40.5538 49.4472 36.5157C50.8358 32.4777 50.8981 28.1015 49.6248 24.0256C48.3515 19.9497 45.8093 16.3871 42.369 13.8576C38.9287 11.328 34.7702 9.96376 30.5 9.96376V0Z" fill="#E9A23B"/>
<path d="M20.3887 32.2955V31.2301L24.16 25.2727H24.9995V26.8409H24.4668L21.7694 31.1108V31.179H26.9384V32.2955H20.3887ZM24.5265 34V31.9716L24.535 31.4858V25.2727H25.7836V34H24.5265ZM31.4618 34.1449C30.7885 34.142 30.2132 33.9645 29.736 33.6122C29.2587 33.2599 28.8936 32.7472 28.6408 32.0739C28.388 31.4006 28.2615 30.5895 28.2615 29.6406C28.2615 28.6946 28.388 27.8864 28.6408 27.2159C28.8965 26.5455 29.263 26.0341 29.7402 25.6818C30.2203 25.3295 30.7942 25.1534 31.4618 25.1534C32.1294 25.1534 32.7019 25.331 33.1792 25.6861C33.6564 26.0384 34.0215 26.5497 34.2743 27.2202C34.53 27.8878 34.6578 28.6946 34.6578 29.6406C34.6578 30.5923 34.5314 31.4048 34.2786 32.0781C34.0257 32.7486 33.6607 33.2614 33.1834 33.6165C32.7061 33.9688 32.1323 34.1449 31.4618 34.1449ZM31.4618 33.0071C32.0527 33.0071 32.5144 32.7188 32.8468 32.142C33.182 31.5653 33.3496 30.7315 33.3496 29.6406C33.3496 28.9162 33.2729 28.304 33.1195 27.804C32.9689 27.3011 32.7516 26.9205 32.4675 26.6619C32.1863 26.4006 31.851 26.2699 31.4618 26.2699C30.8738 26.2699 30.4121 26.5597 30.0769 27.1392C29.7417 27.7187 29.5726 28.5526 29.5698 29.6406C29.5698 30.3679 29.6451 30.983 29.7956 31.4858C29.949 31.9858 30.1664 32.3651 30.4476 32.6236C30.7289 32.8793 31.0669 33.0071 31.4618 33.0071ZM40.725 32.3636V31.9034C40.725 31.5739 40.7931 31.2727 40.9295 31C41.0687 30.7244 41.2704 30.5043 41.5346 30.3395C41.8017 30.1719 42.1241 30.0881 42.502 30.0881C42.8883 30.0881 43.2122 30.1705 43.4735 30.3352C43.7349 30.5 43.9324 30.7202 44.0659 30.9957C44.2022 31.2713 44.2704 31.5739 44.2704 31.9034V32.3636C44.2704 32.6932 44.2022 32.9957 44.0659 33.2713C43.9295 33.544 43.7292 33.7642 43.465 33.9318C43.2037 34.0966 42.8826 34.179 42.502 34.179C42.1184 34.179 41.7946 34.0966 41.5304 33.9318C41.2662 33.7642 41.0659 33.544 40.9295 33.2713C40.7931 32.9957 40.725 32.6932 40.725 32.3636ZM41.7179 31.9034V32.3636C41.7179 32.608 41.7761 32.8295 41.8926 33.0284C42.0091 33.2273 42.2122 33.3267 42.502 33.3267C42.7889 33.3267 42.9892 33.2273 43.1028 33.0284C43.2164 32.8295 43.2733 32.608 43.2733 32.3636V31.9034C43.2733 31.6591 43.2179 31.4375 43.1071 31.2386C42.9991 31.0398 42.7974 30.9403 42.502 30.9403C42.2179 30.9403 42.0162 31.0398 41.8968 31.2386C41.7775 31.4375 41.7179 31.6591 41.7179 31.9034ZM36.3358 27.3693V26.9091C36.3358 26.5795 36.4039 26.277 36.5403 26.0014C36.6795 25.7259 36.8812 25.5057 37.1454 25.3409C37.4125 25.1761 37.7349 25.0938 38.1127 25.0938C38.4991 25.0938 38.823 25.1761 39.0843 25.3409C39.3457 25.5057 39.5431 25.7259 39.6767 26.0014C39.8102 26.277 39.877 26.5795 39.877 26.9091V27.3693C39.877 27.6989 39.8088 28.0014 39.6724 28.277C39.5389 28.5497 39.34 28.7699 39.0758 28.9375C38.8145 29.1023 38.4934 29.1847 38.1127 29.1847C37.7264 29.1847 37.4011 29.1023 37.1369 28.9375C36.8755 28.7699 36.6767 28.5497 36.5403 28.277C36.4039 28.0014 36.3358 27.6989 36.3358 27.3693ZM37.3329 26.9091V27.3693C37.3329 27.6136 37.3897 27.8352 37.5034 28.0341C37.6199 28.233 37.823 28.3324 38.1127 28.3324C38.3968 28.3324 38.5957 28.233 38.7093 28.0341C38.8258 27.8352 38.8841 27.6136 38.8841 27.3693V26.9091C38.8841 26.6648 38.8287 26.4432 38.7179 26.2443C38.6071 26.0455 38.4054 25.946 38.1127 25.946C37.8287 25.946 37.627 26.0455 37.5076 26.2443C37.3912 26.4432 37.3329 26.6648 37.3329 26.9091ZM36.7406 34L42.7406 25.2727H43.7591L37.7591 34H36.7406Z" fill="#C8811A"/>
</svg>
