<svg width="60" height="60" viewBox="0 0 60 60" fill="none" xmlns="http://www.w3.org/2000/svg">
<path d="M60 30C60 46.5685 46.5685 60 30 60C13.4315 60 0 46.5685 0 30C0 13.4315 13.4315 0 30 0C46.5685 0 60 13.4315 60 30ZM9.96376 30C9.96376 41.0657 18.9343 50.0362 30 50.0362C41.0657 50.0362 50.0362 41.0657 50.0362 30C50.0362 18.9343 41.0657 9.96376 30 9.96376C18.9343 9.96376 9.96376 18.9343 9.96376 30Z" fill="#F6F7F9"/>
<path d="M30 0C35.1007 6.08253e-08 40.1172 1.30053 44.5754 3.7787C49.0337 6.25686 52.7864 9.83083 55.4791 14.1629C58.1718 18.4949 59.7155 23.442 59.9643 28.5366C60.2131 33.6313 59.1588 38.7052 56.9011 43.279C54.6433 47.8529 51.2567 51.7755 47.0611 54.6763C42.8656 57.5771 37.9997 59.3602 32.9232 59.8572C27.8468 60.3543 22.7275 59.5487 18.049 57.5168C13.3705 55.4848 9.2873 52.2935 6.18531 48.2445L14.0948 42.185C16.1665 44.8893 18.8935 47.0207 22.0182 48.3778C25.1429 49.7348 28.5619 50.2728 31.9524 49.9409C35.3428 49.6089 38.5926 48.418 41.3947 46.4807C44.1968 44.5433 46.4586 41.9235 47.9665 38.8687C49.4744 35.814 50.1786 32.4252 50.0124 29.0227C49.8462 25.6201 48.8152 22.3161 47.0169 19.4228C45.2185 16.5295 42.7121 14.1426 39.7346 12.4875C36.757 10.8324 33.4066 9.96376 30 9.96376V0Z" fill="#53B483"/>
<path d="M23.1774 34.1193C22.7882 34.1136 22.4047 34.0426 22.0268 33.9062C21.6518 33.7699 21.3109 33.5426 21.0041 33.2244C20.6973 32.9062 20.4515 32.4787 20.2669 31.9418C20.085 31.4048 19.9941 30.7344 19.9941 29.9304C19.9941 29.169 20.0694 28.4929 20.22 27.902C20.3734 27.3111 20.5936 26.8125 20.8805 26.4062C21.1674 25.9972 21.514 25.6861 21.9203 25.473C22.3265 25.2599 22.7825 25.1534 23.2882 25.1534C23.8081 25.1534 24.2697 25.2557 24.6731 25.4602C25.0765 25.6648 25.4032 25.9474 25.6532 26.3082C25.9061 26.669 26.0666 27.0795 26.1348 27.5398H24.835C24.747 27.1761 24.5723 26.8793 24.3109 26.6491C24.0495 26.419 23.7086 26.304 23.2882 26.304C22.649 26.304 22.1504 26.5824 21.7924 27.1392C21.4373 27.696 21.2583 28.4702 21.2555 29.4616H21.3194C21.47 29.2145 21.6547 29.0043 21.8734 28.831C22.095 28.6548 22.3422 28.5199 22.6149 28.4261C22.8904 28.3295 23.1802 28.2812 23.4842 28.2812C23.9899 28.2812 24.4473 28.4048 24.8564 28.652C25.2683 28.8963 25.5964 29.2344 25.8407 29.6662C26.085 30.098 26.2072 30.5923 26.2072 31.1491C26.2072 31.706 26.0808 32.2102 25.8279 32.6619C25.5779 33.1136 25.2257 33.4716 24.7711 33.7358C24.3166 33.9972 23.7853 34.125 23.1774 34.1193ZM23.1731 33.0114C23.5083 33.0114 23.8081 32.929 24.0723 32.7642C24.3365 32.5994 24.5453 32.3778 24.6987 32.0994C24.8521 31.821 24.9288 31.5099 24.9288 31.1662C24.9288 30.831 24.8535 30.5256 24.7029 30.25C24.5552 29.9744 24.3507 29.7557 24.0893 29.5938C23.8308 29.4318 23.5353 29.3509 23.2029 29.3509C22.9501 29.3509 22.7157 29.3991 22.4998 29.4957C22.2868 29.5923 22.0993 29.7259 21.9373 29.8963C21.7754 30.0668 21.6475 30.2628 21.5538 30.4844C21.4629 30.7031 21.4174 30.9347 21.4174 31.179C21.4174 31.5057 21.4927 31.8082 21.6433 32.0866C21.7967 32.3651 22.0055 32.5895 22.2697 32.7599C22.5368 32.9276 22.8379 33.0114 23.1731 33.0114ZM27.5762 32.2955V31.2301L31.3475 25.2727H32.187V26.8409H31.6543L28.9569 31.1108V31.179H34.1259V32.2955H27.5762ZM31.714 34V31.9716L31.7225 31.4858V25.2727H32.9711V34H31.714ZM40.1664 32.3636V31.9034C40.1664 31.5739 40.2346 31.2727 40.3709 31C40.5101 30.7244 40.7118 30.5043 40.976 30.3395C41.2431 30.1719 41.5655 30.0881 41.9434 30.0881C42.3297 30.0881 42.6536 30.1705 42.915 30.3352C43.1763 30.5 43.3738 30.7202 43.5073 30.9957C43.6436 31.2713 43.7118 31.5739 43.7118 31.9034V32.3636C43.7118 32.6932 43.6436 32.9957 43.5073 33.2713C43.3709 33.544 43.1706 33.7642 42.9064 33.9318C42.6451 34.0966 42.324 34.179 41.9434 34.179C41.5598 34.179 41.236 34.0966 40.9718 33.9318C40.7076 33.7642 40.5073 33.544 40.3709 33.2713C40.2346 32.9957 40.1664 32.6932 40.1664 32.3636ZM41.1593 31.9034V32.3636C41.1593 32.608 41.2175 32.8295 41.334 33.0284C41.4505 33.2273 41.6536 33.3267 41.9434 33.3267C42.2303 33.3267 42.4306 33.2273 42.5442 33.0284C42.6578 32.8295 42.7147 32.608 42.7147 32.3636V31.9034C42.7147 31.6591 42.6593 31.4375 42.5485 31.2386C42.4405 31.0398 42.2388 30.9403 41.9434 30.9403C41.6593 30.9403 41.4576 31.0398 41.3382 31.2386C41.2189 31.4375 41.1593 31.6591 41.1593 31.9034ZM35.7772 27.3693V26.9091C35.7772 26.5795 35.8453 26.277 35.9817 26.0014C36.1209 25.7259 36.3226 25.5057 36.5868 25.3409C36.8539 25.1761 37.1763 25.0938 37.5542 25.0938C37.9405 25.0938 38.2644 25.1761 38.5257 25.3409C38.7871 25.5057 38.9846 25.7259 39.1181 26.0014C39.2516 26.277 39.3184 26.5795 39.3184 26.9091V27.3693C39.3184 27.6989 39.2502 28.0014 39.1138 28.277C38.9803 28.5497 38.7814 28.7699 38.5172 28.9375C38.2559 29.1023 37.9348 29.1847 37.5542 29.1847C37.1678 29.1847 36.8425 29.1023 36.5783 28.9375C36.3169 28.7699 36.1181 28.5497 35.9817 28.277C35.8453 28.0014 35.7772 27.6989 35.7772 27.3693ZM36.7743 26.9091V27.3693C36.7743 27.6136 36.8311 27.8352 36.9448 28.0341C37.0613 28.233 37.2644 28.3324 37.5542 28.3324C37.8382 28.3324 38.0371 28.233 38.1507 28.0341C38.2672 27.8352 38.3255 27.6136 38.3255 27.3693V26.9091C38.3255 26.6648 38.2701 26.4432 38.1593 26.2443C38.0485 26.0455 37.8468 25.946 37.5542 25.946C37.2701 25.946 37.0684 26.0455 36.949 26.2443C36.8326 26.4432 36.7743 26.6648 36.7743 26.9091ZM36.182 34L42.182 25.2727H43.2005L37.2005 34H36.182Z" fill="#255E46"/>
</svg>
