<svg width="60" height="60" viewBox="0 0 60 60" fill="none" xmlns="http://www.w3.org/2000/svg">
<path d="M60 30C60 46.5685 46.5685 60 30 60C13.4315 60 0 46.5685 0 30C0 13.4315 13.4315 0 30 0C46.5685 0 60 13.4315 60 30ZM9.96376 30C9.96376 41.0657 18.9343 50.0362 30 50.0362C41.0657 50.0362 50.0362 41.0657 50.0362 30C50.0362 18.9343 41.0657 9.96376 30 9.96376C18.9343 9.96376 9.96376 18.9343 9.96376 30Z" fill="#F6F7F9"/>
<path d="M30 0C34.1625 4.96376e-08 38.2795 0.86623 42.0891 2.5436C45.8987 4.22097 49.3175 6.67277 52.1282 9.74307C54.9389 12.8134 57.0798 16.435 58.4149 20.3776C59.7501 24.3202 60.2501 28.4975 59.8833 32.6438C59.5165 36.7901 58.2908 40.8147 56.2842 44.4617C54.2776 48.1086 51.5341 51.2981 48.228 53.8273C44.922 56.3564 41.1258 58.1699 37.0809 59.1524C33.036 60.1349 28.8309 60.2648 24.733 59.534L26.4823 49.725C29.2192 50.2131 32.0276 50.1263 34.7291 49.4701C37.4306 48.814 39.966 47.6028 42.174 45.9136C44.3821 44.2245 46.2144 42.0943 47.5546 39.6586C48.8947 37.2229 49.7133 34.5349 49.9583 31.7657C50.2033 28.9965 49.8693 26.2066 48.9776 23.5734C48.0859 20.9403 46.656 18.5215 44.7789 16.4709C42.9017 14.4203 40.6183 12.7828 38.074 11.6626C35.5297 10.5423 32.78 9.96376 30 9.96376V0Z" fill="#53B483"/>
<path d="M23.851 34.1193C23.3169 34.1193 22.8368 34.017 22.4107 33.8125C21.9874 33.6051 21.6493 33.321 21.3965 32.9602C21.1436 32.5994 21.0087 32.1875 20.9917 31.7244H22.2701C22.3013 32.0994 22.4675 32.4077 22.7686 32.6491C23.0698 32.8906 23.4306 33.0114 23.851 33.0114C24.1863 33.0114 24.4831 32.9347 24.7417 32.7812C25.003 32.625 25.2076 32.4105 25.3553 32.1378C25.5059 31.8651 25.5811 31.554 25.5811 31.2045C25.5811 30.8494 25.5044 30.5327 25.351 30.2543C25.1976 29.9759 24.986 29.7571 24.7161 29.598C24.449 29.4389 24.1422 29.358 23.7956 29.3551C23.5314 29.3551 23.2658 29.4006 22.9988 29.4915C22.7317 29.5824 22.5158 29.7017 22.351 29.8494L21.1451 29.6705L21.6351 25.2727H26.4334V26.402H22.7303L22.4533 28.8438H22.5044C22.6749 28.679 22.9007 28.5412 23.182 28.4304C23.4661 28.3196 23.7701 28.2642 24.0939 28.2642C24.6252 28.2642 25.0982 28.3906 25.513 28.6435C25.9306 28.8963 26.2587 29.2415 26.4973 29.679C26.7388 30.1136 26.8581 30.6136 26.8553 31.179C26.8581 31.7443 26.7303 32.2486 26.4718 32.6918C26.2161 33.1349 25.861 33.4844 25.4064 33.7401C24.9547 33.9929 24.4363 34.1193 23.851 34.1193ZM28.4118 34V33.0455L31.3649 29.9858C31.6802 29.6534 31.9402 29.3622 32.1447 29.1122C32.3521 28.8594 32.5069 28.6193 32.6092 28.392C32.7115 28.1648 32.7626 27.9233 32.7626 27.6676C32.7626 27.3778 32.6944 27.1278 32.5581 26.9176C32.4217 26.7045 32.2356 26.5412 31.9998 26.4276C31.764 26.3111 31.4984 26.2528 31.2029 26.2528C30.8904 26.2528 30.6177 26.3168 30.3848 26.4446C30.1518 26.5724 29.9728 26.7528 29.8478 26.9858C29.7228 27.2187 29.6603 27.4915 29.6603 27.804H28.4032C28.4032 27.2727 28.5254 26.8082 28.7697 26.4105C29.014 26.0128 29.3493 25.7045 29.7754 25.4858C30.2015 25.2642 30.6859 25.1534 31.2285 25.1534C31.7768 25.1534 32.2598 25.2628 32.6774 25.4815C33.0978 25.6974 33.426 25.9929 33.6618 26.3679C33.8975 26.7401 34.0154 27.1605 34.0154 27.6293C34.0154 27.9531 33.9544 28.2699 33.8322 28.5795C33.7129 28.8892 33.5041 29.2344 33.2058 29.6151C32.9075 29.9929 32.4927 30.4517 31.9615 30.9915L30.2271 32.8068V32.8707H34.1561V34H28.4118ZM40.3265 32.3636V31.9034C40.3265 31.5739 40.3947 31.2727 40.5311 31C40.6703 30.7244 40.872 30.5043 41.1362 30.3395C41.4032 30.1719 41.7257 30.0881 42.1035 30.0881C42.4899 30.0881 42.8137 30.1705 43.0751 30.3352C43.3365 30.5 43.5339 30.7202 43.6674 30.9957C43.8038 31.2713 43.872 31.5739 43.872 31.9034V32.3636C43.872 32.6932 43.8038 32.9957 43.6674 33.2713C43.5311 33.544 43.3308 33.7642 43.0666 33.9318C42.8052 34.0966 42.4842 34.179 42.1035 34.179C41.72 34.179 41.3961 34.0966 41.1319 33.9318C40.8677 33.7642 40.6674 33.544 40.5311 33.2713C40.3947 32.9957 40.3265 32.6932 40.3265 32.3636ZM41.3194 31.9034V32.3636C41.3194 32.608 41.3777 32.8295 41.4941 33.0284C41.6106 33.2273 41.8137 33.3267 42.1035 33.3267C42.3904 33.3267 42.5907 33.2273 42.7044 33.0284C42.818 32.8295 42.8748 32.608 42.8748 32.3636V31.9034C42.8748 31.6591 42.8194 31.4375 42.7086 31.2386C42.6007 31.0398 42.399 30.9403 42.1035 30.9403C41.8194 30.9403 41.6177 31.0398 41.4984 31.2386C41.3791 31.4375 41.3194 31.6591 41.3194 31.9034ZM35.9373 27.3693V26.9091C35.9373 26.5795 36.0055 26.277 36.1419 26.0014C36.2811 25.7259 36.4828 25.5057 36.747 25.3409C37.014 25.1761 37.3365 25.0938 37.7143 25.0938C38.1007 25.0938 38.4245 25.1761 38.6859 25.3409C38.9473 25.5057 39.1447 25.7259 39.2782 26.0014C39.4118 26.277 39.4785 26.5795 39.4785 26.9091V27.3693C39.4785 27.6989 39.4103 28.0014 39.274 28.277C39.1404 28.5497 38.9416 28.7699 38.6774 28.9375C38.416 29.1023 38.095 29.1847 37.7143 29.1847C37.3279 29.1847 37.0027 29.1023 36.7385 28.9375C36.4771 28.7699 36.2782 28.5497 36.1419 28.277C36.0055 28.0014 35.9373 27.6989 35.9373 27.3693ZM36.9345 26.9091V27.3693C36.9345 27.6136 36.9913 27.8352 37.1049 28.0341C37.2214 28.233 37.4245 28.3324 37.7143 28.3324C37.9984 28.3324 38.1973 28.233 38.3109 28.0341C38.4274 27.8352 38.4856 27.6136 38.4856 27.3693V26.9091C38.4856 26.6648 38.4302 26.4432 38.3194 26.2443C38.2086 26.0455 38.0069 25.946 37.7143 25.946C37.4302 25.946 37.2285 26.0455 37.1092 26.2443C36.9927 26.4432 36.9345 26.6648 36.9345 26.9091ZM36.3422 34L42.3422 25.2727H43.3606L37.3606 34H36.3422Z" fill="#255E46"/>
</svg>
