<svg width="129" height="30" viewBox="0 0 129 30" fill="none" xmlns="http://www.w3.org/2000/svg">
<path d="M9.15483 12.6378C9.09801 12.0649 8.85417 11.6198 8.4233 11.3026C7.99242 10.9853 7.40767 10.8267 6.66903 10.8267C6.16714 10.8267 5.74337 10.8977 5.39773 11.0398C5.05208 11.1771 4.78693 11.3688 4.60227 11.6151C4.42235 11.8613 4.33239 12.1406 4.33239 12.4531C4.32292 12.7135 4.37737 12.9408 4.49574 13.1349C4.61884 13.3291 4.78693 13.4972 5 13.6392C5.21307 13.7765 5.45928 13.8973 5.73864 14.0014C6.01799 14.1009 6.31629 14.1861 6.63352 14.2571L7.94034 14.5696C8.57481 14.7116 9.1572 14.901 9.6875 15.1378C10.2178 15.3745 10.6771 15.6657 11.0653 16.0114C11.4536 16.357 11.7543 16.7642 11.9673 17.233C12.1851 17.7017 12.2964 18.2391 12.3011 18.8452C12.2964 19.7353 12.0691 20.5071 11.6193 21.1605C11.1742 21.8092 10.5303 22.3134 9.6875 22.6733C8.84943 23.0284 7.83854 23.206 6.65483 23.206C5.48059 23.206 4.45786 23.026 3.58665 22.6662C2.72017 22.3063 2.04309 21.7737 1.5554 21.0682C1.07244 20.358 0.819129 19.4796 0.795455 18.4332H3.77131C3.80445 18.9209 3.94413 19.3281 4.19034 19.6548C4.44129 19.9768 4.77509 20.2206 5.19176 20.3864C5.61316 20.5473 6.08902 20.6278 6.61932 20.6278C7.14015 20.6278 7.59233 20.5521 7.97585 20.4006C8.36411 20.2491 8.66477 20.0384 8.87784 19.7685C9.09091 19.4986 9.19744 19.1884 9.19744 18.8381C9.19744 18.5114 9.10038 18.2367 8.90625 18.0142C8.71686 17.7917 8.4375 17.6023 8.06818 17.446C7.7036 17.2898 7.25616 17.1477 6.72585 17.0199L5.14205 16.6222C3.91572 16.3239 2.94744 15.8575 2.23722 15.223C1.52699 14.5885 1.17424 13.7339 1.17898 12.6591C1.17424 11.7784 1.40862 11.009 1.8821 10.3509C2.36032 9.69271 3.0161 9.17898 3.84943 8.80966C4.68277 8.44034 5.62973 8.25568 6.69034 8.25568C7.76989 8.25568 8.71212 8.44034 9.51705 8.80966C10.3267 9.17898 10.9564 9.69271 11.4062 10.3509C11.8561 11.009 12.0881 11.7713 12.1023 12.6378H9.15483ZM19.2844 23.2131C18.1623 23.2131 17.1964 22.9858 16.3867 22.5312C15.5818 22.072 14.9615 21.4233 14.5259 20.5852C14.0903 19.7424 13.8725 18.7457 13.8725 17.5952C13.8725 16.473 14.0903 15.4882 14.5259 14.6406C14.9615 13.7931 15.5747 13.1326 16.3654 12.6591C17.1609 12.1856 18.0936 11.9489 19.1637 11.9489C19.8834 11.9489 20.5534 12.0649 21.1737 12.2969C21.7987 12.5241 22.3432 12.8674 22.8072 13.3267C23.2759 13.786 23.6405 14.3636 23.9009 15.0597C24.1613 15.7509 24.2915 16.5606 24.2915 17.4886V18.3196H15.0799V16.4446H21.4435C21.4435 16.009 21.3488 15.6231 21.1594 15.2869C20.9701 14.9508 20.7073 14.688 20.3711 14.4986C20.0397 14.3045 19.6538 14.2074 19.2134 14.2074C18.7541 14.2074 18.3469 14.3139 17.9918 14.527C17.6415 14.7353 17.3668 15.017 17.168 15.3722C16.9691 15.7225 16.8673 16.1132 16.8626 16.544V18.3267C16.8626 18.8665 16.962 19.3329 17.1609 19.7259C17.3645 20.1188 17.6509 20.4219 18.0202 20.6349C18.3896 20.848 18.8275 20.9545 19.3342 20.9545C19.6703 20.9545 19.9781 20.9072 20.2575 20.8125C20.5368 20.7178 20.7759 20.5758 20.9748 20.3864C21.1737 20.197 21.3252 19.965 21.4293 19.6903L24.2276 19.875C24.0856 20.5473 23.7944 21.1345 23.354 21.6364C22.9184 22.1335 22.355 22.5218 21.6637 22.8011C20.9772 23.0758 20.1841 23.2131 19.2844 23.2131ZM29.2915 16.6932V23H26.266V12.0909H29.1495V14.0156H29.2773C29.5188 13.3812 29.9237 12.8793 30.4918 12.5099C31.06 12.1359 31.7489 11.9489 32.5586 11.9489C33.3162 11.9489 33.9767 12.1146 34.5401 12.446C35.1036 12.7775 35.5415 13.2509 35.854 13.8665C36.1665 14.4773 36.3228 15.2064 36.3228 16.054V23H33.2972V16.5938C33.302 15.9261 33.1315 15.4053 32.7859 15.0312C32.4402 14.6525 31.9644 14.4631 31.3583 14.4631C30.9511 14.4631 30.5913 14.5507 30.2788 14.7259C29.971 14.901 29.7295 15.1567 29.5543 15.4929C29.3839 15.8243 29.2963 16.2244 29.2915 16.6932ZM44.5099 12.0909V14.3636H37.9403V12.0909H44.5099ZM39.4318 9.47727H42.4574V19.6477C42.4574 19.9271 42.5 20.1449 42.5852 20.3011C42.6705 20.4527 42.7888 20.5592 42.9403 20.6207C43.0966 20.6823 43.2765 20.7131 43.4801 20.7131C43.6222 20.7131 43.7642 20.7012 43.9062 20.6776C44.0483 20.6491 44.1572 20.6278 44.233 20.6136L44.7088 22.8651C44.5573 22.9124 44.3442 22.9669 44.0696 23.0284C43.795 23.0947 43.4612 23.1349 43.0682 23.1491C42.339 23.1776 41.6998 23.0805 41.1506 22.858C40.6061 22.6354 40.1823 22.2898 39.8793 21.821C39.5762 21.3523 39.4271 20.7604 39.4318 20.0455V9.47727ZM46.4808 23V12.0909H49.5064V23H46.4808ZM48.0007 10.6847C47.5509 10.6847 47.165 10.5355 46.843 10.2372C46.5258 9.93419 46.3672 9.57197 46.3672 9.15057C46.3672 8.7339 46.5258 8.37642 46.843 8.07812C47.165 7.77509 47.5509 7.62358 48.0007 7.62358C48.4505 7.62358 48.834 7.77509 49.1513 8.07812C49.4732 8.37642 49.6342 8.7339 49.6342 9.15057C49.6342 9.57197 49.4732 9.93419 49.1513 10.2372C48.834 10.5355 48.4505 10.6847 48.0007 10.6847ZM68.8467 20.884L65.6267 23.391L63.4417 22.471L64.7757 14.858C64.9137 13.984 64.6147 13.616 64.0857 13.616C63.6717 13.616 63.3037 13.869 62.7057 14.306L61.9927 14.812L60.5207 23H57.4617L58.9107 14.858C59.0717 13.984 58.7497 13.616 58.2437 13.616C57.8297 13.616 57.4387 13.869 56.8407 14.306L56.1277 14.812L54.6787 23H51.6427L53.3447 13.271L51.5047 13.892L51.3897 13.593L56.1967 11.776L56.6107 12.121L56.1967 14.421L59.6467 11.753C61.5557 11.753 62.2457 12.581 62.0387 14.421L65.5117 11.753C67.5127 11.753 68.2027 12.719 67.8807 14.628L66.5467 22.126L68.6397 20.631L68.8467 20.884ZM75.3068 10.074L74.4558 10.258L72.3398 10.074L72.4088 8.602L72.9378 7.199L73.8808 7.038L75.8128 7.199V8.786L75.3068 10.074ZM75.4678 20.884L72.2478 23.391L70.0398 22.471L71.6728 13.271L69.8098 13.892L69.7178 13.593L74.5248 11.776L74.9388 12.121L73.1448 22.149L75.2608 20.631L75.4678 20.884ZM88.254 20.884L85.034 23.391L82.826 22.471L84.183 14.927C84.344 14.03 83.976 13.616 83.378 13.616C82.918 13.616 82.458 13.869 81.745 14.352L81.262 14.697L79.79 23H76.754L78.456 13.271L76.616 13.892L76.501 13.593L81.308 11.776L81.722 12.121L81.331 14.26L84.85 11.753C86.897 11.753 87.61 12.719 87.288 14.628L85.931 22.126L88.047 20.631L88.254 20.884ZM95.38 20.976L91.493 23.391L89.285 22.471L91.033 12.742H89.584L89.676 12.351H91.079L91.263 11.385L94.161 9.062H94.69L94.115 12.351H96.392L96.323 12.742H94.046L92.367 22.241L95.219 20.7L95.38 20.976Z" fill="white"/>
<path d="M127.691 11.0551L126.391 10.4371C128.615 6.66815 128.634 4.36715 128.634 4.36715C126.632 4.0678 124.591 4.15675 122.623 4.62915L123.618 3.25915C122.066 3.05409 120.488 3.2383 119.025 3.79517C117.562 4.35204 116.26 5.26409 115.238 6.44915L115.684 4.42915C113.683 5.02119 111.958 6.30623 110.818 8.05415L110.718 6.70915C109.767 7.47209 108.977 8.41544 108.392 9.48495C107.807 10.5545 107.439 11.729 107.31 12.9411L106.725 10.5241C106.725 10.5241 102.73 16.6931 106.9 22.7041C107.624 21.4223 108.438 20.1933 109.336 19.0261C109.088 16.5513 109.173 14.0544 109.589 11.6021C109.606 13.7644 109.774 15.9229 110.089 18.0621C110.912 17.0376 111.786 16.0551 112.708 15.1181C112.629 12.8583 112.833 10.5974 113.315 8.38815C113.19 10.4021 113.219 12.4226 113.402 14.4321C114.279 13.5848 115.199 12.7837 116.16 12.0321C116.442 10.1803 116.97 8.37451 117.732 6.66315C117.323 8.24813 117.036 9.86222 116.875 11.4911C118.577 10.2259 120.412 9.14894 122.347 8.27915C120.518 9.2671 118.832 10.499 117.335 11.9411C118.98 12.0728 120.633 12.0772 122.279 11.9541C120.454 12.4032 118.578 12.605 116.7 12.5541C115.74 13.4981 114.835 14.4911 114 15.4801C116.252 15.4599 118.498 15.2559 120.717 14.8701C118.332 15.6733 115.849 16.1499 113.337 16.2871C112.537 17.2871 111.807 18.2581 111.177 19.1481C113.432 19.2353 115.691 19.1625 117.936 18.9301C115.544 19.6172 113.071 19.9801 110.583 20.0091C109.368 21.7881 107.018 25.6741 106.369 26.8221H107.98C108.554 25.6871 109.146 24.6221 109.742 23.5931C113.712 24.4105 117.844 23.6455 121.258 21.4611L119.17 20.2851C122.17 19.9441 125.459 16.4341 125.459 16.4341L123.87 16.3701C125.463 14.8512 126.758 13.0487 127.691 11.0551Z" fill="#53B483"/>
</svg>
